M48
; DRILL file {KiCad (5.1.8)-1} date 11/30/20 21:02:20
; FORMAT={-:-/ absolute / inch / decimal}
; #@! TF.CreationDate,2020-11-30T21:02:20-05:00
; #@! TF.GenerationSoftware,Kicad,Pcbnew,(5.1.8)-1
; #@! TF.FileFunction,Plated,1,2,PTH
FMAT,2
INCH
T1C0.0157
T2C0.0374
T3C0.0394
T4C0.0512
T5C0.0906
%
G90
G05
T1
X5.3681Y-3.9469
X5.6Y-2.9407
X5.6086Y-3.2479
X5.61Y-3.2
X5.63Y-2.9715
X5.6569Y-3.2866
X5.66Y-3.24
X5.7002Y-3.3302
X5.7035Y-3.2835
X5.7618Y-3.9469
X5.95Y-2.86
X5.973Y-2.8945
X6.15Y-3.64
X6.1555Y-3.9469
X6.5492Y-3.9469
X6.9429Y-3.9469
X7.3366Y-3.9469
X7.7303Y-3.9469
X8.124Y-3.9469
T2
X6.87Y-3.0413
X6.87Y-3.12
X6.9684Y-3.0413
X6.9684Y-3.12
T3
X5.2Y-2.68
X5.2Y-2.78
X5.2Y-2.88
X5.2Y-2.98
X5.2Y-3.08
X5.2Y-3.18
X5.2Y-3.28
X5.2Y-3.38
X5.2Y-3.48
X5.2Y-3.58
X5.3Y-2.68
X5.3Y-2.78
X5.3Y-2.88
X5.3Y-2.98
X5.3Y-3.08
X5.3Y-3.18
X5.3Y-3.28
X5.3Y-3.38
X5.3Y-3.48
X5.3Y-3.58
T4
X5.2106Y-4.439
X5.4075Y-4.439
X5.6043Y-4.439
X5.8012Y-4.439
X5.998Y-4.439
X6.1949Y-4.439
X6.3917Y-4.439
X6.5886Y-4.439
X6.7854Y-4.439
X6.9823Y-4.439
X7.1791Y-4.439
X7.376Y-4.439
X7.5728Y-4.439
X7.7697Y-4.439
X7.9665Y-4.439
X8.1634Y-4.439
T5
X6.683Y-2.9287
X7.1554Y-2.9287
T0
M30
