%TF.GenerationSoftware,KiCad,Pcbnew,(5.1.8)-1*%
%TF.CreationDate,2020-11-30T21:01:39-05:00*%
%TF.ProjectId,Relacon,4f666654-7261-46b2-9e6b-696361645f70,1*%
%TF.SameCoordinates,Original*%
%TF.FileFunction,Copper,L2,Bot*%
%TF.FilePolarity,Positive*%
%FSLAX46Y46*%
G04 Gerber Fmt 4.6, Leading zero omitted, Abs format (unit mm)*
G04 Created by KiCad (PCBNEW (5.1.8)-1) date 2020-11-30 21:01:39*
%MOMM*%
%LPD*%
G01*
G04 APERTURE LIST*
%TA.AperFunction,ComponentPad*%
%ADD10R,2.600000X2.600000*%
%TD*%
%TA.AperFunction,ComponentPad*%
%ADD11C,2.600000*%
%TD*%
%TA.AperFunction,ComponentPad*%
%ADD12O,1.700000X1.700000*%
%TD*%
%TA.AperFunction,ComponentPad*%
%ADD13R,1.700000X1.700000*%
%TD*%
%TA.AperFunction,ComponentPad*%
%ADD14C,4.000000*%
%TD*%
%TA.AperFunction,ComponentPad*%
%ADD15C,1.600000*%
%TD*%
%TA.AperFunction,ComponentPad*%
%ADD16R,1.600000X1.600000*%
%TD*%
%TA.AperFunction,ViaPad*%
%ADD17C,0.800000*%
%TD*%
%TA.AperFunction,Conductor*%
%ADD18C,0.508000*%
%TD*%
%TA.AperFunction,Conductor*%
%ADD19C,0.254000*%
%TD*%
%TA.AperFunction,Conductor*%
%ADD20C,0.100000*%
%TD*%
G04 APERTURE END LIST*
D10*
%TO.P,J3,1*%
%TO.N,RELAY0B*%
X132350000Y-112750000D03*
D11*
%TO.P,J3,2*%
%TO.N,RELAY0A*%
X137350000Y-112750000D03*
%TO.P,J3,3*%
%TO.N,RELAY1B*%
X142350000Y-112750000D03*
%TO.P,J3,4*%
%TO.N,RELAY1A*%
X147350000Y-112750000D03*
%TO.P,J3,5*%
%TO.N,RELAY2B*%
X152350000Y-112750000D03*
%TO.P,J3,6*%
%TO.N,RELAY2A*%
X157350000Y-112750000D03*
%TO.P,J3,7*%
%TO.N,RELAY3B*%
X162350000Y-112750000D03*
%TO.P,J3,8*%
%TO.N,RELAY3A*%
X167350000Y-112750000D03*
%TO.P,J3,9*%
%TO.N,RELAY4B*%
X172350000Y-112750000D03*
%TO.P,J3,10*%
%TO.N,RELAY4A*%
X177350000Y-112750000D03*
%TO.P,J3,11*%
%TO.N,RELAY5B*%
X182350000Y-112750000D03*
%TO.P,J3,12*%
%TO.N,RELAY5A*%
X187350000Y-112750000D03*
%TO.P,J3,13*%
%TO.N,RELAY6B*%
X192350000Y-112750000D03*
%TO.P,J3,14*%
%TO.N,RELAY6A*%
X197350000Y-112750000D03*
%TO.P,J3,15*%
%TO.N,RELAY7B*%
X202350000Y-112750000D03*
%TO.P,J3,16*%
%TO.N,RELAY7A*%
X207350000Y-112750000D03*
%TD*%
D12*
%TO.P,J2,20*%
%TO.N,PF1*%
X134620000Y-90932000D03*
%TO.P,J2,19*%
%TO.N,GND*%
X132080000Y-90932000D03*
%TO.P,J2,18*%
%TO.N,PF0*%
X134620000Y-88392000D03*
%TO.P,J2,17*%
%TO.N,PB8*%
X132080000Y-88392000D03*
%TO.P,J2,16*%
%TO.N,PA15*%
X134620000Y-85852000D03*
%TO.P,J2,15*%
%TO.N,PB7*%
X132080000Y-85852000D03*
%TO.P,J2,14*%
%TO.N,PA14*%
X134620000Y-83312000D03*
%TO.P,J2,13*%
%TO.N,PB6*%
X132080000Y-83312000D03*
%TO.P,J2,12*%
%TO.N,PA13*%
X134620000Y-80772000D03*
%TO.P,J2,11*%
%TO.N,PB5*%
X132080000Y-80772000D03*
%TO.P,J2,10*%
%TO.N,PA10*%
X134620000Y-78232000D03*
%TO.P,J2,9*%
%TO.N,PB4*%
X132080000Y-78232000D03*
%TO.P,J2,8*%
%TO.N,PA9*%
X134620000Y-75692000D03*
%TO.P,J2,7*%
%TO.N,PB3*%
X132080000Y-75692000D03*
%TO.P,J2,6*%
%TO.N,PA8*%
X134620000Y-73152000D03*
%TO.P,J2,5*%
%TO.N,PB1*%
X132080000Y-73152000D03*
%TO.P,J2,4*%
%TO.N,+3V3*%
X134620000Y-70612000D03*
%TO.P,J2,3*%
%TO.N,PB0*%
X132080000Y-70612000D03*
%TO.P,J2,2*%
%TO.N,+5V*%
X134620000Y-68072000D03*
D13*
%TO.P,J2,1*%
%TO.N,GND*%
X132080000Y-68072000D03*
%TD*%
D14*
%TO.P,J1,5*%
%TO.N,GND*%
X169748000Y-74388000D03*
X181748000Y-74388000D03*
D15*
%TO.P,J1,4*%
X174498000Y-77248000D03*
%TO.P,J1,3*%
%TO.N,USB_D+*%
X176998000Y-77248000D03*
%TO.P,J1,2*%
%TO.N,USB_D-*%
X176998000Y-79248000D03*
D16*
%TO.P,J1,1*%
%TO.N,+5V*%
X174498000Y-79248000D03*
%TD*%
D17*
%TO.N,+5V*%
X156210000Y-92456000D03*
X206350000Y-100250000D03*
X196350000Y-100250000D03*
X186350000Y-100250000D03*
X176350000Y-100250000D03*
X166350000Y-100250000D03*
X156350000Y-100250000D03*
X146350000Y-100250000D03*
X136350000Y-100250000D03*
%TO.N,PB8*%
X144785753Y-84587753D03*
%TO.N,PB7*%
X144868502Y-83400502D03*
%TO.N,PB6*%
X143684984Y-83479518D03*
%TO.N,PB5*%
X143764000Y-82296000D03*
%TO.N,PB4*%
X142459247Y-82496237D03*
%TO.N,PB3*%
X142494000Y-81280000D03*
%TO.N,PB1*%
X151130000Y-72644000D03*
%TO.N,PB0*%
X151714655Y-73520982D03*
%TO.N,USB_D+*%
X143002000Y-75476000D03*
%TO.N,USB_D-*%
X142240000Y-74695000D03*
%TD*%
D18*
%TO.N,+5V*%
X174498000Y-79248000D02*
X166878000Y-79248000D01*
X166878000Y-79248000D02*
X156210000Y-89916000D01*
X156210000Y-89916000D02*
X156210000Y-92456000D01*
X170895461Y-68499539D02*
X178814011Y-76418090D01*
X134620000Y-68072000D02*
X170467922Y-68072000D01*
X175806001Y-80556001D02*
X174498000Y-79248000D01*
X177625841Y-80556001D02*
X175806001Y-80556001D01*
X170467922Y-68072000D02*
X170895461Y-68499539D01*
X178814011Y-76418090D02*
X178814011Y-79367831D01*
X178814011Y-79367831D02*
X177625841Y-80556001D01*
X156210000Y-100110000D02*
X156350000Y-100250000D01*
X156210000Y-92456000D02*
X156210000Y-100110000D01*
X156350000Y-100250000D02*
X166350000Y-100250000D01*
X166350000Y-100250000D02*
X176350000Y-100250000D01*
X176350000Y-100250000D02*
X186350000Y-100250000D01*
X186350000Y-100250000D02*
X196350000Y-100250000D01*
X196350000Y-100250000D02*
X206350000Y-100250000D01*
X156350000Y-100250000D02*
X146350000Y-100250000D01*
X146350000Y-100250000D02*
X136350000Y-100250000D01*
D19*
%TO.N,PB8*%
X144537496Y-84836010D02*
X143002010Y-84836010D01*
X144785753Y-84587753D02*
X144537496Y-84836010D01*
X143002010Y-84836010D02*
X143255990Y-84836010D01*
X135132883Y-89700999D02*
X133388999Y-89700999D01*
X135890000Y-88943882D02*
X135132883Y-89700999D01*
X135890000Y-87122316D02*
X135890000Y-88943882D01*
X136398010Y-86614306D02*
X135890000Y-87122316D01*
X133388999Y-89700999D02*
X132080000Y-88392000D01*
X136398010Y-85089990D02*
X136398010Y-86614306D01*
X136651990Y-84836010D02*
X136398010Y-85089990D01*
X143002010Y-84836010D02*
X136651990Y-84836010D01*
%TO.N,PB7*%
X143941004Y-84328000D02*
X144868502Y-83400502D01*
X136100434Y-84328000D02*
X143941004Y-84328000D01*
X135890000Y-84538434D02*
X136100434Y-84328000D01*
X135890000Y-86403882D02*
X135890000Y-84538434D01*
X135210881Y-87083001D02*
X135890000Y-86403882D01*
X133311001Y-87083001D02*
X135210881Y-87083001D01*
X132080000Y-85852000D02*
X133311001Y-87083001D01*
%TO.N,PB6*%
X133388999Y-84620999D02*
X132080000Y-83312000D01*
X135089001Y-84620999D02*
X133388999Y-84620999D01*
X135890000Y-83820000D02*
X135089001Y-84620999D01*
X143684984Y-83479518D02*
X143344502Y-83820000D01*
X143344502Y-83820000D02*
X135890000Y-83820000D01*
%TO.N,PB5*%
X142748000Y-83312000D02*
X143764000Y-82296000D01*
X135089001Y-82003001D02*
X136398000Y-83312000D01*
X133311001Y-82003001D02*
X135089001Y-82003001D01*
X132080000Y-80772000D02*
X133311001Y-82003001D01*
X142748000Y-83312000D02*
X136398000Y-83312000D01*
%TO.N,PB4*%
X141985990Y-82803990D02*
X141986000Y-82803990D01*
X142459247Y-82584753D02*
X142459247Y-82496237D01*
X142240010Y-82803990D02*
X142459247Y-82584753D01*
X141985990Y-82803990D02*
X142240010Y-82803990D01*
X141985980Y-82803980D02*
X141985990Y-82803990D01*
X136608414Y-82803980D02*
X141985980Y-82803980D01*
X135851001Y-82046567D02*
X136608414Y-82803980D01*
X135210881Y-79540999D02*
X135851001Y-80181119D01*
X133388999Y-79540999D02*
X135210881Y-79540999D01*
X135851001Y-80181119D02*
X135851001Y-82046567D01*
X132080000Y-78232000D02*
X133388999Y-79540999D01*
%TO.N,PB3*%
X136398000Y-78188118D02*
X136398000Y-81875132D01*
X135210881Y-77000999D02*
X136398000Y-78188118D01*
X133388999Y-77000999D02*
X135210881Y-77000999D01*
X132080000Y-75692000D02*
X133388999Y-77000999D01*
X136398000Y-81875132D02*
X136818838Y-82295970D01*
X142494000Y-81280000D02*
X141478030Y-82295970D01*
X141478030Y-82295970D02*
X136818838Y-82295970D01*
%TO.N,PB1*%
X150406999Y-71920999D02*
X151130000Y-72644000D01*
X133311001Y-71920999D02*
X150406999Y-71920999D01*
X132080000Y-73152000D02*
X133311001Y-71920999D01*
%TO.N,PB0*%
X151911001Y-73324636D02*
X151714655Y-73520982D01*
X151015882Y-71374000D02*
X151911001Y-72269119D01*
X134029119Y-69380999D02*
X135210881Y-69380999D01*
X133388999Y-70021119D02*
X134029119Y-69380999D01*
X135210881Y-69380999D02*
X137203882Y-71374000D01*
X133388999Y-70358000D02*
X133388999Y-70021119D01*
X151911001Y-72269119D02*
X151911001Y-73324636D01*
X132334000Y-70358000D02*
X133388999Y-70358000D01*
X132080000Y-70612000D02*
X132334000Y-70358000D01*
X137203882Y-71374000D02*
X151015882Y-71374000D01*
%TO.N,USB_D+*%
X146012000Y-78486000D02*
X143002000Y-75476000D01*
X155798000Y-78486000D02*
X146012000Y-78486000D01*
X155864757Y-78493522D02*
X155798000Y-78486000D01*
X155928166Y-78515710D02*
X155864757Y-78493522D01*
X155985047Y-78551451D02*
X155928166Y-78515710D01*
X156032550Y-78598954D02*
X155985047Y-78551451D01*
X156068291Y-78655835D02*
X156032550Y-78598954D01*
X156090479Y-78719244D02*
X156068291Y-78655835D01*
X156098000Y-78786000D02*
X156090479Y-78719244D01*
X156098000Y-79098300D02*
X156098000Y-78786000D01*
X156105522Y-79165057D02*
X156098000Y-79098300D01*
X156127710Y-79228466D02*
X156105522Y-79165057D01*
X156163451Y-79285347D02*
X156127710Y-79228466D01*
X156210954Y-79332850D02*
X156163451Y-79285347D01*
X156267835Y-79368591D02*
X156210954Y-79332850D01*
X156331244Y-79390779D02*
X156267835Y-79368591D01*
X156398000Y-79398300D02*
X156331244Y-79390779D01*
X156464757Y-79390779D02*
X156398000Y-79398300D01*
X156528166Y-79368591D02*
X156464757Y-79390779D01*
X156585047Y-79332850D02*
X156528166Y-79368591D01*
X156632550Y-79285347D02*
X156585047Y-79332850D01*
X156668291Y-79228466D02*
X156632550Y-79285347D01*
X156690479Y-79165057D02*
X156668291Y-79228466D01*
X156698000Y-79098300D02*
X156690479Y-79165057D01*
X156698000Y-78786000D02*
X156698000Y-79098300D01*
X156705522Y-78719244D02*
X156698000Y-78786000D01*
X156727710Y-78655835D02*
X156705522Y-78719244D01*
X156763451Y-78598954D02*
X156727710Y-78655835D01*
X156810954Y-78551451D02*
X156763451Y-78598954D01*
X159698000Y-78786000D02*
X159690479Y-78719244D01*
X159698000Y-79098300D02*
X159698000Y-78786000D01*
X157128166Y-78515710D02*
X157064757Y-78493522D01*
X159690479Y-78719244D02*
X159668291Y-78655835D01*
X159705522Y-79165057D02*
X159698000Y-79098300D01*
X159727710Y-79228466D02*
X159705522Y-79165057D01*
X159763451Y-79285347D02*
X159727710Y-79228466D01*
X159810954Y-79332850D02*
X159763451Y-79285347D01*
X159867835Y-79368591D02*
X159810954Y-79332850D01*
X159931244Y-79390779D02*
X159867835Y-79368591D01*
X159998000Y-79398300D02*
X159931244Y-79390779D01*
X160064757Y-79390779D02*
X159998000Y-79398300D01*
X160128166Y-79368591D02*
X160064757Y-79390779D01*
X160185047Y-79332850D02*
X160128166Y-79368591D01*
X160232550Y-79285347D02*
X160185047Y-79332850D01*
X160268291Y-79228466D02*
X160232550Y-79285347D01*
X160290479Y-79165057D02*
X160268291Y-79228466D01*
X160298000Y-78786000D02*
X160298000Y-79098300D01*
X160305522Y-78719244D02*
X160298000Y-78786000D01*
X160327710Y-78655835D02*
X160305522Y-78719244D01*
X160363451Y-78598954D02*
X160327710Y-78655835D01*
X160410954Y-78551451D02*
X160363451Y-78598954D01*
X160467835Y-78515710D02*
X160410954Y-78551451D01*
X160531244Y-78493522D02*
X160467835Y-78515710D01*
X160598000Y-78486000D02*
X160531244Y-78493522D01*
X156998000Y-78486000D02*
X156931244Y-78493522D01*
X160664757Y-78493522D02*
X160598000Y-78486000D01*
X160728166Y-78515710D02*
X160664757Y-78493522D01*
X160785047Y-78551451D02*
X160728166Y-78515710D01*
X160832550Y-78598954D02*
X160785047Y-78551451D01*
X160868291Y-78655835D02*
X160832550Y-78598954D01*
X161498000Y-79098300D02*
X161490479Y-79165057D01*
X161498000Y-78786000D02*
X161498000Y-79098300D01*
X161527710Y-78655835D02*
X161505522Y-78719244D01*
X161610954Y-78551451D02*
X161563451Y-78598954D01*
X160898000Y-79098300D02*
X160898000Y-78786000D01*
X161731244Y-78493522D02*
X161667835Y-78515710D01*
X176998000Y-77248000D02*
X175816999Y-76066999D01*
X161505522Y-78719244D02*
X161498000Y-78786000D01*
X160298000Y-79098300D02*
X160290479Y-79165057D01*
X173869001Y-76066999D02*
X171450000Y-78486000D01*
X161667835Y-78515710D02*
X161610954Y-78551451D01*
X160905522Y-79165057D02*
X160898000Y-79098300D01*
X156931244Y-78493522D02*
X156867835Y-78515710D01*
X161798000Y-78486000D02*
X161731244Y-78493522D01*
X171450000Y-78486000D02*
X161798000Y-78486000D01*
X161264757Y-79390779D02*
X161198000Y-79398300D01*
X175816999Y-76066999D02*
X173869001Y-76066999D01*
X157064757Y-78493522D02*
X156998000Y-78486000D01*
X161563451Y-78598954D02*
X161527710Y-78655835D01*
X161067835Y-79368591D02*
X161010954Y-79332850D01*
X161490479Y-79165057D02*
X161468291Y-79228466D01*
X161468291Y-79228466D02*
X161432550Y-79285347D01*
X161328166Y-79368591D02*
X161264757Y-79390779D01*
X161432550Y-79285347D02*
X161385047Y-79332850D01*
X161385047Y-79332850D02*
X161328166Y-79368591D01*
X161198000Y-79398300D02*
X161131244Y-79390779D01*
X156867835Y-78515710D02*
X156810954Y-78551451D01*
X161131244Y-79390779D02*
X161067835Y-79368591D01*
X160927710Y-79228466D02*
X160905522Y-79165057D01*
X161010954Y-79332850D02*
X160963451Y-79285347D01*
X160963451Y-79285347D02*
X160927710Y-79228466D01*
X160898000Y-78786000D02*
X160890479Y-78719244D01*
X160890479Y-78719244D02*
X160868291Y-78655835D01*
X159668291Y-78655835D02*
X159632550Y-78598954D01*
X159632550Y-78598954D02*
X159585047Y-78551451D01*
X159585047Y-78551451D02*
X159528166Y-78515710D01*
X159528166Y-78515710D02*
X159464757Y-78493522D01*
X159464757Y-78493522D02*
X159398000Y-78486000D01*
X159398000Y-78486000D02*
X159331244Y-78493522D01*
X159331244Y-78493522D02*
X159267835Y-78515710D01*
X159267835Y-78515710D02*
X159210954Y-78551451D01*
X159210954Y-78551451D02*
X159163451Y-78598954D01*
X159163451Y-78598954D02*
X159127710Y-78655835D01*
X159127710Y-78655835D02*
X159105522Y-78719244D01*
X159105522Y-78719244D02*
X159098000Y-78786000D01*
X159098000Y-78786000D02*
X159098000Y-79098300D01*
X159098000Y-79098300D02*
X159090479Y-79165057D01*
X159090479Y-79165057D02*
X159068291Y-79228466D01*
X159068291Y-79228466D02*
X159032550Y-79285347D01*
X159032550Y-79285347D02*
X158985047Y-79332850D01*
X158985047Y-79332850D02*
X158928166Y-79368591D01*
X158928166Y-79368591D02*
X158864757Y-79390779D01*
X158864757Y-79390779D02*
X158798000Y-79398300D01*
X158798000Y-79398300D02*
X158731244Y-79390779D01*
X158731244Y-79390779D02*
X158667835Y-79368591D01*
X158667835Y-79368591D02*
X158610954Y-79332850D01*
X158610954Y-79332850D02*
X158563451Y-79285347D01*
X158563451Y-79285347D02*
X158527710Y-79228466D01*
X158527710Y-79228466D02*
X158505522Y-79165057D01*
X158505522Y-79165057D02*
X158498000Y-79098300D01*
X158498000Y-79098300D02*
X158498000Y-78786000D01*
X158498000Y-78786000D02*
X158490479Y-78719244D01*
X158490479Y-78719244D02*
X158468291Y-78655835D01*
X158468291Y-78655835D02*
X158432550Y-78598954D01*
X158432550Y-78598954D02*
X158385047Y-78551451D01*
X158385047Y-78551451D02*
X158328166Y-78515710D01*
X158328166Y-78515710D02*
X158264757Y-78493522D01*
X158264757Y-78493522D02*
X158198000Y-78486000D01*
X158198000Y-78486000D02*
X158131244Y-78493522D01*
X158131244Y-78493522D02*
X158067835Y-78515710D01*
X158067835Y-78515710D02*
X158010954Y-78551451D01*
X158010954Y-78551451D02*
X157963451Y-78598954D01*
X157963451Y-78598954D02*
X157927710Y-78655835D01*
X157927710Y-78655835D02*
X157905522Y-78719244D01*
X157905522Y-78719244D02*
X157898000Y-78786000D01*
X157898000Y-78786000D02*
X157898000Y-79098300D01*
X157898000Y-79098300D02*
X157890479Y-79165057D01*
X157890479Y-79165057D02*
X157868291Y-79228466D01*
X157868291Y-79228466D02*
X157832550Y-79285347D01*
X157832550Y-79285347D02*
X157785047Y-79332850D01*
X157785047Y-79332850D02*
X157728166Y-79368591D01*
X157728166Y-79368591D02*
X157664757Y-79390779D01*
X157664757Y-79390779D02*
X157598000Y-79398300D01*
X157598000Y-79398300D02*
X157531244Y-79390779D01*
X157531244Y-79390779D02*
X157467835Y-79368591D01*
X157467835Y-79368591D02*
X157410954Y-79332850D01*
X157410954Y-79332850D02*
X157363451Y-79285347D01*
X157363451Y-79285347D02*
X157327710Y-79228466D01*
X157327710Y-79228466D02*
X157305522Y-79165057D01*
X157305522Y-79165057D02*
X157298000Y-79098300D01*
X157298000Y-79098300D02*
X157298000Y-78786000D01*
X157298000Y-78786000D02*
X157290479Y-78719244D01*
X157290479Y-78719244D02*
X157268291Y-78655835D01*
X157268291Y-78655835D02*
X157232550Y-78598954D01*
X157232550Y-78598954D02*
X157185047Y-78551451D01*
X157185047Y-78551451D02*
X157128166Y-78515710D01*
%TO.N,USB_D-*%
X143376882Y-74695000D02*
X142240000Y-74695000D01*
X178179001Y-76681119D02*
X177028763Y-75530881D01*
X171196011Y-77977989D02*
X146659871Y-77977989D01*
X176998000Y-79248000D02*
X178179001Y-78066999D01*
X178179001Y-78066999D02*
X178179001Y-76681119D01*
X177028763Y-75530881D02*
X173643119Y-75530881D01*
X173643119Y-75530881D02*
X171196011Y-77977989D01*
X146659871Y-77977989D02*
X143376882Y-74695000D01*
%TD*%
%TO.N,GND*%
X211361730Y-63955053D02*
X211577422Y-64020174D01*
X211776352Y-64125948D01*
X211950954Y-64268349D01*
X212094570Y-64441951D01*
X212201729Y-64640137D01*
X212268354Y-64855369D01*
X212294000Y-65099375D01*
X212294001Y-115866410D01*
X212269947Y-116111731D01*
X212204827Y-116327420D01*
X212099051Y-116526355D01*
X211956652Y-116700954D01*
X211783049Y-116844570D01*
X211584863Y-116951729D01*
X211369631Y-117018354D01*
X211125625Y-117044000D01*
X128608580Y-117044000D01*
X128363269Y-117019947D01*
X128147580Y-116954827D01*
X127948645Y-116849051D01*
X127774046Y-116706652D01*
X127630430Y-116533049D01*
X127523271Y-116334863D01*
X127456646Y-116119631D01*
X127431000Y-115875625D01*
X127431000Y-115475744D01*
X127948000Y-115475744D01*
X127948000Y-115664256D01*
X127984777Y-115849147D01*
X128056917Y-116023310D01*
X128161649Y-116180052D01*
X128294948Y-116313351D01*
X128451690Y-116418083D01*
X128625853Y-116490223D01*
X128810744Y-116527000D01*
X128999256Y-116527000D01*
X129184147Y-116490223D01*
X129358310Y-116418083D01*
X129515052Y-116313351D01*
X129648351Y-116180052D01*
X129753083Y-116023310D01*
X129825223Y-115849147D01*
X129862000Y-115664256D01*
X129862000Y-115475744D01*
X209863000Y-115475744D01*
X209863000Y-115664256D01*
X209899777Y-115849147D01*
X209971917Y-116023310D01*
X210076649Y-116180052D01*
X210209948Y-116313351D01*
X210366690Y-116418083D01*
X210540853Y-116490223D01*
X210725744Y-116527000D01*
X210914256Y-116527000D01*
X211099147Y-116490223D01*
X211273310Y-116418083D01*
X211430052Y-116313351D01*
X211563351Y-116180052D01*
X211668083Y-116023310D01*
X211740223Y-115849147D01*
X211777000Y-115664256D01*
X211777000Y-115475744D01*
X211740223Y-115290853D01*
X211668083Y-115116690D01*
X211563351Y-114959948D01*
X211430052Y-114826649D01*
X211273310Y-114721917D01*
X211099147Y-114649777D01*
X210914256Y-114613000D01*
X210725744Y-114613000D01*
X210540853Y-114649777D01*
X210366690Y-114721917D01*
X210209948Y-114826649D01*
X210076649Y-114959948D01*
X209971917Y-115116690D01*
X209899777Y-115290853D01*
X209863000Y-115475744D01*
X129862000Y-115475744D01*
X129825223Y-115290853D01*
X129753083Y-115116690D01*
X129648351Y-114959948D01*
X129515052Y-114826649D01*
X129358310Y-114721917D01*
X129184147Y-114649777D01*
X128999256Y-114613000D01*
X128810744Y-114613000D01*
X128625853Y-114649777D01*
X128451690Y-114721917D01*
X128294948Y-114826649D01*
X128161649Y-114959948D01*
X128056917Y-115116690D01*
X127984777Y-115290853D01*
X127948000Y-115475744D01*
X127431000Y-115475744D01*
X127431000Y-111450000D01*
X130667157Y-111450000D01*
X130667157Y-114050000D01*
X130674513Y-114124689D01*
X130696299Y-114196508D01*
X130731678Y-114262696D01*
X130779289Y-114320711D01*
X130837304Y-114368322D01*
X130903492Y-114403701D01*
X130975311Y-114425487D01*
X131050000Y-114432843D01*
X133650000Y-114432843D01*
X133724689Y-114425487D01*
X133796508Y-114403701D01*
X133862696Y-114368322D01*
X133920711Y-114320711D01*
X133968322Y-114262696D01*
X134003701Y-114196508D01*
X134025487Y-114124689D01*
X134032843Y-114050000D01*
X134032843Y-112584436D01*
X135669000Y-112584436D01*
X135669000Y-112915564D01*
X135733600Y-113240330D01*
X135860317Y-113546252D01*
X136044282Y-113821575D01*
X136278425Y-114055718D01*
X136553748Y-114239683D01*
X136859670Y-114366400D01*
X137184436Y-114431000D01*
X137515564Y-114431000D01*
X137840330Y-114366400D01*
X138146252Y-114239683D01*
X138421575Y-114055718D01*
X138655718Y-113821575D01*
X138839683Y-113546252D01*
X138966400Y-113240330D01*
X139031000Y-112915564D01*
X139031000Y-112584436D01*
X140669000Y-112584436D01*
X140669000Y-112915564D01*
X140733600Y-113240330D01*
X140860317Y-113546252D01*
X141044282Y-113821575D01*
X141278425Y-114055718D01*
X141553748Y-114239683D01*
X141859670Y-114366400D01*
X142184436Y-114431000D01*
X142515564Y-114431000D01*
X142840330Y-114366400D01*
X143146252Y-114239683D01*
X143421575Y-114055718D01*
X143655718Y-113821575D01*
X143839683Y-113546252D01*
X143966400Y-113240330D01*
X144031000Y-112915564D01*
X144031000Y-112584436D01*
X145669000Y-112584436D01*
X145669000Y-112915564D01*
X145733600Y-113240330D01*
X145860317Y-113546252D01*
X146044282Y-113821575D01*
X146278425Y-114055718D01*
X146553748Y-114239683D01*
X146859670Y-114366400D01*
X147184436Y-114431000D01*
X147515564Y-114431000D01*
X147840330Y-114366400D01*
X148146252Y-114239683D01*
X148421575Y-114055718D01*
X148655718Y-113821575D01*
X148839683Y-113546252D01*
X148966400Y-113240330D01*
X149031000Y-112915564D01*
X149031000Y-112584436D01*
X150669000Y-112584436D01*
X150669000Y-112915564D01*
X150733600Y-113240330D01*
X150860317Y-113546252D01*
X151044282Y-113821575D01*
X151278425Y-114055718D01*
X151553748Y-114239683D01*
X151859670Y-114366400D01*
X152184436Y-114431000D01*
X152515564Y-114431000D01*
X152840330Y-114366400D01*
X153146252Y-114239683D01*
X153421575Y-114055718D01*
X153655718Y-113821575D01*
X153839683Y-113546252D01*
X153966400Y-113240330D01*
X154031000Y-112915564D01*
X154031000Y-112584436D01*
X155669000Y-112584436D01*
X155669000Y-112915564D01*
X155733600Y-113240330D01*
X155860317Y-113546252D01*
X156044282Y-113821575D01*
X156278425Y-114055718D01*
X156553748Y-114239683D01*
X156859670Y-114366400D01*
X157184436Y-114431000D01*
X157515564Y-114431000D01*
X157840330Y-114366400D01*
X158146252Y-114239683D01*
X158421575Y-114055718D01*
X158655718Y-113821575D01*
X158839683Y-113546252D01*
X158966400Y-113240330D01*
X159031000Y-112915564D01*
X159031000Y-112584436D01*
X160669000Y-112584436D01*
X160669000Y-112915564D01*
X160733600Y-113240330D01*
X160860317Y-113546252D01*
X161044282Y-113821575D01*
X161278425Y-114055718D01*
X161553748Y-114239683D01*
X161859670Y-114366400D01*
X162184436Y-114431000D01*
X162515564Y-114431000D01*
X162840330Y-114366400D01*
X163146252Y-114239683D01*
X163421575Y-114055718D01*
X163655718Y-113821575D01*
X163839683Y-113546252D01*
X163966400Y-113240330D01*
X164031000Y-112915564D01*
X164031000Y-112584436D01*
X165669000Y-112584436D01*
X165669000Y-112915564D01*
X165733600Y-113240330D01*
X165860317Y-113546252D01*
X166044282Y-113821575D01*
X166278425Y-114055718D01*
X166553748Y-114239683D01*
X166859670Y-114366400D01*
X167184436Y-114431000D01*
X167515564Y-114431000D01*
X167840330Y-114366400D01*
X168146252Y-114239683D01*
X168421575Y-114055718D01*
X168655718Y-113821575D01*
X168839683Y-113546252D01*
X168966400Y-113240330D01*
X169031000Y-112915564D01*
X169031000Y-112584436D01*
X170669000Y-112584436D01*
X170669000Y-112915564D01*
X170733600Y-113240330D01*
X170860317Y-113546252D01*
X171044282Y-113821575D01*
X171278425Y-114055718D01*
X171553748Y-114239683D01*
X171859670Y-114366400D01*
X172184436Y-114431000D01*
X172515564Y-114431000D01*
X172840330Y-114366400D01*
X173146252Y-114239683D01*
X173421575Y-114055718D01*
X173655718Y-113821575D01*
X173839683Y-113546252D01*
X173966400Y-113240330D01*
X174031000Y-112915564D01*
X174031000Y-112584436D01*
X175669000Y-112584436D01*
X175669000Y-112915564D01*
X175733600Y-113240330D01*
X175860317Y-113546252D01*
X176044282Y-113821575D01*
X176278425Y-114055718D01*
X176553748Y-114239683D01*
X176859670Y-114366400D01*
X177184436Y-114431000D01*
X177515564Y-114431000D01*
X177840330Y-114366400D01*
X178146252Y-114239683D01*
X178421575Y-114055718D01*
X178655718Y-113821575D01*
X178839683Y-113546252D01*
X178966400Y-113240330D01*
X179031000Y-112915564D01*
X179031000Y-112584436D01*
X180669000Y-112584436D01*
X180669000Y-112915564D01*
X180733600Y-113240330D01*
X180860317Y-113546252D01*
X181044282Y-113821575D01*
X181278425Y-114055718D01*
X181553748Y-114239683D01*
X181859670Y-114366400D01*
X182184436Y-114431000D01*
X182515564Y-114431000D01*
X182840330Y-114366400D01*
X183146252Y-114239683D01*
X183421575Y-114055718D01*
X183655718Y-113821575D01*
X183839683Y-113546252D01*
X183966400Y-113240330D01*
X184031000Y-112915564D01*
X184031000Y-112584436D01*
X185669000Y-112584436D01*
X185669000Y-112915564D01*
X185733600Y-113240330D01*
X185860317Y-113546252D01*
X186044282Y-113821575D01*
X186278425Y-114055718D01*
X186553748Y-114239683D01*
X186859670Y-114366400D01*
X187184436Y-114431000D01*
X187515564Y-114431000D01*
X187840330Y-114366400D01*
X188146252Y-114239683D01*
X188421575Y-114055718D01*
X188655718Y-113821575D01*
X188839683Y-113546252D01*
X188966400Y-113240330D01*
X189031000Y-112915564D01*
X189031000Y-112584436D01*
X190669000Y-112584436D01*
X190669000Y-112915564D01*
X190733600Y-113240330D01*
X190860317Y-113546252D01*
X191044282Y-113821575D01*
X191278425Y-114055718D01*
X191553748Y-114239683D01*
X191859670Y-114366400D01*
X192184436Y-114431000D01*
X192515564Y-114431000D01*
X192840330Y-114366400D01*
X193146252Y-114239683D01*
X193421575Y-114055718D01*
X193655718Y-113821575D01*
X193839683Y-113546252D01*
X193966400Y-113240330D01*
X194031000Y-112915564D01*
X194031000Y-112584436D01*
X195669000Y-112584436D01*
X195669000Y-112915564D01*
X195733600Y-113240330D01*
X195860317Y-113546252D01*
X196044282Y-113821575D01*
X196278425Y-114055718D01*
X196553748Y-114239683D01*
X196859670Y-114366400D01*
X197184436Y-114431000D01*
X197515564Y-114431000D01*
X197840330Y-114366400D01*
X198146252Y-114239683D01*
X198421575Y-114055718D01*
X198655718Y-113821575D01*
X198839683Y-113546252D01*
X198966400Y-113240330D01*
X199031000Y-112915564D01*
X199031000Y-112584436D01*
X200669000Y-112584436D01*
X200669000Y-112915564D01*
X200733600Y-113240330D01*
X200860317Y-113546252D01*
X201044282Y-113821575D01*
X201278425Y-114055718D01*
X201553748Y-114239683D01*
X201859670Y-114366400D01*
X202184436Y-114431000D01*
X202515564Y-114431000D01*
X202840330Y-114366400D01*
X203146252Y-114239683D01*
X203421575Y-114055718D01*
X203655718Y-113821575D01*
X203839683Y-113546252D01*
X203966400Y-113240330D01*
X204031000Y-112915564D01*
X204031000Y-112584436D01*
X205669000Y-112584436D01*
X205669000Y-112915564D01*
X205733600Y-113240330D01*
X205860317Y-113546252D01*
X206044282Y-113821575D01*
X206278425Y-114055718D01*
X206553748Y-114239683D01*
X206859670Y-114366400D01*
X207184436Y-114431000D01*
X207515564Y-114431000D01*
X207840330Y-114366400D01*
X208146252Y-114239683D01*
X208421575Y-114055718D01*
X208655718Y-113821575D01*
X208839683Y-113546252D01*
X208966400Y-113240330D01*
X209031000Y-112915564D01*
X209031000Y-112584436D01*
X208966400Y-112259670D01*
X208839683Y-111953748D01*
X208655718Y-111678425D01*
X208421575Y-111444282D01*
X208146252Y-111260317D01*
X207840330Y-111133600D01*
X207515564Y-111069000D01*
X207184436Y-111069000D01*
X206859670Y-111133600D01*
X206553748Y-111260317D01*
X206278425Y-111444282D01*
X206044282Y-111678425D01*
X205860317Y-111953748D01*
X205733600Y-112259670D01*
X205669000Y-112584436D01*
X204031000Y-112584436D01*
X203966400Y-112259670D01*
X203839683Y-111953748D01*
X203655718Y-111678425D01*
X203421575Y-111444282D01*
X203146252Y-111260317D01*
X202840330Y-111133600D01*
X202515564Y-111069000D01*
X202184436Y-111069000D01*
X201859670Y-111133600D01*
X201553748Y-111260317D01*
X201278425Y-111444282D01*
X201044282Y-111678425D01*
X200860317Y-111953748D01*
X200733600Y-112259670D01*
X200669000Y-112584436D01*
X199031000Y-112584436D01*
X198966400Y-112259670D01*
X198839683Y-111953748D01*
X198655718Y-111678425D01*
X198421575Y-111444282D01*
X198146252Y-111260317D01*
X197840330Y-111133600D01*
X197515564Y-111069000D01*
X197184436Y-111069000D01*
X196859670Y-111133600D01*
X196553748Y-111260317D01*
X196278425Y-111444282D01*
X196044282Y-111678425D01*
X195860317Y-111953748D01*
X195733600Y-112259670D01*
X195669000Y-112584436D01*
X194031000Y-112584436D01*
X193966400Y-112259670D01*
X193839683Y-111953748D01*
X193655718Y-111678425D01*
X193421575Y-111444282D01*
X193146252Y-111260317D01*
X192840330Y-111133600D01*
X192515564Y-111069000D01*
X192184436Y-111069000D01*
X191859670Y-111133600D01*
X191553748Y-111260317D01*
X191278425Y-111444282D01*
X191044282Y-111678425D01*
X190860317Y-111953748D01*
X190733600Y-112259670D01*
X190669000Y-112584436D01*
X189031000Y-112584436D01*
X188966400Y-112259670D01*
X188839683Y-111953748D01*
X188655718Y-111678425D01*
X188421575Y-111444282D01*
X188146252Y-111260317D01*
X187840330Y-111133600D01*
X187515564Y-111069000D01*
X187184436Y-111069000D01*
X186859670Y-111133600D01*
X186553748Y-111260317D01*
X186278425Y-111444282D01*
X186044282Y-111678425D01*
X185860317Y-111953748D01*
X185733600Y-112259670D01*
X185669000Y-112584436D01*
X184031000Y-112584436D01*
X183966400Y-112259670D01*
X183839683Y-111953748D01*
X183655718Y-111678425D01*
X183421575Y-111444282D01*
X183146252Y-111260317D01*
X182840330Y-111133600D01*
X182515564Y-111069000D01*
X182184436Y-111069000D01*
X181859670Y-111133600D01*
X181553748Y-111260317D01*
X181278425Y-111444282D01*
X181044282Y-111678425D01*
X180860317Y-111953748D01*
X180733600Y-112259670D01*
X180669000Y-112584436D01*
X179031000Y-112584436D01*
X178966400Y-112259670D01*
X178839683Y-111953748D01*
X178655718Y-111678425D01*
X178421575Y-111444282D01*
X178146252Y-111260317D01*
X177840330Y-111133600D01*
X177515564Y-111069000D01*
X177184436Y-111069000D01*
X176859670Y-111133600D01*
X176553748Y-111260317D01*
X176278425Y-111444282D01*
X176044282Y-111678425D01*
X175860317Y-111953748D01*
X175733600Y-112259670D01*
X175669000Y-112584436D01*
X174031000Y-112584436D01*
X173966400Y-112259670D01*
X173839683Y-111953748D01*
X173655718Y-111678425D01*
X173421575Y-111444282D01*
X173146252Y-111260317D01*
X172840330Y-111133600D01*
X172515564Y-111069000D01*
X172184436Y-111069000D01*
X171859670Y-111133600D01*
X171553748Y-111260317D01*
X171278425Y-111444282D01*
X171044282Y-111678425D01*
X170860317Y-111953748D01*
X170733600Y-112259670D01*
X170669000Y-112584436D01*
X169031000Y-112584436D01*
X168966400Y-112259670D01*
X168839683Y-111953748D01*
X168655718Y-111678425D01*
X168421575Y-111444282D01*
X168146252Y-111260317D01*
X167840330Y-111133600D01*
X167515564Y-111069000D01*
X167184436Y-111069000D01*
X166859670Y-111133600D01*
X166553748Y-111260317D01*
X166278425Y-111444282D01*
X166044282Y-111678425D01*
X165860317Y-111953748D01*
X165733600Y-112259670D01*
X165669000Y-112584436D01*
X164031000Y-112584436D01*
X163966400Y-112259670D01*
X163839683Y-111953748D01*
X163655718Y-111678425D01*
X163421575Y-111444282D01*
X163146252Y-111260317D01*
X162840330Y-111133600D01*
X162515564Y-111069000D01*
X162184436Y-111069000D01*
X161859670Y-111133600D01*
X161553748Y-111260317D01*
X161278425Y-111444282D01*
X161044282Y-111678425D01*
X160860317Y-111953748D01*
X160733600Y-112259670D01*
X160669000Y-112584436D01*
X159031000Y-112584436D01*
X158966400Y-112259670D01*
X158839683Y-111953748D01*
X158655718Y-111678425D01*
X158421575Y-111444282D01*
X158146252Y-111260317D01*
X157840330Y-111133600D01*
X157515564Y-111069000D01*
X157184436Y-111069000D01*
X156859670Y-111133600D01*
X156553748Y-111260317D01*
X156278425Y-111444282D01*
X156044282Y-111678425D01*
X155860317Y-111953748D01*
X155733600Y-112259670D01*
X155669000Y-112584436D01*
X154031000Y-112584436D01*
X153966400Y-112259670D01*
X153839683Y-111953748D01*
X153655718Y-111678425D01*
X153421575Y-111444282D01*
X153146252Y-111260317D01*
X152840330Y-111133600D01*
X152515564Y-111069000D01*
X152184436Y-111069000D01*
X151859670Y-111133600D01*
X151553748Y-111260317D01*
X151278425Y-111444282D01*
X151044282Y-111678425D01*
X150860317Y-111953748D01*
X150733600Y-112259670D01*
X150669000Y-112584436D01*
X149031000Y-112584436D01*
X148966400Y-112259670D01*
X148839683Y-111953748D01*
X148655718Y-111678425D01*
X148421575Y-111444282D01*
X148146252Y-111260317D01*
X147840330Y-111133600D01*
X147515564Y-111069000D01*
X147184436Y-111069000D01*
X146859670Y-111133600D01*
X146553748Y-111260317D01*
X146278425Y-111444282D01*
X146044282Y-111678425D01*
X145860317Y-111953748D01*
X145733600Y-112259670D01*
X145669000Y-112584436D01*
X144031000Y-112584436D01*
X143966400Y-112259670D01*
X143839683Y-111953748D01*
X143655718Y-111678425D01*
X143421575Y-111444282D01*
X143146252Y-111260317D01*
X142840330Y-111133600D01*
X142515564Y-111069000D01*
X142184436Y-111069000D01*
X141859670Y-111133600D01*
X141553748Y-111260317D01*
X141278425Y-111444282D01*
X141044282Y-111678425D01*
X140860317Y-111953748D01*
X140733600Y-112259670D01*
X140669000Y-112584436D01*
X139031000Y-112584436D01*
X138966400Y-112259670D01*
X138839683Y-111953748D01*
X138655718Y-111678425D01*
X138421575Y-111444282D01*
X138146252Y-111260317D01*
X137840330Y-111133600D01*
X137515564Y-111069000D01*
X137184436Y-111069000D01*
X136859670Y-111133600D01*
X136553748Y-111260317D01*
X136278425Y-111444282D01*
X136044282Y-111678425D01*
X135860317Y-111953748D01*
X135733600Y-112259670D01*
X135669000Y-112584436D01*
X134032843Y-112584436D01*
X134032843Y-111450000D01*
X134025487Y-111375311D01*
X134003701Y-111303492D01*
X133968322Y-111237304D01*
X133920711Y-111179289D01*
X133862696Y-111131678D01*
X133796508Y-111096299D01*
X133724689Y-111074513D01*
X133650000Y-111067157D01*
X131050000Y-111067157D01*
X130975311Y-111074513D01*
X130903492Y-111096299D01*
X130837304Y-111131678D01*
X130779289Y-111179289D01*
X130731678Y-111237304D01*
X130696299Y-111303492D01*
X130674513Y-111375311D01*
X130667157Y-111450000D01*
X127431000Y-111450000D01*
X127431000Y-91288890D01*
X130638524Y-91288890D01*
X130683175Y-91436099D01*
X130808359Y-91698920D01*
X130982412Y-91932269D01*
X131198645Y-92127178D01*
X131448748Y-92276157D01*
X131723109Y-92373481D01*
X131953000Y-92252814D01*
X131953000Y-91059000D01*
X130759845Y-91059000D01*
X130638524Y-91288890D01*
X127431000Y-91288890D01*
X127431000Y-90575110D01*
X130638524Y-90575110D01*
X130759845Y-90805000D01*
X131953000Y-90805000D01*
X131953000Y-90785000D01*
X132207000Y-90785000D01*
X132207000Y-90805000D01*
X132227000Y-90805000D01*
X132227000Y-91059000D01*
X132207000Y-91059000D01*
X132207000Y-92252814D01*
X132436891Y-92373481D01*
X132711252Y-92276157D01*
X132961355Y-92127178D01*
X133177588Y-91932269D01*
X133351641Y-91698920D01*
X133476825Y-91436099D01*
X133485091Y-91408846D01*
X133529102Y-91515097D01*
X133663820Y-91716717D01*
X133835283Y-91888180D01*
X134036903Y-92022898D01*
X134260931Y-92115693D01*
X134498757Y-92163000D01*
X134741243Y-92163000D01*
X134979069Y-92115693D01*
X135203097Y-92022898D01*
X135404717Y-91888180D01*
X135576180Y-91716717D01*
X135710898Y-91515097D01*
X135803693Y-91291069D01*
X135851000Y-91053243D01*
X135851000Y-90810757D01*
X135803693Y-90572931D01*
X135710898Y-90348903D01*
X135576180Y-90147283D01*
X135492190Y-90063293D01*
X135493831Y-90061947D01*
X135509738Y-90042564D01*
X136231570Y-89320732D01*
X136250948Y-89304830D01*
X136312853Y-89229398D01*
X136314429Y-89227478D01*
X136361600Y-89139226D01*
X136361601Y-89139225D01*
X136390649Y-89043467D01*
X136398000Y-88968829D01*
X136398000Y-88968827D01*
X136400457Y-88943883D01*
X136398000Y-88918939D01*
X136398000Y-87332736D01*
X136739575Y-86991161D01*
X136758958Y-86975254D01*
X136822439Y-86897901D01*
X136869611Y-86809649D01*
X136898659Y-86713891D01*
X136906010Y-86639253D01*
X136906010Y-86639250D01*
X136908467Y-86614306D01*
X136906010Y-86589362D01*
X136906010Y-85344010D01*
X144512552Y-85344010D01*
X144537496Y-85346467D01*
X144562440Y-85344010D01*
X144562443Y-85344010D01*
X144577154Y-85342561D01*
X144708831Y-85368753D01*
X144862675Y-85368753D01*
X145013562Y-85338740D01*
X145155695Y-85279866D01*
X145283612Y-85194395D01*
X145392395Y-85085612D01*
X145477866Y-84957695D01*
X145536740Y-84815562D01*
X145566753Y-84664675D01*
X145566753Y-84510831D01*
X145536740Y-84359944D01*
X145477866Y-84217811D01*
X145392395Y-84089894D01*
X145332362Y-84029861D01*
X145366361Y-84007144D01*
X145475144Y-83898361D01*
X145560615Y-83770444D01*
X145619489Y-83628311D01*
X145649502Y-83477424D01*
X145649502Y-83323580D01*
X145619489Y-83172693D01*
X145560615Y-83030560D01*
X145475144Y-82902643D01*
X145366361Y-82793860D01*
X145238444Y-82708389D01*
X145096311Y-82649515D01*
X144945424Y-82619502D01*
X144791580Y-82619502D01*
X144640693Y-82649515D01*
X144498560Y-82708389D01*
X144370643Y-82793860D01*
X144261860Y-82902643D01*
X144242133Y-82932166D01*
X144232336Y-82922369D01*
X144261859Y-82902642D01*
X144370642Y-82793859D01*
X144456113Y-82665942D01*
X144514987Y-82523809D01*
X144545000Y-82372922D01*
X144545000Y-82219078D01*
X144514987Y-82068191D01*
X144456113Y-81926058D01*
X144370642Y-81798141D01*
X144261859Y-81689358D01*
X144133942Y-81603887D01*
X143991809Y-81545013D01*
X143840922Y-81515000D01*
X143687078Y-81515000D01*
X143536191Y-81545013D01*
X143394058Y-81603887D01*
X143266141Y-81689358D01*
X143157358Y-81798141D01*
X143071887Y-81926058D01*
X143048948Y-81981437D01*
X142969256Y-81901745D01*
X142991859Y-81886642D01*
X143100642Y-81777859D01*
X143186113Y-81649942D01*
X143244987Y-81507809D01*
X143275000Y-81356922D01*
X143275000Y-81203078D01*
X143244987Y-81052191D01*
X143186113Y-80910058D01*
X143100642Y-80782141D01*
X142991859Y-80673358D01*
X142863942Y-80587887D01*
X142721809Y-80529013D01*
X142570922Y-80499000D01*
X142417078Y-80499000D01*
X142266191Y-80529013D01*
X142124058Y-80587887D01*
X141996141Y-80673358D01*
X141887358Y-80782141D01*
X141801887Y-80910058D01*
X141743013Y-81052191D01*
X141713000Y-81203078D01*
X141713000Y-81342580D01*
X141267610Y-81787970D01*
X137029258Y-81787970D01*
X136906000Y-81664712D01*
X136906000Y-78213062D01*
X136908457Y-78188118D01*
X136905359Y-78156665D01*
X136898649Y-78088533D01*
X136869601Y-77992775D01*
X136822429Y-77904523D01*
X136758948Y-77827170D01*
X136739565Y-77811263D01*
X135587736Y-76659434D01*
X135571829Y-76640051D01*
X135494476Y-76576570D01*
X135482649Y-76570248D01*
X135576180Y-76476717D01*
X135710898Y-76275097D01*
X135803693Y-76051069D01*
X135851000Y-75813243D01*
X135851000Y-75570757D01*
X135803693Y-75332931D01*
X135710898Y-75108903D01*
X135576180Y-74907283D01*
X135404717Y-74735820D01*
X135203097Y-74601102D01*
X134979069Y-74508307D01*
X134741243Y-74461000D01*
X134498757Y-74461000D01*
X134260931Y-74508307D01*
X134036903Y-74601102D01*
X133835283Y-74735820D01*
X133663820Y-74907283D01*
X133529102Y-75108903D01*
X133436307Y-75332931D01*
X133389000Y-75570757D01*
X133389000Y-75813243D01*
X133436307Y-76051069D01*
X133529102Y-76275097D01*
X133663820Y-76476717D01*
X133680102Y-76492999D01*
X133599420Y-76492999D01*
X133232587Y-76126166D01*
X133263693Y-76051069D01*
X133311000Y-75813243D01*
X133311000Y-75570757D01*
X133263693Y-75332931D01*
X133170898Y-75108903D01*
X133036180Y-74907283D01*
X132864717Y-74735820D01*
X132663097Y-74601102D01*
X132439069Y-74508307D01*
X132201243Y-74461000D01*
X131958757Y-74461000D01*
X131720931Y-74508307D01*
X131496903Y-74601102D01*
X131295283Y-74735820D01*
X131123820Y-74907283D01*
X130989102Y-75108903D01*
X130896307Y-75332931D01*
X130849000Y-75570757D01*
X130849000Y-75813243D01*
X130896307Y-76051069D01*
X130989102Y-76275097D01*
X131123820Y-76476717D01*
X131295283Y-76648180D01*
X131496903Y-76782898D01*
X131720931Y-76875693D01*
X131958757Y-76923000D01*
X132201243Y-76923000D01*
X132439069Y-76875693D01*
X132514166Y-76844587D01*
X133012148Y-77342569D01*
X133028051Y-77361947D01*
X133047428Y-77377849D01*
X133105403Y-77425428D01*
X133169739Y-77459816D01*
X133193656Y-77472600D01*
X133289414Y-77501648D01*
X133364052Y-77508999D01*
X133364054Y-77508999D01*
X133388998Y-77511456D01*
X133413942Y-77508999D01*
X133622583Y-77508999D01*
X133529102Y-77648903D01*
X133436307Y-77872931D01*
X133389000Y-78110757D01*
X133389000Y-78353243D01*
X133436307Y-78591069D01*
X133529102Y-78815097D01*
X133663820Y-79016717D01*
X133680102Y-79032999D01*
X133599420Y-79032999D01*
X133232587Y-78666166D01*
X133263693Y-78591069D01*
X133311000Y-78353243D01*
X133311000Y-78110757D01*
X133263693Y-77872931D01*
X133170898Y-77648903D01*
X133036180Y-77447283D01*
X132864717Y-77275820D01*
X132663097Y-77141102D01*
X132439069Y-77048307D01*
X132201243Y-77001000D01*
X131958757Y-77001000D01*
X131720931Y-77048307D01*
X131496903Y-77141102D01*
X131295283Y-77275820D01*
X131123820Y-77447283D01*
X130989102Y-77648903D01*
X130896307Y-77872931D01*
X130849000Y-78110757D01*
X130849000Y-78353243D01*
X130896307Y-78591069D01*
X130989102Y-78815097D01*
X131123820Y-79016717D01*
X131295283Y-79188180D01*
X131496903Y-79322898D01*
X131720931Y-79415693D01*
X131958757Y-79463000D01*
X132201243Y-79463000D01*
X132439069Y-79415693D01*
X132514166Y-79384587D01*
X133012148Y-79882569D01*
X133028051Y-79901947D01*
X133047428Y-79917849D01*
X133105403Y-79965428D01*
X133158190Y-79993643D01*
X133193656Y-80012600D01*
X133289414Y-80041648D01*
X133364052Y-80048999D01*
X133364054Y-80048999D01*
X133388998Y-80051456D01*
X133413942Y-80048999D01*
X133622583Y-80048999D01*
X133529102Y-80188903D01*
X133436307Y-80412931D01*
X133389000Y-80650757D01*
X133389000Y-80893243D01*
X133436307Y-81131069D01*
X133529102Y-81355097D01*
X133622583Y-81495001D01*
X133521422Y-81495001D01*
X133232587Y-81206166D01*
X133263693Y-81131069D01*
X133311000Y-80893243D01*
X133311000Y-80650757D01*
X133263693Y-80412931D01*
X133170898Y-80188903D01*
X133036180Y-79987283D01*
X132864717Y-79815820D01*
X132663097Y-79681102D01*
X132439069Y-79588307D01*
X132201243Y-79541000D01*
X131958757Y-79541000D01*
X131720931Y-79588307D01*
X131496903Y-79681102D01*
X131295283Y-79815820D01*
X131123820Y-79987283D01*
X130989102Y-80188903D01*
X130896307Y-80412931D01*
X130849000Y-80650757D01*
X130849000Y-80893243D01*
X130896307Y-81131069D01*
X130989102Y-81355097D01*
X131123820Y-81556717D01*
X131295283Y-81728180D01*
X131496903Y-81862898D01*
X131720931Y-81955693D01*
X131958757Y-82003000D01*
X132201243Y-82003000D01*
X132439069Y-81955693D01*
X132514166Y-81924587D01*
X132934150Y-82344571D01*
X132950053Y-82363949D01*
X132969430Y-82379851D01*
X133027405Y-82427430D01*
X133115656Y-82474601D01*
X133115658Y-82474602D01*
X133211416Y-82503650D01*
X133286054Y-82511001D01*
X133286056Y-82511001D01*
X133311000Y-82513458D01*
X133335944Y-82511001D01*
X133680102Y-82511001D01*
X133663820Y-82527283D01*
X133529102Y-82728903D01*
X133436307Y-82952931D01*
X133389000Y-83190757D01*
X133389000Y-83433243D01*
X133436307Y-83671069D01*
X133529102Y-83895097D01*
X133663820Y-84096717D01*
X133680102Y-84112999D01*
X133599420Y-84112999D01*
X133232587Y-83746166D01*
X133263693Y-83671069D01*
X133311000Y-83433243D01*
X133311000Y-83190757D01*
X133263693Y-82952931D01*
X133170898Y-82728903D01*
X133036180Y-82527283D01*
X132864717Y-82355820D01*
X132663097Y-82221102D01*
X132439069Y-82128307D01*
X132201243Y-82081000D01*
X131958757Y-82081000D01*
X131720931Y-82128307D01*
X131496903Y-82221102D01*
X131295283Y-82355820D01*
X131123820Y-82527283D01*
X130989102Y-82728903D01*
X130896307Y-82952931D01*
X130849000Y-83190757D01*
X130849000Y-83433243D01*
X130896307Y-83671069D01*
X130989102Y-83895097D01*
X131123820Y-84096717D01*
X131295283Y-84268180D01*
X131496903Y-84402898D01*
X131720931Y-84495693D01*
X131958757Y-84543000D01*
X132201243Y-84543000D01*
X132439069Y-84495693D01*
X132514166Y-84464587D01*
X133012149Y-84962570D01*
X133028051Y-84981947D01*
X133047428Y-84997849D01*
X133105403Y-85045428D01*
X133180582Y-85085612D01*
X133193656Y-85092600D01*
X133289414Y-85121648D01*
X133364052Y-85128999D01*
X133364054Y-85128999D01*
X133388998Y-85131456D01*
X133413942Y-85128999D01*
X133622583Y-85128999D01*
X133529102Y-85268903D01*
X133436307Y-85492931D01*
X133389000Y-85730757D01*
X133389000Y-85973243D01*
X133436307Y-86211069D01*
X133529102Y-86435097D01*
X133622583Y-86575001D01*
X133521422Y-86575001D01*
X133232587Y-86286166D01*
X133263693Y-86211069D01*
X133311000Y-85973243D01*
X133311000Y-85730757D01*
X133263693Y-85492931D01*
X133170898Y-85268903D01*
X133036180Y-85067283D01*
X132864717Y-84895820D01*
X132663097Y-84761102D01*
X132439069Y-84668307D01*
X132201243Y-84621000D01*
X131958757Y-84621000D01*
X131720931Y-84668307D01*
X131496903Y-84761102D01*
X131295283Y-84895820D01*
X131123820Y-85067283D01*
X130989102Y-85268903D01*
X130896307Y-85492931D01*
X130849000Y-85730757D01*
X130849000Y-85973243D01*
X130896307Y-86211069D01*
X130989102Y-86435097D01*
X131123820Y-86636717D01*
X131295283Y-86808180D01*
X131496903Y-86942898D01*
X131720931Y-87035693D01*
X131958757Y-87083000D01*
X132201243Y-87083000D01*
X132439069Y-87035693D01*
X132514166Y-87004587D01*
X132934151Y-87424572D01*
X132950053Y-87443949D01*
X132969430Y-87459851D01*
X133027405Y-87507430D01*
X133115656Y-87554601D01*
X133115658Y-87554602D01*
X133211416Y-87583650D01*
X133286054Y-87591001D01*
X133286056Y-87591001D01*
X133311000Y-87593458D01*
X133335944Y-87591001D01*
X133680102Y-87591001D01*
X133663820Y-87607283D01*
X133529102Y-87808903D01*
X133436307Y-88032931D01*
X133389000Y-88270757D01*
X133389000Y-88513243D01*
X133436307Y-88751069D01*
X133529102Y-88975097D01*
X133663820Y-89176717D01*
X133680102Y-89192999D01*
X133599420Y-89192999D01*
X133232587Y-88826166D01*
X133263693Y-88751069D01*
X133311000Y-88513243D01*
X133311000Y-88270757D01*
X133263693Y-88032931D01*
X133170898Y-87808903D01*
X133036180Y-87607283D01*
X132864717Y-87435820D01*
X132663097Y-87301102D01*
X132439069Y-87208307D01*
X132201243Y-87161000D01*
X131958757Y-87161000D01*
X131720931Y-87208307D01*
X131496903Y-87301102D01*
X131295283Y-87435820D01*
X131123820Y-87607283D01*
X130989102Y-87808903D01*
X130896307Y-88032931D01*
X130849000Y-88270757D01*
X130849000Y-88513243D01*
X130896307Y-88751069D01*
X130989102Y-88975097D01*
X131123820Y-89176717D01*
X131295283Y-89348180D01*
X131496903Y-89482898D01*
X131611168Y-89530228D01*
X131448748Y-89587843D01*
X131198645Y-89736822D01*
X130982412Y-89931731D01*
X130808359Y-90165080D01*
X130683175Y-90427901D01*
X130638524Y-90575110D01*
X127431000Y-90575110D01*
X127431000Y-68922000D01*
X130591928Y-68922000D01*
X130604188Y-69046482D01*
X130640498Y-69166180D01*
X130699463Y-69276494D01*
X130778815Y-69373185D01*
X130875506Y-69452537D01*
X130985820Y-69511502D01*
X131105518Y-69547812D01*
X131230000Y-69560072D01*
X131440294Y-69558927D01*
X131295283Y-69655820D01*
X131123820Y-69827283D01*
X130989102Y-70028903D01*
X130896307Y-70252931D01*
X130849000Y-70490757D01*
X130849000Y-70733243D01*
X130896307Y-70971069D01*
X130989102Y-71195097D01*
X131123820Y-71396717D01*
X131295283Y-71568180D01*
X131496903Y-71702898D01*
X131720931Y-71795693D01*
X131958757Y-71843000D01*
X132201243Y-71843000D01*
X132439069Y-71795693D01*
X132663097Y-71702898D01*
X132864717Y-71568180D01*
X133036180Y-71396717D01*
X133170898Y-71195097D01*
X133263693Y-70971069D01*
X133284593Y-70866000D01*
X133364052Y-70866000D01*
X133388999Y-70868457D01*
X133413946Y-70866000D01*
X133415379Y-70865859D01*
X133436307Y-70971069D01*
X133529102Y-71195097D01*
X133663820Y-71396717D01*
X133680102Y-71412999D01*
X133335944Y-71412999D01*
X133311000Y-71410542D01*
X133286056Y-71412999D01*
X133286054Y-71412999D01*
X133211416Y-71420350D01*
X133115658Y-71449398D01*
X133115656Y-71449399D01*
X133027405Y-71496570D01*
X132972811Y-71541375D01*
X132950053Y-71560051D01*
X132934151Y-71579428D01*
X132514166Y-71999413D01*
X132439069Y-71968307D01*
X132201243Y-71921000D01*
X131958757Y-71921000D01*
X131720931Y-71968307D01*
X131496903Y-72061102D01*
X131295283Y-72195820D01*
X131123820Y-72367283D01*
X130989102Y-72568903D01*
X130896307Y-72792931D01*
X130849000Y-73030757D01*
X130849000Y-73273243D01*
X130896307Y-73511069D01*
X130989102Y-73735097D01*
X131123820Y-73936717D01*
X131295283Y-74108180D01*
X131496903Y-74242898D01*
X131720931Y-74335693D01*
X131958757Y-74383000D01*
X132201243Y-74383000D01*
X132439069Y-74335693D01*
X132663097Y-74242898D01*
X132864717Y-74108180D01*
X133036180Y-73936717D01*
X133170898Y-73735097D01*
X133263693Y-73511069D01*
X133311000Y-73273243D01*
X133311000Y-73030757D01*
X133263693Y-72792931D01*
X133232587Y-72717834D01*
X133521422Y-72428999D01*
X133622583Y-72428999D01*
X133529102Y-72568903D01*
X133436307Y-72792931D01*
X133389000Y-73030757D01*
X133389000Y-73273243D01*
X133436307Y-73511069D01*
X133529102Y-73735097D01*
X133663820Y-73936717D01*
X133835283Y-74108180D01*
X134036903Y-74242898D01*
X134260931Y-74335693D01*
X134498757Y-74383000D01*
X134741243Y-74383000D01*
X134979069Y-74335693D01*
X135203097Y-74242898D01*
X135404717Y-74108180D01*
X135576180Y-73936717D01*
X135710898Y-73735097D01*
X135803693Y-73511069D01*
X135851000Y-73273243D01*
X135851000Y-73030757D01*
X135803693Y-72792931D01*
X135710898Y-72568903D01*
X135617417Y-72428999D01*
X150196579Y-72428999D01*
X150349000Y-72581420D01*
X150349000Y-72720922D01*
X150379013Y-72871809D01*
X150437887Y-73013942D01*
X150523358Y-73141859D01*
X150632141Y-73250642D01*
X150760058Y-73336113D01*
X150902191Y-73394987D01*
X150941847Y-73402875D01*
X150933655Y-73444060D01*
X150933655Y-73597904D01*
X150963668Y-73748791D01*
X151022542Y-73890924D01*
X151108013Y-74018841D01*
X151216796Y-74127624D01*
X151344713Y-74213095D01*
X151486846Y-74271969D01*
X151637733Y-74301982D01*
X151791577Y-74301982D01*
X151942464Y-74271969D01*
X152084597Y-74213095D01*
X152212514Y-74127624D01*
X152321297Y-74018841D01*
X152406768Y-73890924D01*
X152465642Y-73748791D01*
X152495655Y-73597904D01*
X152495655Y-73444060D01*
X152465642Y-73293173D01*
X152419001Y-73180573D01*
X152419001Y-72540501D01*
X168080106Y-72540501D01*
X169748000Y-74208395D01*
X171415894Y-72540501D01*
X171199772Y-72173742D01*
X170739895Y-71933062D01*
X170241902Y-71786725D01*
X169724929Y-71740352D01*
X169208841Y-71795727D01*
X168713474Y-71950721D01*
X168296228Y-72173742D01*
X168080106Y-72540501D01*
X152419001Y-72540501D01*
X152419001Y-72294062D01*
X152421458Y-72269118D01*
X152415103Y-72204595D01*
X152411650Y-72169534D01*
X152382602Y-72073776D01*
X152354170Y-72020583D01*
X152335430Y-71985523D01*
X152287851Y-71927548D01*
X152271949Y-71908171D01*
X152252572Y-71892269D01*
X151392737Y-71032435D01*
X151376830Y-71013052D01*
X151299477Y-70949571D01*
X151211225Y-70902399D01*
X151115467Y-70873351D01*
X151040829Y-70866000D01*
X151040826Y-70866000D01*
X151015882Y-70863543D01*
X150990938Y-70866000D01*
X137414303Y-70866000D01*
X135587736Y-69039434D01*
X135571829Y-69020051D01*
X135494476Y-68956570D01*
X135482649Y-68950248D01*
X135576180Y-68856717D01*
X135676218Y-68707000D01*
X170204897Y-68707000D01*
X170468503Y-68970607D01*
X170468514Y-68970616D01*
X176520777Y-75022881D01*
X173668062Y-75022881D01*
X173643118Y-75020424D01*
X173618174Y-75022881D01*
X173618172Y-75022881D01*
X173543534Y-75030232D01*
X173447776Y-75059280D01*
X173447774Y-75059281D01*
X173359523Y-75106452D01*
X173349043Y-75115053D01*
X173282171Y-75169933D01*
X173266269Y-75189310D01*
X170985591Y-77469989D01*
X146870291Y-77469989D01*
X145635801Y-76235499D01*
X168080106Y-76235499D01*
X168296228Y-76602258D01*
X168756105Y-76842938D01*
X169254098Y-76989275D01*
X169771071Y-77035648D01*
X170287159Y-76980273D01*
X170782526Y-76825279D01*
X171199772Y-76602258D01*
X171415894Y-76235499D01*
X169748000Y-74567605D01*
X168080106Y-76235499D01*
X145635801Y-76235499D01*
X143811373Y-74411071D01*
X167100352Y-74411071D01*
X167155727Y-74927159D01*
X167310721Y-75422526D01*
X167533742Y-75839772D01*
X167900501Y-76055894D01*
X169568395Y-74388000D01*
X169927605Y-74388000D01*
X171595499Y-76055894D01*
X171962258Y-75839772D01*
X172202938Y-75379895D01*
X172349275Y-74881902D01*
X172395648Y-74364929D01*
X172340273Y-73848841D01*
X172185279Y-73353474D01*
X171962258Y-72936228D01*
X171595499Y-72720106D01*
X169927605Y-74388000D01*
X169568395Y-74388000D01*
X167900501Y-72720106D01*
X167533742Y-72936228D01*
X167293062Y-73396105D01*
X167146725Y-73894098D01*
X167100352Y-74411071D01*
X143811373Y-74411071D01*
X143753737Y-74353435D01*
X143737830Y-74334052D01*
X143660477Y-74270571D01*
X143572225Y-74223399D01*
X143476467Y-74194351D01*
X143401829Y-74187000D01*
X143401826Y-74187000D01*
X143376882Y-74184543D01*
X143351938Y-74187000D01*
X142836501Y-74187000D01*
X142737859Y-74088358D01*
X142609942Y-74002887D01*
X142467809Y-73944013D01*
X142316922Y-73914000D01*
X142163078Y-73914000D01*
X142012191Y-73944013D01*
X141870058Y-74002887D01*
X141742141Y-74088358D01*
X141633358Y-74197141D01*
X141547887Y-74325058D01*
X141489013Y-74467191D01*
X141459000Y-74618078D01*
X141459000Y-74771922D01*
X141489013Y-74922809D01*
X141547887Y-75064942D01*
X141633358Y-75192859D01*
X141742141Y-75301642D01*
X141870058Y-75387113D01*
X142012191Y-75445987D01*
X142163078Y-75476000D01*
X142221000Y-75476000D01*
X142221000Y-75552922D01*
X142251013Y-75703809D01*
X142309887Y-75845942D01*
X142395358Y-75973859D01*
X142504141Y-76082642D01*
X142632058Y-76168113D01*
X142774191Y-76226987D01*
X142925078Y-76257000D01*
X143064580Y-76257000D01*
X145635145Y-78827565D01*
X145651052Y-78846948D01*
X145728405Y-78910429D01*
X145816657Y-78957601D01*
X145912415Y-78986649D01*
X145987053Y-78994000D01*
X145987056Y-78994000D01*
X146012000Y-78996457D01*
X146036944Y-78994000D01*
X155590000Y-78994000D01*
X155590000Y-79051868D01*
X155589349Y-79055399D01*
X155590000Y-79101761D01*
X155590000Y-79123246D01*
X155590352Y-79126818D01*
X155590402Y-79130390D01*
X155592798Y-79151652D01*
X155597351Y-79197884D01*
X155598394Y-79201323D01*
X155598723Y-79204242D01*
X155600078Y-79236415D01*
X155610209Y-79278098D01*
X155619172Y-79320072D01*
X155631913Y-79349650D01*
X155642335Y-79379436D01*
X155650817Y-79410508D01*
X155669978Y-79448907D01*
X155688048Y-79487817D01*
X155707048Y-79513815D01*
X155723843Y-79540544D01*
X155739022Y-79568942D01*
X155766248Y-79602117D01*
X155792524Y-79636030D01*
X155816826Y-79657142D01*
X155839159Y-79679475D01*
X155860271Y-79703777D01*
X155894184Y-79730053D01*
X155927359Y-79757279D01*
X155955758Y-79772459D01*
X155982486Y-79789253D01*
X156008484Y-79808253D01*
X156047400Y-79826326D01*
X156085794Y-79845484D01*
X156116862Y-79853965D01*
X156146653Y-79864389D01*
X156176235Y-79877131D01*
X156218208Y-79886093D01*
X156259886Y-79896223D01*
X156292059Y-79897578D01*
X156323431Y-79901112D01*
X156355091Y-79906950D01*
X156397999Y-79906349D01*
X156440908Y-79906950D01*
X156472568Y-79901112D01*
X156503940Y-79897578D01*
X156536115Y-79896223D01*
X156577800Y-79886091D01*
X156619765Y-79877131D01*
X156649343Y-79864391D01*
X156679136Y-79853966D01*
X156710208Y-79845484D01*
X156748607Y-79826323D01*
X156787517Y-79808253D01*
X156813515Y-79789253D01*
X156840244Y-79772458D01*
X156868642Y-79757279D01*
X156901817Y-79730053D01*
X156935730Y-79703777D01*
X156956842Y-79679475D01*
X156979175Y-79657142D01*
X156998001Y-79640788D01*
X157016826Y-79657142D01*
X157039159Y-79679475D01*
X157060271Y-79703777D01*
X157094184Y-79730053D01*
X157127359Y-79757279D01*
X157155758Y-79772459D01*
X157182486Y-79789253D01*
X157208484Y-79808253D01*
X157247400Y-79826326D01*
X157285794Y-79845484D01*
X157316862Y-79853965D01*
X157346653Y-79864389D01*
X157376235Y-79877131D01*
X157418208Y-79886093D01*
X157459886Y-79896223D01*
X157492059Y-79897578D01*
X157523431Y-79901112D01*
X157555091Y-79906950D01*
X157597999Y-79906349D01*
X157640908Y-79906950D01*
X157672568Y-79901112D01*
X157703940Y-79897578D01*
X157736115Y-79896223D01*
X157777800Y-79886091D01*
X157819765Y-79877131D01*
X157849343Y-79864391D01*
X157879136Y-79853966D01*
X157910208Y-79845484D01*
X157948607Y-79826323D01*
X157987517Y-79808253D01*
X158013515Y-79789253D01*
X158040244Y-79772458D01*
X158068642Y-79757279D01*
X158101817Y-79730053D01*
X158135730Y-79703777D01*
X158156842Y-79679475D01*
X158179175Y-79657142D01*
X158198001Y-79640788D01*
X158216826Y-79657142D01*
X158239159Y-79679475D01*
X158260271Y-79703777D01*
X158294184Y-79730053D01*
X158327359Y-79757279D01*
X158355758Y-79772459D01*
X158382486Y-79789253D01*
X158408484Y-79808253D01*
X158447400Y-79826326D01*
X158485794Y-79845484D01*
X158516862Y-79853965D01*
X158546653Y-79864389D01*
X158576235Y-79877131D01*
X158618208Y-79886093D01*
X158659886Y-79896223D01*
X158692059Y-79897578D01*
X158723431Y-79901112D01*
X158755091Y-79906950D01*
X158797999Y-79906349D01*
X158840908Y-79906950D01*
X158872568Y-79901112D01*
X158903940Y-79897578D01*
X158936115Y-79896223D01*
X158977800Y-79886091D01*
X159019765Y-79877131D01*
X159049343Y-79864391D01*
X159079136Y-79853966D01*
X159110208Y-79845484D01*
X159148607Y-79826323D01*
X159187517Y-79808253D01*
X159213515Y-79789253D01*
X159240244Y-79772458D01*
X159268642Y-79757279D01*
X159301817Y-79730053D01*
X159335730Y-79703777D01*
X159356842Y-79679475D01*
X159379175Y-79657142D01*
X159398001Y-79640788D01*
X159416826Y-79657142D01*
X159439159Y-79679475D01*
X159460271Y-79703777D01*
X159494184Y-79730053D01*
X159527359Y-79757279D01*
X159555758Y-79772459D01*
X159582486Y-79789253D01*
X159608484Y-79808253D01*
X159647400Y-79826326D01*
X159685794Y-79845484D01*
X159716862Y-79853965D01*
X159746653Y-79864389D01*
X159776235Y-79877131D01*
X159818208Y-79886093D01*
X159859886Y-79896223D01*
X159892059Y-79897578D01*
X159923431Y-79901112D01*
X159955091Y-79906950D01*
X159997999Y-79906349D01*
X160040908Y-79906950D01*
X160072568Y-79901112D01*
X160103940Y-79897578D01*
X160136115Y-79896223D01*
X160177800Y-79886091D01*
X160219765Y-79877131D01*
X160249343Y-79864391D01*
X160279136Y-79853966D01*
X160310208Y-79845484D01*
X160348607Y-79826323D01*
X160387517Y-79808253D01*
X160413515Y-79789253D01*
X160440244Y-79772458D01*
X160468642Y-79757279D01*
X160501817Y-79730053D01*
X160535730Y-79703777D01*
X160556842Y-79679475D01*
X160579175Y-79657142D01*
X160598001Y-79640788D01*
X160616826Y-79657142D01*
X160639159Y-79679475D01*
X160660271Y-79703777D01*
X160694184Y-79730053D01*
X160727359Y-79757279D01*
X160755758Y-79772459D01*
X160782486Y-79789253D01*
X160808484Y-79808253D01*
X160847400Y-79826326D01*
X160885794Y-79845484D01*
X160916862Y-79853965D01*
X160946653Y-79864389D01*
X160976235Y-79877131D01*
X161018208Y-79886093D01*
X161059886Y-79896223D01*
X161092059Y-79897578D01*
X161123431Y-79901112D01*
X161155091Y-79906950D01*
X161197999Y-79906349D01*
X161240908Y-79906950D01*
X161272568Y-79901112D01*
X161303940Y-79897578D01*
X161336115Y-79896223D01*
X161377800Y-79886091D01*
X161419765Y-79877131D01*
X161449343Y-79864391D01*
X161479136Y-79853966D01*
X161510208Y-79845484D01*
X161548607Y-79826323D01*
X161587517Y-79808253D01*
X161613515Y-79789253D01*
X161640244Y-79772458D01*
X161668642Y-79757279D01*
X161701817Y-79730053D01*
X161735730Y-79703777D01*
X161756842Y-79679475D01*
X161779175Y-79657142D01*
X161803477Y-79636030D01*
X161829753Y-79602117D01*
X161856979Y-79568942D01*
X161872159Y-79540543D01*
X161888953Y-79513815D01*
X161907953Y-79487817D01*
X161926026Y-79448901D01*
X161945184Y-79410507D01*
X161953665Y-79379439D01*
X161964091Y-79349643D01*
X161976831Y-79320065D01*
X161985791Y-79278100D01*
X161995923Y-79236415D01*
X161997278Y-79204240D01*
X161997607Y-79201319D01*
X161998649Y-79197884D01*
X162003200Y-79151680D01*
X162005599Y-79130383D01*
X162005649Y-79126809D01*
X162006000Y-79123246D01*
X162006000Y-79101771D01*
X162006650Y-79055392D01*
X162006000Y-79051867D01*
X162006000Y-78994000D01*
X166233975Y-78994000D01*
X155783050Y-89444926D01*
X155758815Y-89464815D01*
X155679463Y-89561507D01*
X155620498Y-89671821D01*
X155584188Y-89791519D01*
X155575000Y-89884809D01*
X155575000Y-89884819D01*
X155571929Y-89916000D01*
X155575000Y-89947181D01*
X155575001Y-92000581D01*
X155517887Y-92086058D01*
X155459013Y-92228191D01*
X155429000Y-92379078D01*
X155429000Y-92532922D01*
X155459013Y-92683809D01*
X155517887Y-92825942D01*
X155575000Y-92911418D01*
X155575001Y-99615000D01*
X146805418Y-99615000D01*
X146719942Y-99557887D01*
X146577809Y-99499013D01*
X146426922Y-99469000D01*
X146273078Y-99469000D01*
X146122191Y-99499013D01*
X145980058Y-99557887D01*
X145894582Y-99615000D01*
X136805418Y-99615000D01*
X136719942Y-99557887D01*
X136577809Y-99499013D01*
X136426922Y-99469000D01*
X136273078Y-99469000D01*
X136122191Y-99499013D01*
X135980058Y-99557887D01*
X135852141Y-99643358D01*
X135743358Y-99752141D01*
X135657887Y-99880058D01*
X135599013Y-100022191D01*
X135569000Y-100173078D01*
X135569000Y-100326922D01*
X135599013Y-100477809D01*
X135657887Y-100619942D01*
X135743358Y-100747859D01*
X135852141Y-100856642D01*
X135980058Y-100942113D01*
X136122191Y-101000987D01*
X136273078Y-101031000D01*
X136426922Y-101031000D01*
X136577809Y-101000987D01*
X136719942Y-100942113D01*
X136805418Y-100885000D01*
X145894582Y-100885000D01*
X145980058Y-100942113D01*
X146122191Y-101000987D01*
X146273078Y-101031000D01*
X146426922Y-101031000D01*
X146577809Y-101000987D01*
X146719942Y-100942113D01*
X146805418Y-100885000D01*
X155894582Y-100885000D01*
X155980058Y-100942113D01*
X156122191Y-101000987D01*
X156273078Y-101031000D01*
X156426922Y-101031000D01*
X156577809Y-101000987D01*
X156719942Y-100942113D01*
X156805418Y-100885000D01*
X165894582Y-100885000D01*
X165980058Y-100942113D01*
X166122191Y-101000987D01*
X166273078Y-101031000D01*
X166426922Y-101031000D01*
X166577809Y-101000987D01*
X166719942Y-100942113D01*
X166805418Y-100885000D01*
X175894582Y-100885000D01*
X175980058Y-100942113D01*
X176122191Y-101000987D01*
X176273078Y-101031000D01*
X176426922Y-101031000D01*
X176577809Y-101000987D01*
X176719942Y-100942113D01*
X176805418Y-100885000D01*
X185894582Y-100885000D01*
X185980058Y-100942113D01*
X186122191Y-101000987D01*
X186273078Y-101031000D01*
X186426922Y-101031000D01*
X186577809Y-101000987D01*
X186719942Y-100942113D01*
X186805418Y-100885000D01*
X195894582Y-100885000D01*
X195980058Y-100942113D01*
X196122191Y-101000987D01*
X196273078Y-101031000D01*
X196426922Y-101031000D01*
X196577809Y-101000987D01*
X196719942Y-100942113D01*
X196805418Y-100885000D01*
X205894582Y-100885000D01*
X205980058Y-100942113D01*
X206122191Y-101000987D01*
X206273078Y-101031000D01*
X206426922Y-101031000D01*
X206577809Y-101000987D01*
X206719942Y-100942113D01*
X206847859Y-100856642D01*
X206956642Y-100747859D01*
X207042113Y-100619942D01*
X207100987Y-100477809D01*
X207131000Y-100326922D01*
X207131000Y-100173078D01*
X207100987Y-100022191D01*
X207042113Y-99880058D01*
X206956642Y-99752141D01*
X206847859Y-99643358D01*
X206719942Y-99557887D01*
X206577809Y-99499013D01*
X206426922Y-99469000D01*
X206273078Y-99469000D01*
X206122191Y-99499013D01*
X205980058Y-99557887D01*
X205894582Y-99615000D01*
X196805418Y-99615000D01*
X196719942Y-99557887D01*
X196577809Y-99499013D01*
X196426922Y-99469000D01*
X196273078Y-99469000D01*
X196122191Y-99499013D01*
X195980058Y-99557887D01*
X195894582Y-99615000D01*
X186805418Y-99615000D01*
X186719942Y-99557887D01*
X186577809Y-99499013D01*
X186426922Y-99469000D01*
X186273078Y-99469000D01*
X186122191Y-99499013D01*
X185980058Y-99557887D01*
X185894582Y-99615000D01*
X176805418Y-99615000D01*
X176719942Y-99557887D01*
X176577809Y-99499013D01*
X176426922Y-99469000D01*
X176273078Y-99469000D01*
X176122191Y-99499013D01*
X175980058Y-99557887D01*
X175894582Y-99615000D01*
X166805418Y-99615000D01*
X166719942Y-99557887D01*
X166577809Y-99499013D01*
X166426922Y-99469000D01*
X166273078Y-99469000D01*
X166122191Y-99499013D01*
X165980058Y-99557887D01*
X165894582Y-99615000D01*
X156845000Y-99615000D01*
X156845000Y-92911418D01*
X156902113Y-92825942D01*
X156960987Y-92683809D01*
X156991000Y-92532922D01*
X156991000Y-92379078D01*
X156960987Y-92228191D01*
X156902113Y-92086058D01*
X156845000Y-92000582D01*
X156845000Y-90179024D01*
X167141025Y-79883000D01*
X173315157Y-79883000D01*
X173315157Y-80048000D01*
X173322513Y-80122689D01*
X173344299Y-80194508D01*
X173379678Y-80260696D01*
X173427289Y-80318711D01*
X173485304Y-80366322D01*
X173551492Y-80401701D01*
X173623311Y-80423487D01*
X173698000Y-80430843D01*
X174782818Y-80430843D01*
X175334935Y-80982961D01*
X175354816Y-81007186D01*
X175379040Y-81027066D01*
X175379044Y-81027070D01*
X175451507Y-81086539D01*
X175534817Y-81131069D01*
X175561821Y-81145503D01*
X175681519Y-81181813D01*
X175774809Y-81191001D01*
X175774812Y-81191001D01*
X175806001Y-81194073D01*
X175837190Y-81191001D01*
X177594660Y-81191001D01*
X177625841Y-81194072D01*
X177657022Y-81191001D01*
X177657033Y-81191001D01*
X177750323Y-81181813D01*
X177870021Y-81145503D01*
X177980335Y-81086538D01*
X178077026Y-81007186D01*
X178096915Y-80982951D01*
X179240966Y-79838901D01*
X179265196Y-79819016D01*
X179344548Y-79722325D01*
X179403513Y-79612011D01*
X179439823Y-79492313D01*
X179449011Y-79399023D01*
X179449011Y-79399013D01*
X179452082Y-79367832D01*
X179449011Y-79336651D01*
X179449011Y-76449279D01*
X179452083Y-76418090D01*
X179449011Y-76386898D01*
X179439823Y-76293608D01*
X179422196Y-76235499D01*
X180080106Y-76235499D01*
X180296228Y-76602258D01*
X180756105Y-76842938D01*
X181254098Y-76989275D01*
X181771071Y-77035648D01*
X182287159Y-76980273D01*
X182782526Y-76825279D01*
X183199772Y-76602258D01*
X183415894Y-76235499D01*
X181748000Y-74567605D01*
X180080106Y-76235499D01*
X179422196Y-76235499D01*
X179403513Y-76173910D01*
X179399597Y-76166583D01*
X179344549Y-76063596D01*
X179285080Y-75991133D01*
X179285076Y-75991129D01*
X179265196Y-75966905D01*
X179240973Y-75947026D01*
X177705018Y-74411071D01*
X179100352Y-74411071D01*
X179155727Y-74927159D01*
X179310721Y-75422526D01*
X179533742Y-75839772D01*
X179900501Y-76055894D01*
X181568395Y-74388000D01*
X181927605Y-74388000D01*
X183595499Y-76055894D01*
X183962258Y-75839772D01*
X184202938Y-75379895D01*
X184349275Y-74881902D01*
X184395648Y-74364929D01*
X184340273Y-73848841D01*
X184185279Y-73353474D01*
X183962258Y-72936228D01*
X183595499Y-72720106D01*
X181927605Y-74388000D01*
X181568395Y-74388000D01*
X179900501Y-72720106D01*
X179533742Y-72936228D01*
X179293062Y-73396105D01*
X179146725Y-73894098D01*
X179100352Y-74411071D01*
X177705018Y-74411071D01*
X175834448Y-72540501D01*
X180080106Y-72540501D01*
X181748000Y-74208395D01*
X183415894Y-72540501D01*
X183199772Y-72173742D01*
X182739895Y-71933062D01*
X182241902Y-71786725D01*
X181724929Y-71740352D01*
X181208841Y-71795727D01*
X180713474Y-71950721D01*
X180296228Y-72173742D01*
X180080106Y-72540501D01*
X175834448Y-72540501D01*
X171366538Y-68072592D01*
X171366529Y-68072581D01*
X170938996Y-67645049D01*
X170919107Y-67620815D01*
X170822416Y-67541463D01*
X170712102Y-67482498D01*
X170592404Y-67446188D01*
X170499114Y-67437000D01*
X170499103Y-67437000D01*
X170467922Y-67433929D01*
X170436741Y-67437000D01*
X135676218Y-67437000D01*
X135576180Y-67287283D01*
X135404717Y-67115820D01*
X135203097Y-66981102D01*
X134979069Y-66888307D01*
X134741243Y-66841000D01*
X134498757Y-66841000D01*
X134260931Y-66888307D01*
X134036903Y-66981102D01*
X133835283Y-67115820D01*
X133663820Y-67287283D01*
X133566927Y-67432294D01*
X133568072Y-67222000D01*
X133555812Y-67097518D01*
X133519502Y-66977820D01*
X133460537Y-66867506D01*
X133381185Y-66770815D01*
X133284494Y-66691463D01*
X133174180Y-66632498D01*
X133054482Y-66596188D01*
X132930000Y-66583928D01*
X132365750Y-66587000D01*
X132207000Y-66745750D01*
X132207000Y-67945000D01*
X132227000Y-67945000D01*
X132227000Y-68199000D01*
X132207000Y-68199000D01*
X132207000Y-68219000D01*
X131953000Y-68219000D01*
X131953000Y-68199000D01*
X130753750Y-68199000D01*
X130595000Y-68357750D01*
X130591928Y-68922000D01*
X127431000Y-68922000D01*
X127431000Y-67222000D01*
X130591928Y-67222000D01*
X130595000Y-67786250D01*
X130753750Y-67945000D01*
X131953000Y-67945000D01*
X131953000Y-66745750D01*
X131794250Y-66587000D01*
X131230000Y-66583928D01*
X131105518Y-66596188D01*
X130985820Y-66632498D01*
X130875506Y-66691463D01*
X130778815Y-66770815D01*
X130699463Y-66867506D01*
X130640498Y-66977820D01*
X130604188Y-67097518D01*
X130591928Y-67222000D01*
X127431000Y-67222000D01*
X127431000Y-65310744D01*
X127948000Y-65310744D01*
X127948000Y-65499256D01*
X127984777Y-65684147D01*
X128056917Y-65858310D01*
X128161649Y-66015052D01*
X128294948Y-66148351D01*
X128451690Y-66253083D01*
X128625853Y-66325223D01*
X128810744Y-66362000D01*
X128999256Y-66362000D01*
X129184147Y-66325223D01*
X129358310Y-66253083D01*
X129515052Y-66148351D01*
X129648351Y-66015052D01*
X129753083Y-65858310D01*
X129825223Y-65684147D01*
X129862000Y-65499256D01*
X129862000Y-65310744D01*
X209863000Y-65310744D01*
X209863000Y-65499256D01*
X209899777Y-65684147D01*
X209971917Y-65858310D01*
X210076649Y-66015052D01*
X210209948Y-66148351D01*
X210366690Y-66253083D01*
X210540853Y-66325223D01*
X210725744Y-66362000D01*
X210914256Y-66362000D01*
X211099147Y-66325223D01*
X211273310Y-66253083D01*
X211430052Y-66148351D01*
X211563351Y-66015052D01*
X211668083Y-65858310D01*
X211740223Y-65684147D01*
X211777000Y-65499256D01*
X211777000Y-65310744D01*
X211740223Y-65125853D01*
X211668083Y-64951690D01*
X211563351Y-64794948D01*
X211430052Y-64661649D01*
X211273310Y-64556917D01*
X211099147Y-64484777D01*
X210914256Y-64448000D01*
X210725744Y-64448000D01*
X210540853Y-64484777D01*
X210366690Y-64556917D01*
X210209948Y-64661649D01*
X210076649Y-64794948D01*
X209971917Y-64951690D01*
X209899777Y-65125853D01*
X209863000Y-65310744D01*
X129862000Y-65310744D01*
X129825223Y-65125853D01*
X129753083Y-64951690D01*
X129648351Y-64794948D01*
X129515052Y-64661649D01*
X129358310Y-64556917D01*
X129184147Y-64484777D01*
X128999256Y-64448000D01*
X128810744Y-64448000D01*
X128625853Y-64484777D01*
X128451690Y-64556917D01*
X128294948Y-64661649D01*
X128161649Y-64794948D01*
X128056917Y-64951690D01*
X127984777Y-65125853D01*
X127948000Y-65310744D01*
X127431000Y-65310744D01*
X127431000Y-65108580D01*
X127455053Y-64863270D01*
X127520174Y-64647578D01*
X127625948Y-64448648D01*
X127768349Y-64274046D01*
X127941951Y-64130430D01*
X128140137Y-64023271D01*
X128355369Y-63956646D01*
X128599375Y-63931000D01*
X211116420Y-63931000D01*
X211361730Y-63955053D01*
%TA.AperFunction,Conductor*%
D20*
G36*
X211361730Y-63955053D02*
G01*
X211577422Y-64020174D01*
X211776352Y-64125948D01*
X211950954Y-64268349D01*
X212094570Y-64441951D01*
X212201729Y-64640137D01*
X212268354Y-64855369D01*
X212294000Y-65099375D01*
X212294001Y-115866410D01*
X212269947Y-116111731D01*
X212204827Y-116327420D01*
X212099051Y-116526355D01*
X211956652Y-116700954D01*
X211783049Y-116844570D01*
X211584863Y-116951729D01*
X211369631Y-117018354D01*
X211125625Y-117044000D01*
X128608580Y-117044000D01*
X128363269Y-117019947D01*
X128147580Y-116954827D01*
X127948645Y-116849051D01*
X127774046Y-116706652D01*
X127630430Y-116533049D01*
X127523271Y-116334863D01*
X127456646Y-116119631D01*
X127431000Y-115875625D01*
X127431000Y-115475744D01*
X127948000Y-115475744D01*
X127948000Y-115664256D01*
X127984777Y-115849147D01*
X128056917Y-116023310D01*
X128161649Y-116180052D01*
X128294948Y-116313351D01*
X128451690Y-116418083D01*
X128625853Y-116490223D01*
X128810744Y-116527000D01*
X128999256Y-116527000D01*
X129184147Y-116490223D01*
X129358310Y-116418083D01*
X129515052Y-116313351D01*
X129648351Y-116180052D01*
X129753083Y-116023310D01*
X129825223Y-115849147D01*
X129862000Y-115664256D01*
X129862000Y-115475744D01*
X209863000Y-115475744D01*
X209863000Y-115664256D01*
X209899777Y-115849147D01*
X209971917Y-116023310D01*
X210076649Y-116180052D01*
X210209948Y-116313351D01*
X210366690Y-116418083D01*
X210540853Y-116490223D01*
X210725744Y-116527000D01*
X210914256Y-116527000D01*
X211099147Y-116490223D01*
X211273310Y-116418083D01*
X211430052Y-116313351D01*
X211563351Y-116180052D01*
X211668083Y-116023310D01*
X211740223Y-115849147D01*
X211777000Y-115664256D01*
X211777000Y-115475744D01*
X211740223Y-115290853D01*
X211668083Y-115116690D01*
X211563351Y-114959948D01*
X211430052Y-114826649D01*
X211273310Y-114721917D01*
X211099147Y-114649777D01*
X210914256Y-114613000D01*
X210725744Y-114613000D01*
X210540853Y-114649777D01*
X210366690Y-114721917D01*
X210209948Y-114826649D01*
X210076649Y-114959948D01*
X209971917Y-115116690D01*
X209899777Y-115290853D01*
X209863000Y-115475744D01*
X129862000Y-115475744D01*
X129825223Y-115290853D01*
X129753083Y-115116690D01*
X129648351Y-114959948D01*
X129515052Y-114826649D01*
X129358310Y-114721917D01*
X129184147Y-114649777D01*
X128999256Y-114613000D01*
X128810744Y-114613000D01*
X128625853Y-114649777D01*
X128451690Y-114721917D01*
X128294948Y-114826649D01*
X128161649Y-114959948D01*
X128056917Y-115116690D01*
X127984777Y-115290853D01*
X127948000Y-115475744D01*
X127431000Y-115475744D01*
X127431000Y-111450000D01*
X130667157Y-111450000D01*
X130667157Y-114050000D01*
X130674513Y-114124689D01*
X130696299Y-114196508D01*
X130731678Y-114262696D01*
X130779289Y-114320711D01*
X130837304Y-114368322D01*
X130903492Y-114403701D01*
X130975311Y-114425487D01*
X131050000Y-114432843D01*
X133650000Y-114432843D01*
X133724689Y-114425487D01*
X133796508Y-114403701D01*
X133862696Y-114368322D01*
X133920711Y-114320711D01*
X133968322Y-114262696D01*
X134003701Y-114196508D01*
X134025487Y-114124689D01*
X134032843Y-114050000D01*
X134032843Y-112584436D01*
X135669000Y-112584436D01*
X135669000Y-112915564D01*
X135733600Y-113240330D01*
X135860317Y-113546252D01*
X136044282Y-113821575D01*
X136278425Y-114055718D01*
X136553748Y-114239683D01*
X136859670Y-114366400D01*
X137184436Y-114431000D01*
X137515564Y-114431000D01*
X137840330Y-114366400D01*
X138146252Y-114239683D01*
X138421575Y-114055718D01*
X138655718Y-113821575D01*
X138839683Y-113546252D01*
X138966400Y-113240330D01*
X139031000Y-112915564D01*
X139031000Y-112584436D01*
X140669000Y-112584436D01*
X140669000Y-112915564D01*
X140733600Y-113240330D01*
X140860317Y-113546252D01*
X141044282Y-113821575D01*
X141278425Y-114055718D01*
X141553748Y-114239683D01*
X141859670Y-114366400D01*
X142184436Y-114431000D01*
X142515564Y-114431000D01*
X142840330Y-114366400D01*
X143146252Y-114239683D01*
X143421575Y-114055718D01*
X143655718Y-113821575D01*
X143839683Y-113546252D01*
X143966400Y-113240330D01*
X144031000Y-112915564D01*
X144031000Y-112584436D01*
X145669000Y-112584436D01*
X145669000Y-112915564D01*
X145733600Y-113240330D01*
X145860317Y-113546252D01*
X146044282Y-113821575D01*
X146278425Y-114055718D01*
X146553748Y-114239683D01*
X146859670Y-114366400D01*
X147184436Y-114431000D01*
X147515564Y-114431000D01*
X147840330Y-114366400D01*
X148146252Y-114239683D01*
X148421575Y-114055718D01*
X148655718Y-113821575D01*
X148839683Y-113546252D01*
X148966400Y-113240330D01*
X149031000Y-112915564D01*
X149031000Y-112584436D01*
X150669000Y-112584436D01*
X150669000Y-112915564D01*
X150733600Y-113240330D01*
X150860317Y-113546252D01*
X151044282Y-113821575D01*
X151278425Y-114055718D01*
X151553748Y-114239683D01*
X151859670Y-114366400D01*
X152184436Y-114431000D01*
X152515564Y-114431000D01*
X152840330Y-114366400D01*
X153146252Y-114239683D01*
X153421575Y-114055718D01*
X153655718Y-113821575D01*
X153839683Y-113546252D01*
X153966400Y-113240330D01*
X154031000Y-112915564D01*
X154031000Y-112584436D01*
X155669000Y-112584436D01*
X155669000Y-112915564D01*
X155733600Y-113240330D01*
X155860317Y-113546252D01*
X156044282Y-113821575D01*
X156278425Y-114055718D01*
X156553748Y-114239683D01*
X156859670Y-114366400D01*
X157184436Y-114431000D01*
X157515564Y-114431000D01*
X157840330Y-114366400D01*
X158146252Y-114239683D01*
X158421575Y-114055718D01*
X158655718Y-113821575D01*
X158839683Y-113546252D01*
X158966400Y-113240330D01*
X159031000Y-112915564D01*
X159031000Y-112584436D01*
X160669000Y-112584436D01*
X160669000Y-112915564D01*
X160733600Y-113240330D01*
X160860317Y-113546252D01*
X161044282Y-113821575D01*
X161278425Y-114055718D01*
X161553748Y-114239683D01*
X161859670Y-114366400D01*
X162184436Y-114431000D01*
X162515564Y-114431000D01*
X162840330Y-114366400D01*
X163146252Y-114239683D01*
X163421575Y-114055718D01*
X163655718Y-113821575D01*
X163839683Y-113546252D01*
X163966400Y-113240330D01*
X164031000Y-112915564D01*
X164031000Y-112584436D01*
X165669000Y-112584436D01*
X165669000Y-112915564D01*
X165733600Y-113240330D01*
X165860317Y-113546252D01*
X166044282Y-113821575D01*
X166278425Y-114055718D01*
X166553748Y-114239683D01*
X166859670Y-114366400D01*
X167184436Y-114431000D01*
X167515564Y-114431000D01*
X167840330Y-114366400D01*
X168146252Y-114239683D01*
X168421575Y-114055718D01*
X168655718Y-113821575D01*
X168839683Y-113546252D01*
X168966400Y-113240330D01*
X169031000Y-112915564D01*
X169031000Y-112584436D01*
X170669000Y-112584436D01*
X170669000Y-112915564D01*
X170733600Y-113240330D01*
X170860317Y-113546252D01*
X171044282Y-113821575D01*
X171278425Y-114055718D01*
X171553748Y-114239683D01*
X171859670Y-114366400D01*
X172184436Y-114431000D01*
X172515564Y-114431000D01*
X172840330Y-114366400D01*
X173146252Y-114239683D01*
X173421575Y-114055718D01*
X173655718Y-113821575D01*
X173839683Y-113546252D01*
X173966400Y-113240330D01*
X174031000Y-112915564D01*
X174031000Y-112584436D01*
X175669000Y-112584436D01*
X175669000Y-112915564D01*
X175733600Y-113240330D01*
X175860317Y-113546252D01*
X176044282Y-113821575D01*
X176278425Y-114055718D01*
X176553748Y-114239683D01*
X176859670Y-114366400D01*
X177184436Y-114431000D01*
X177515564Y-114431000D01*
X177840330Y-114366400D01*
X178146252Y-114239683D01*
X178421575Y-114055718D01*
X178655718Y-113821575D01*
X178839683Y-113546252D01*
X178966400Y-113240330D01*
X179031000Y-112915564D01*
X179031000Y-112584436D01*
X180669000Y-112584436D01*
X180669000Y-112915564D01*
X180733600Y-113240330D01*
X180860317Y-113546252D01*
X181044282Y-113821575D01*
X181278425Y-114055718D01*
X181553748Y-114239683D01*
X181859670Y-114366400D01*
X182184436Y-114431000D01*
X182515564Y-114431000D01*
X182840330Y-114366400D01*
X183146252Y-114239683D01*
X183421575Y-114055718D01*
X183655718Y-113821575D01*
X183839683Y-113546252D01*
X183966400Y-113240330D01*
X184031000Y-112915564D01*
X184031000Y-112584436D01*
X185669000Y-112584436D01*
X185669000Y-112915564D01*
X185733600Y-113240330D01*
X185860317Y-113546252D01*
X186044282Y-113821575D01*
X186278425Y-114055718D01*
X186553748Y-114239683D01*
X186859670Y-114366400D01*
X187184436Y-114431000D01*
X187515564Y-114431000D01*
X187840330Y-114366400D01*
X188146252Y-114239683D01*
X188421575Y-114055718D01*
X188655718Y-113821575D01*
X188839683Y-113546252D01*
X188966400Y-113240330D01*
X189031000Y-112915564D01*
X189031000Y-112584436D01*
X190669000Y-112584436D01*
X190669000Y-112915564D01*
X190733600Y-113240330D01*
X190860317Y-113546252D01*
X191044282Y-113821575D01*
X191278425Y-114055718D01*
X191553748Y-114239683D01*
X191859670Y-114366400D01*
X192184436Y-114431000D01*
X192515564Y-114431000D01*
X192840330Y-114366400D01*
X193146252Y-114239683D01*
X193421575Y-114055718D01*
X193655718Y-113821575D01*
X193839683Y-113546252D01*
X193966400Y-113240330D01*
X194031000Y-112915564D01*
X194031000Y-112584436D01*
X195669000Y-112584436D01*
X195669000Y-112915564D01*
X195733600Y-113240330D01*
X195860317Y-113546252D01*
X196044282Y-113821575D01*
X196278425Y-114055718D01*
X196553748Y-114239683D01*
X196859670Y-114366400D01*
X197184436Y-114431000D01*
X197515564Y-114431000D01*
X197840330Y-114366400D01*
X198146252Y-114239683D01*
X198421575Y-114055718D01*
X198655718Y-113821575D01*
X198839683Y-113546252D01*
X198966400Y-113240330D01*
X199031000Y-112915564D01*
X199031000Y-112584436D01*
X200669000Y-112584436D01*
X200669000Y-112915564D01*
X200733600Y-113240330D01*
X200860317Y-113546252D01*
X201044282Y-113821575D01*
X201278425Y-114055718D01*
X201553748Y-114239683D01*
X201859670Y-114366400D01*
X202184436Y-114431000D01*
X202515564Y-114431000D01*
X202840330Y-114366400D01*
X203146252Y-114239683D01*
X203421575Y-114055718D01*
X203655718Y-113821575D01*
X203839683Y-113546252D01*
X203966400Y-113240330D01*
X204031000Y-112915564D01*
X204031000Y-112584436D01*
X205669000Y-112584436D01*
X205669000Y-112915564D01*
X205733600Y-113240330D01*
X205860317Y-113546252D01*
X206044282Y-113821575D01*
X206278425Y-114055718D01*
X206553748Y-114239683D01*
X206859670Y-114366400D01*
X207184436Y-114431000D01*
X207515564Y-114431000D01*
X207840330Y-114366400D01*
X208146252Y-114239683D01*
X208421575Y-114055718D01*
X208655718Y-113821575D01*
X208839683Y-113546252D01*
X208966400Y-113240330D01*
X209031000Y-112915564D01*
X209031000Y-112584436D01*
X208966400Y-112259670D01*
X208839683Y-111953748D01*
X208655718Y-111678425D01*
X208421575Y-111444282D01*
X208146252Y-111260317D01*
X207840330Y-111133600D01*
X207515564Y-111069000D01*
X207184436Y-111069000D01*
X206859670Y-111133600D01*
X206553748Y-111260317D01*
X206278425Y-111444282D01*
X206044282Y-111678425D01*
X205860317Y-111953748D01*
X205733600Y-112259670D01*
X205669000Y-112584436D01*
X204031000Y-112584436D01*
X203966400Y-112259670D01*
X203839683Y-111953748D01*
X203655718Y-111678425D01*
X203421575Y-111444282D01*
X203146252Y-111260317D01*
X202840330Y-111133600D01*
X202515564Y-111069000D01*
X202184436Y-111069000D01*
X201859670Y-111133600D01*
X201553748Y-111260317D01*
X201278425Y-111444282D01*
X201044282Y-111678425D01*
X200860317Y-111953748D01*
X200733600Y-112259670D01*
X200669000Y-112584436D01*
X199031000Y-112584436D01*
X198966400Y-112259670D01*
X198839683Y-111953748D01*
X198655718Y-111678425D01*
X198421575Y-111444282D01*
X198146252Y-111260317D01*
X197840330Y-111133600D01*
X197515564Y-111069000D01*
X197184436Y-111069000D01*
X196859670Y-111133600D01*
X196553748Y-111260317D01*
X196278425Y-111444282D01*
X196044282Y-111678425D01*
X195860317Y-111953748D01*
X195733600Y-112259670D01*
X195669000Y-112584436D01*
X194031000Y-112584436D01*
X193966400Y-112259670D01*
X193839683Y-111953748D01*
X193655718Y-111678425D01*
X193421575Y-111444282D01*
X193146252Y-111260317D01*
X192840330Y-111133600D01*
X192515564Y-111069000D01*
X192184436Y-111069000D01*
X191859670Y-111133600D01*
X191553748Y-111260317D01*
X191278425Y-111444282D01*
X191044282Y-111678425D01*
X190860317Y-111953748D01*
X190733600Y-112259670D01*
X190669000Y-112584436D01*
X189031000Y-112584436D01*
X188966400Y-112259670D01*
X188839683Y-111953748D01*
X188655718Y-111678425D01*
X188421575Y-111444282D01*
X188146252Y-111260317D01*
X187840330Y-111133600D01*
X187515564Y-111069000D01*
X187184436Y-111069000D01*
X186859670Y-111133600D01*
X186553748Y-111260317D01*
X186278425Y-111444282D01*
X186044282Y-111678425D01*
X185860317Y-111953748D01*
X185733600Y-112259670D01*
X185669000Y-112584436D01*
X184031000Y-112584436D01*
X183966400Y-112259670D01*
X183839683Y-111953748D01*
X183655718Y-111678425D01*
X183421575Y-111444282D01*
X183146252Y-111260317D01*
X182840330Y-111133600D01*
X182515564Y-111069000D01*
X182184436Y-111069000D01*
X181859670Y-111133600D01*
X181553748Y-111260317D01*
X181278425Y-111444282D01*
X181044282Y-111678425D01*
X180860317Y-111953748D01*
X180733600Y-112259670D01*
X180669000Y-112584436D01*
X179031000Y-112584436D01*
X178966400Y-112259670D01*
X178839683Y-111953748D01*
X178655718Y-111678425D01*
X178421575Y-111444282D01*
X178146252Y-111260317D01*
X177840330Y-111133600D01*
X177515564Y-111069000D01*
X177184436Y-111069000D01*
X176859670Y-111133600D01*
X176553748Y-111260317D01*
X176278425Y-111444282D01*
X176044282Y-111678425D01*
X175860317Y-111953748D01*
X175733600Y-112259670D01*
X175669000Y-112584436D01*
X174031000Y-112584436D01*
X173966400Y-112259670D01*
X173839683Y-111953748D01*
X173655718Y-111678425D01*
X173421575Y-111444282D01*
X173146252Y-111260317D01*
X172840330Y-111133600D01*
X172515564Y-111069000D01*
X172184436Y-111069000D01*
X171859670Y-111133600D01*
X171553748Y-111260317D01*
X171278425Y-111444282D01*
X171044282Y-111678425D01*
X170860317Y-111953748D01*
X170733600Y-112259670D01*
X170669000Y-112584436D01*
X169031000Y-112584436D01*
X168966400Y-112259670D01*
X168839683Y-111953748D01*
X168655718Y-111678425D01*
X168421575Y-111444282D01*
X168146252Y-111260317D01*
X167840330Y-111133600D01*
X167515564Y-111069000D01*
X167184436Y-111069000D01*
X166859670Y-111133600D01*
X166553748Y-111260317D01*
X166278425Y-111444282D01*
X166044282Y-111678425D01*
X165860317Y-111953748D01*
X165733600Y-112259670D01*
X165669000Y-112584436D01*
X164031000Y-112584436D01*
X163966400Y-112259670D01*
X163839683Y-111953748D01*
X163655718Y-111678425D01*
X163421575Y-111444282D01*
X163146252Y-111260317D01*
X162840330Y-111133600D01*
X162515564Y-111069000D01*
X162184436Y-111069000D01*
X161859670Y-111133600D01*
X161553748Y-111260317D01*
X161278425Y-111444282D01*
X161044282Y-111678425D01*
X160860317Y-111953748D01*
X160733600Y-112259670D01*
X160669000Y-112584436D01*
X159031000Y-112584436D01*
X158966400Y-112259670D01*
X158839683Y-111953748D01*
X158655718Y-111678425D01*
X158421575Y-111444282D01*
X158146252Y-111260317D01*
X157840330Y-111133600D01*
X157515564Y-111069000D01*
X157184436Y-111069000D01*
X156859670Y-111133600D01*
X156553748Y-111260317D01*
X156278425Y-111444282D01*
X156044282Y-111678425D01*
X155860317Y-111953748D01*
X155733600Y-112259670D01*
X155669000Y-112584436D01*
X154031000Y-112584436D01*
X153966400Y-112259670D01*
X153839683Y-111953748D01*
X153655718Y-111678425D01*
X153421575Y-111444282D01*
X153146252Y-111260317D01*
X152840330Y-111133600D01*
X152515564Y-111069000D01*
X152184436Y-111069000D01*
X151859670Y-111133600D01*
X151553748Y-111260317D01*
X151278425Y-111444282D01*
X151044282Y-111678425D01*
X150860317Y-111953748D01*
X150733600Y-112259670D01*
X150669000Y-112584436D01*
X149031000Y-112584436D01*
X148966400Y-112259670D01*
X148839683Y-111953748D01*
X148655718Y-111678425D01*
X148421575Y-111444282D01*
X148146252Y-111260317D01*
X147840330Y-111133600D01*
X147515564Y-111069000D01*
X147184436Y-111069000D01*
X146859670Y-111133600D01*
X146553748Y-111260317D01*
X146278425Y-111444282D01*
X146044282Y-111678425D01*
X145860317Y-111953748D01*
X145733600Y-112259670D01*
X145669000Y-112584436D01*
X144031000Y-112584436D01*
X143966400Y-112259670D01*
X143839683Y-111953748D01*
X143655718Y-111678425D01*
X143421575Y-111444282D01*
X143146252Y-111260317D01*
X142840330Y-111133600D01*
X142515564Y-111069000D01*
X142184436Y-111069000D01*
X141859670Y-111133600D01*
X141553748Y-111260317D01*
X141278425Y-111444282D01*
X141044282Y-111678425D01*
X140860317Y-111953748D01*
X140733600Y-112259670D01*
X140669000Y-112584436D01*
X139031000Y-112584436D01*
X138966400Y-112259670D01*
X138839683Y-111953748D01*
X138655718Y-111678425D01*
X138421575Y-111444282D01*
X138146252Y-111260317D01*
X137840330Y-111133600D01*
X137515564Y-111069000D01*
X137184436Y-111069000D01*
X136859670Y-111133600D01*
X136553748Y-111260317D01*
X136278425Y-111444282D01*
X136044282Y-111678425D01*
X135860317Y-111953748D01*
X135733600Y-112259670D01*
X135669000Y-112584436D01*
X134032843Y-112584436D01*
X134032843Y-111450000D01*
X134025487Y-111375311D01*
X134003701Y-111303492D01*
X133968322Y-111237304D01*
X133920711Y-111179289D01*
X133862696Y-111131678D01*
X133796508Y-111096299D01*
X133724689Y-111074513D01*
X133650000Y-111067157D01*
X131050000Y-111067157D01*
X130975311Y-111074513D01*
X130903492Y-111096299D01*
X130837304Y-111131678D01*
X130779289Y-111179289D01*
X130731678Y-111237304D01*
X130696299Y-111303492D01*
X130674513Y-111375311D01*
X130667157Y-111450000D01*
X127431000Y-111450000D01*
X127431000Y-91288890D01*
X130638524Y-91288890D01*
X130683175Y-91436099D01*
X130808359Y-91698920D01*
X130982412Y-91932269D01*
X131198645Y-92127178D01*
X131448748Y-92276157D01*
X131723109Y-92373481D01*
X131953000Y-92252814D01*
X131953000Y-91059000D01*
X130759845Y-91059000D01*
X130638524Y-91288890D01*
X127431000Y-91288890D01*
X127431000Y-90575110D01*
X130638524Y-90575110D01*
X130759845Y-90805000D01*
X131953000Y-90805000D01*
X131953000Y-90785000D01*
X132207000Y-90785000D01*
X132207000Y-90805000D01*
X132227000Y-90805000D01*
X132227000Y-91059000D01*
X132207000Y-91059000D01*
X132207000Y-92252814D01*
X132436891Y-92373481D01*
X132711252Y-92276157D01*
X132961355Y-92127178D01*
X133177588Y-91932269D01*
X133351641Y-91698920D01*
X133476825Y-91436099D01*
X133485091Y-91408846D01*
X133529102Y-91515097D01*
X133663820Y-91716717D01*
X133835283Y-91888180D01*
X134036903Y-92022898D01*
X134260931Y-92115693D01*
X134498757Y-92163000D01*
X134741243Y-92163000D01*
X134979069Y-92115693D01*
X135203097Y-92022898D01*
X135404717Y-91888180D01*
X135576180Y-91716717D01*
X135710898Y-91515097D01*
X135803693Y-91291069D01*
X135851000Y-91053243D01*
X135851000Y-90810757D01*
X135803693Y-90572931D01*
X135710898Y-90348903D01*
X135576180Y-90147283D01*
X135492190Y-90063293D01*
X135493831Y-90061947D01*
X135509738Y-90042564D01*
X136231570Y-89320732D01*
X136250948Y-89304830D01*
X136312853Y-89229398D01*
X136314429Y-89227478D01*
X136361600Y-89139226D01*
X136361601Y-89139225D01*
X136390649Y-89043467D01*
X136398000Y-88968829D01*
X136398000Y-88968827D01*
X136400457Y-88943883D01*
X136398000Y-88918939D01*
X136398000Y-87332736D01*
X136739575Y-86991161D01*
X136758958Y-86975254D01*
X136822439Y-86897901D01*
X136869611Y-86809649D01*
X136898659Y-86713891D01*
X136906010Y-86639253D01*
X136906010Y-86639250D01*
X136908467Y-86614306D01*
X136906010Y-86589362D01*
X136906010Y-85344010D01*
X144512552Y-85344010D01*
X144537496Y-85346467D01*
X144562440Y-85344010D01*
X144562443Y-85344010D01*
X144577154Y-85342561D01*
X144708831Y-85368753D01*
X144862675Y-85368753D01*
X145013562Y-85338740D01*
X145155695Y-85279866D01*
X145283612Y-85194395D01*
X145392395Y-85085612D01*
X145477866Y-84957695D01*
X145536740Y-84815562D01*
X145566753Y-84664675D01*
X145566753Y-84510831D01*
X145536740Y-84359944D01*
X145477866Y-84217811D01*
X145392395Y-84089894D01*
X145332362Y-84029861D01*
X145366361Y-84007144D01*
X145475144Y-83898361D01*
X145560615Y-83770444D01*
X145619489Y-83628311D01*
X145649502Y-83477424D01*
X145649502Y-83323580D01*
X145619489Y-83172693D01*
X145560615Y-83030560D01*
X145475144Y-82902643D01*
X145366361Y-82793860D01*
X145238444Y-82708389D01*
X145096311Y-82649515D01*
X144945424Y-82619502D01*
X144791580Y-82619502D01*
X144640693Y-82649515D01*
X144498560Y-82708389D01*
X144370643Y-82793860D01*
X144261860Y-82902643D01*
X144242133Y-82932166D01*
X144232336Y-82922369D01*
X144261859Y-82902642D01*
X144370642Y-82793859D01*
X144456113Y-82665942D01*
X144514987Y-82523809D01*
X144545000Y-82372922D01*
X144545000Y-82219078D01*
X144514987Y-82068191D01*
X144456113Y-81926058D01*
X144370642Y-81798141D01*
X144261859Y-81689358D01*
X144133942Y-81603887D01*
X143991809Y-81545013D01*
X143840922Y-81515000D01*
X143687078Y-81515000D01*
X143536191Y-81545013D01*
X143394058Y-81603887D01*
X143266141Y-81689358D01*
X143157358Y-81798141D01*
X143071887Y-81926058D01*
X143048948Y-81981437D01*
X142969256Y-81901745D01*
X142991859Y-81886642D01*
X143100642Y-81777859D01*
X143186113Y-81649942D01*
X143244987Y-81507809D01*
X143275000Y-81356922D01*
X143275000Y-81203078D01*
X143244987Y-81052191D01*
X143186113Y-80910058D01*
X143100642Y-80782141D01*
X142991859Y-80673358D01*
X142863942Y-80587887D01*
X142721809Y-80529013D01*
X142570922Y-80499000D01*
X142417078Y-80499000D01*
X142266191Y-80529013D01*
X142124058Y-80587887D01*
X141996141Y-80673358D01*
X141887358Y-80782141D01*
X141801887Y-80910058D01*
X141743013Y-81052191D01*
X141713000Y-81203078D01*
X141713000Y-81342580D01*
X141267610Y-81787970D01*
X137029258Y-81787970D01*
X136906000Y-81664712D01*
X136906000Y-78213062D01*
X136908457Y-78188118D01*
X136905359Y-78156665D01*
X136898649Y-78088533D01*
X136869601Y-77992775D01*
X136822429Y-77904523D01*
X136758948Y-77827170D01*
X136739565Y-77811263D01*
X135587736Y-76659434D01*
X135571829Y-76640051D01*
X135494476Y-76576570D01*
X135482649Y-76570248D01*
X135576180Y-76476717D01*
X135710898Y-76275097D01*
X135803693Y-76051069D01*
X135851000Y-75813243D01*
X135851000Y-75570757D01*
X135803693Y-75332931D01*
X135710898Y-75108903D01*
X135576180Y-74907283D01*
X135404717Y-74735820D01*
X135203097Y-74601102D01*
X134979069Y-74508307D01*
X134741243Y-74461000D01*
X134498757Y-74461000D01*
X134260931Y-74508307D01*
X134036903Y-74601102D01*
X133835283Y-74735820D01*
X133663820Y-74907283D01*
X133529102Y-75108903D01*
X133436307Y-75332931D01*
X133389000Y-75570757D01*
X133389000Y-75813243D01*
X133436307Y-76051069D01*
X133529102Y-76275097D01*
X133663820Y-76476717D01*
X133680102Y-76492999D01*
X133599420Y-76492999D01*
X133232587Y-76126166D01*
X133263693Y-76051069D01*
X133311000Y-75813243D01*
X133311000Y-75570757D01*
X133263693Y-75332931D01*
X133170898Y-75108903D01*
X133036180Y-74907283D01*
X132864717Y-74735820D01*
X132663097Y-74601102D01*
X132439069Y-74508307D01*
X132201243Y-74461000D01*
X131958757Y-74461000D01*
X131720931Y-74508307D01*
X131496903Y-74601102D01*
X131295283Y-74735820D01*
X131123820Y-74907283D01*
X130989102Y-75108903D01*
X130896307Y-75332931D01*
X130849000Y-75570757D01*
X130849000Y-75813243D01*
X130896307Y-76051069D01*
X130989102Y-76275097D01*
X131123820Y-76476717D01*
X131295283Y-76648180D01*
X131496903Y-76782898D01*
X131720931Y-76875693D01*
X131958757Y-76923000D01*
X132201243Y-76923000D01*
X132439069Y-76875693D01*
X132514166Y-76844587D01*
X133012148Y-77342569D01*
X133028051Y-77361947D01*
X133047428Y-77377849D01*
X133105403Y-77425428D01*
X133169739Y-77459816D01*
X133193656Y-77472600D01*
X133289414Y-77501648D01*
X133364052Y-77508999D01*
X133364054Y-77508999D01*
X133388998Y-77511456D01*
X133413942Y-77508999D01*
X133622583Y-77508999D01*
X133529102Y-77648903D01*
X133436307Y-77872931D01*
X133389000Y-78110757D01*
X133389000Y-78353243D01*
X133436307Y-78591069D01*
X133529102Y-78815097D01*
X133663820Y-79016717D01*
X133680102Y-79032999D01*
X133599420Y-79032999D01*
X133232587Y-78666166D01*
X133263693Y-78591069D01*
X133311000Y-78353243D01*
X133311000Y-78110757D01*
X133263693Y-77872931D01*
X133170898Y-77648903D01*
X133036180Y-77447283D01*
X132864717Y-77275820D01*
X132663097Y-77141102D01*
X132439069Y-77048307D01*
X132201243Y-77001000D01*
X131958757Y-77001000D01*
X131720931Y-77048307D01*
X131496903Y-77141102D01*
X131295283Y-77275820D01*
X131123820Y-77447283D01*
X130989102Y-77648903D01*
X130896307Y-77872931D01*
X130849000Y-78110757D01*
X130849000Y-78353243D01*
X130896307Y-78591069D01*
X130989102Y-78815097D01*
X131123820Y-79016717D01*
X131295283Y-79188180D01*
X131496903Y-79322898D01*
X131720931Y-79415693D01*
X131958757Y-79463000D01*
X132201243Y-79463000D01*
X132439069Y-79415693D01*
X132514166Y-79384587D01*
X133012148Y-79882569D01*
X133028051Y-79901947D01*
X133047428Y-79917849D01*
X133105403Y-79965428D01*
X133158190Y-79993643D01*
X133193656Y-80012600D01*
X133289414Y-80041648D01*
X133364052Y-80048999D01*
X133364054Y-80048999D01*
X133388998Y-80051456D01*
X133413942Y-80048999D01*
X133622583Y-80048999D01*
X133529102Y-80188903D01*
X133436307Y-80412931D01*
X133389000Y-80650757D01*
X133389000Y-80893243D01*
X133436307Y-81131069D01*
X133529102Y-81355097D01*
X133622583Y-81495001D01*
X133521422Y-81495001D01*
X133232587Y-81206166D01*
X133263693Y-81131069D01*
X133311000Y-80893243D01*
X133311000Y-80650757D01*
X133263693Y-80412931D01*
X133170898Y-80188903D01*
X133036180Y-79987283D01*
X132864717Y-79815820D01*
X132663097Y-79681102D01*
X132439069Y-79588307D01*
X132201243Y-79541000D01*
X131958757Y-79541000D01*
X131720931Y-79588307D01*
X131496903Y-79681102D01*
X131295283Y-79815820D01*
X131123820Y-79987283D01*
X130989102Y-80188903D01*
X130896307Y-80412931D01*
X130849000Y-80650757D01*
X130849000Y-80893243D01*
X130896307Y-81131069D01*
X130989102Y-81355097D01*
X131123820Y-81556717D01*
X131295283Y-81728180D01*
X131496903Y-81862898D01*
X131720931Y-81955693D01*
X131958757Y-82003000D01*
X132201243Y-82003000D01*
X132439069Y-81955693D01*
X132514166Y-81924587D01*
X132934150Y-82344571D01*
X132950053Y-82363949D01*
X132969430Y-82379851D01*
X133027405Y-82427430D01*
X133115656Y-82474601D01*
X133115658Y-82474602D01*
X133211416Y-82503650D01*
X133286054Y-82511001D01*
X133286056Y-82511001D01*
X133311000Y-82513458D01*
X133335944Y-82511001D01*
X133680102Y-82511001D01*
X133663820Y-82527283D01*
X133529102Y-82728903D01*
X133436307Y-82952931D01*
X133389000Y-83190757D01*
X133389000Y-83433243D01*
X133436307Y-83671069D01*
X133529102Y-83895097D01*
X133663820Y-84096717D01*
X133680102Y-84112999D01*
X133599420Y-84112999D01*
X133232587Y-83746166D01*
X133263693Y-83671069D01*
X133311000Y-83433243D01*
X133311000Y-83190757D01*
X133263693Y-82952931D01*
X133170898Y-82728903D01*
X133036180Y-82527283D01*
X132864717Y-82355820D01*
X132663097Y-82221102D01*
X132439069Y-82128307D01*
X132201243Y-82081000D01*
X131958757Y-82081000D01*
X131720931Y-82128307D01*
X131496903Y-82221102D01*
X131295283Y-82355820D01*
X131123820Y-82527283D01*
X130989102Y-82728903D01*
X130896307Y-82952931D01*
X130849000Y-83190757D01*
X130849000Y-83433243D01*
X130896307Y-83671069D01*
X130989102Y-83895097D01*
X131123820Y-84096717D01*
X131295283Y-84268180D01*
X131496903Y-84402898D01*
X131720931Y-84495693D01*
X131958757Y-84543000D01*
X132201243Y-84543000D01*
X132439069Y-84495693D01*
X132514166Y-84464587D01*
X133012149Y-84962570D01*
X133028051Y-84981947D01*
X133047428Y-84997849D01*
X133105403Y-85045428D01*
X133180582Y-85085612D01*
X133193656Y-85092600D01*
X133289414Y-85121648D01*
X133364052Y-85128999D01*
X133364054Y-85128999D01*
X133388998Y-85131456D01*
X133413942Y-85128999D01*
X133622583Y-85128999D01*
X133529102Y-85268903D01*
X133436307Y-85492931D01*
X133389000Y-85730757D01*
X133389000Y-85973243D01*
X133436307Y-86211069D01*
X133529102Y-86435097D01*
X133622583Y-86575001D01*
X133521422Y-86575001D01*
X133232587Y-86286166D01*
X133263693Y-86211069D01*
X133311000Y-85973243D01*
X133311000Y-85730757D01*
X133263693Y-85492931D01*
X133170898Y-85268903D01*
X133036180Y-85067283D01*
X132864717Y-84895820D01*
X132663097Y-84761102D01*
X132439069Y-84668307D01*
X132201243Y-84621000D01*
X131958757Y-84621000D01*
X131720931Y-84668307D01*
X131496903Y-84761102D01*
X131295283Y-84895820D01*
X131123820Y-85067283D01*
X130989102Y-85268903D01*
X130896307Y-85492931D01*
X130849000Y-85730757D01*
X130849000Y-85973243D01*
X130896307Y-86211069D01*
X130989102Y-86435097D01*
X131123820Y-86636717D01*
X131295283Y-86808180D01*
X131496903Y-86942898D01*
X131720931Y-87035693D01*
X131958757Y-87083000D01*
X132201243Y-87083000D01*
X132439069Y-87035693D01*
X132514166Y-87004587D01*
X132934151Y-87424572D01*
X132950053Y-87443949D01*
X132969430Y-87459851D01*
X133027405Y-87507430D01*
X133115656Y-87554601D01*
X133115658Y-87554602D01*
X133211416Y-87583650D01*
X133286054Y-87591001D01*
X133286056Y-87591001D01*
X133311000Y-87593458D01*
X133335944Y-87591001D01*
X133680102Y-87591001D01*
X133663820Y-87607283D01*
X133529102Y-87808903D01*
X133436307Y-88032931D01*
X133389000Y-88270757D01*
X133389000Y-88513243D01*
X133436307Y-88751069D01*
X133529102Y-88975097D01*
X133663820Y-89176717D01*
X133680102Y-89192999D01*
X133599420Y-89192999D01*
X133232587Y-88826166D01*
X133263693Y-88751069D01*
X133311000Y-88513243D01*
X133311000Y-88270757D01*
X133263693Y-88032931D01*
X133170898Y-87808903D01*
X133036180Y-87607283D01*
X132864717Y-87435820D01*
X132663097Y-87301102D01*
X132439069Y-87208307D01*
X132201243Y-87161000D01*
X131958757Y-87161000D01*
X131720931Y-87208307D01*
X131496903Y-87301102D01*
X131295283Y-87435820D01*
X131123820Y-87607283D01*
X130989102Y-87808903D01*
X130896307Y-88032931D01*
X130849000Y-88270757D01*
X130849000Y-88513243D01*
X130896307Y-88751069D01*
X130989102Y-88975097D01*
X131123820Y-89176717D01*
X131295283Y-89348180D01*
X131496903Y-89482898D01*
X131611168Y-89530228D01*
X131448748Y-89587843D01*
X131198645Y-89736822D01*
X130982412Y-89931731D01*
X130808359Y-90165080D01*
X130683175Y-90427901D01*
X130638524Y-90575110D01*
X127431000Y-90575110D01*
X127431000Y-68922000D01*
X130591928Y-68922000D01*
X130604188Y-69046482D01*
X130640498Y-69166180D01*
X130699463Y-69276494D01*
X130778815Y-69373185D01*
X130875506Y-69452537D01*
X130985820Y-69511502D01*
X131105518Y-69547812D01*
X131230000Y-69560072D01*
X131440294Y-69558927D01*
X131295283Y-69655820D01*
X131123820Y-69827283D01*
X130989102Y-70028903D01*
X130896307Y-70252931D01*
X130849000Y-70490757D01*
X130849000Y-70733243D01*
X130896307Y-70971069D01*
X130989102Y-71195097D01*
X131123820Y-71396717D01*
X131295283Y-71568180D01*
X131496903Y-71702898D01*
X131720931Y-71795693D01*
X131958757Y-71843000D01*
X132201243Y-71843000D01*
X132439069Y-71795693D01*
X132663097Y-71702898D01*
X132864717Y-71568180D01*
X133036180Y-71396717D01*
X133170898Y-71195097D01*
X133263693Y-70971069D01*
X133284593Y-70866000D01*
X133364052Y-70866000D01*
X133388999Y-70868457D01*
X133413946Y-70866000D01*
X133415379Y-70865859D01*
X133436307Y-70971069D01*
X133529102Y-71195097D01*
X133663820Y-71396717D01*
X133680102Y-71412999D01*
X133335944Y-71412999D01*
X133311000Y-71410542D01*
X133286056Y-71412999D01*
X133286054Y-71412999D01*
X133211416Y-71420350D01*
X133115658Y-71449398D01*
X133115656Y-71449399D01*
X133027405Y-71496570D01*
X132972811Y-71541375D01*
X132950053Y-71560051D01*
X132934151Y-71579428D01*
X132514166Y-71999413D01*
X132439069Y-71968307D01*
X132201243Y-71921000D01*
X131958757Y-71921000D01*
X131720931Y-71968307D01*
X131496903Y-72061102D01*
X131295283Y-72195820D01*
X131123820Y-72367283D01*
X130989102Y-72568903D01*
X130896307Y-72792931D01*
X130849000Y-73030757D01*
X130849000Y-73273243D01*
X130896307Y-73511069D01*
X130989102Y-73735097D01*
X131123820Y-73936717D01*
X131295283Y-74108180D01*
X131496903Y-74242898D01*
X131720931Y-74335693D01*
X131958757Y-74383000D01*
X132201243Y-74383000D01*
X132439069Y-74335693D01*
X132663097Y-74242898D01*
X132864717Y-74108180D01*
X133036180Y-73936717D01*
X133170898Y-73735097D01*
X133263693Y-73511069D01*
X133311000Y-73273243D01*
X133311000Y-73030757D01*
X133263693Y-72792931D01*
X133232587Y-72717834D01*
X133521422Y-72428999D01*
X133622583Y-72428999D01*
X133529102Y-72568903D01*
X133436307Y-72792931D01*
X133389000Y-73030757D01*
X133389000Y-73273243D01*
X133436307Y-73511069D01*
X133529102Y-73735097D01*
X133663820Y-73936717D01*
X133835283Y-74108180D01*
X134036903Y-74242898D01*
X134260931Y-74335693D01*
X134498757Y-74383000D01*
X134741243Y-74383000D01*
X134979069Y-74335693D01*
X135203097Y-74242898D01*
X135404717Y-74108180D01*
X135576180Y-73936717D01*
X135710898Y-73735097D01*
X135803693Y-73511069D01*
X135851000Y-73273243D01*
X135851000Y-73030757D01*
X135803693Y-72792931D01*
X135710898Y-72568903D01*
X135617417Y-72428999D01*
X150196579Y-72428999D01*
X150349000Y-72581420D01*
X150349000Y-72720922D01*
X150379013Y-72871809D01*
X150437887Y-73013942D01*
X150523358Y-73141859D01*
X150632141Y-73250642D01*
X150760058Y-73336113D01*
X150902191Y-73394987D01*
X150941847Y-73402875D01*
X150933655Y-73444060D01*
X150933655Y-73597904D01*
X150963668Y-73748791D01*
X151022542Y-73890924D01*
X151108013Y-74018841D01*
X151216796Y-74127624D01*
X151344713Y-74213095D01*
X151486846Y-74271969D01*
X151637733Y-74301982D01*
X151791577Y-74301982D01*
X151942464Y-74271969D01*
X152084597Y-74213095D01*
X152212514Y-74127624D01*
X152321297Y-74018841D01*
X152406768Y-73890924D01*
X152465642Y-73748791D01*
X152495655Y-73597904D01*
X152495655Y-73444060D01*
X152465642Y-73293173D01*
X152419001Y-73180573D01*
X152419001Y-72540501D01*
X168080106Y-72540501D01*
X169748000Y-74208395D01*
X171415894Y-72540501D01*
X171199772Y-72173742D01*
X170739895Y-71933062D01*
X170241902Y-71786725D01*
X169724929Y-71740352D01*
X169208841Y-71795727D01*
X168713474Y-71950721D01*
X168296228Y-72173742D01*
X168080106Y-72540501D01*
X152419001Y-72540501D01*
X152419001Y-72294062D01*
X152421458Y-72269118D01*
X152415103Y-72204595D01*
X152411650Y-72169534D01*
X152382602Y-72073776D01*
X152354170Y-72020583D01*
X152335430Y-71985523D01*
X152287851Y-71927548D01*
X152271949Y-71908171D01*
X152252572Y-71892269D01*
X151392737Y-71032435D01*
X151376830Y-71013052D01*
X151299477Y-70949571D01*
X151211225Y-70902399D01*
X151115467Y-70873351D01*
X151040829Y-70866000D01*
X151040826Y-70866000D01*
X151015882Y-70863543D01*
X150990938Y-70866000D01*
X137414303Y-70866000D01*
X135587736Y-69039434D01*
X135571829Y-69020051D01*
X135494476Y-68956570D01*
X135482649Y-68950248D01*
X135576180Y-68856717D01*
X135676218Y-68707000D01*
X170204897Y-68707000D01*
X170468503Y-68970607D01*
X170468514Y-68970616D01*
X176520777Y-75022881D01*
X173668062Y-75022881D01*
X173643118Y-75020424D01*
X173618174Y-75022881D01*
X173618172Y-75022881D01*
X173543534Y-75030232D01*
X173447776Y-75059280D01*
X173447774Y-75059281D01*
X173359523Y-75106452D01*
X173349043Y-75115053D01*
X173282171Y-75169933D01*
X173266269Y-75189310D01*
X170985591Y-77469989D01*
X146870291Y-77469989D01*
X145635801Y-76235499D01*
X168080106Y-76235499D01*
X168296228Y-76602258D01*
X168756105Y-76842938D01*
X169254098Y-76989275D01*
X169771071Y-77035648D01*
X170287159Y-76980273D01*
X170782526Y-76825279D01*
X171199772Y-76602258D01*
X171415894Y-76235499D01*
X169748000Y-74567605D01*
X168080106Y-76235499D01*
X145635801Y-76235499D01*
X143811373Y-74411071D01*
X167100352Y-74411071D01*
X167155727Y-74927159D01*
X167310721Y-75422526D01*
X167533742Y-75839772D01*
X167900501Y-76055894D01*
X169568395Y-74388000D01*
X169927605Y-74388000D01*
X171595499Y-76055894D01*
X171962258Y-75839772D01*
X172202938Y-75379895D01*
X172349275Y-74881902D01*
X172395648Y-74364929D01*
X172340273Y-73848841D01*
X172185279Y-73353474D01*
X171962258Y-72936228D01*
X171595499Y-72720106D01*
X169927605Y-74388000D01*
X169568395Y-74388000D01*
X167900501Y-72720106D01*
X167533742Y-72936228D01*
X167293062Y-73396105D01*
X167146725Y-73894098D01*
X167100352Y-74411071D01*
X143811373Y-74411071D01*
X143753737Y-74353435D01*
X143737830Y-74334052D01*
X143660477Y-74270571D01*
X143572225Y-74223399D01*
X143476467Y-74194351D01*
X143401829Y-74187000D01*
X143401826Y-74187000D01*
X143376882Y-74184543D01*
X143351938Y-74187000D01*
X142836501Y-74187000D01*
X142737859Y-74088358D01*
X142609942Y-74002887D01*
X142467809Y-73944013D01*
X142316922Y-73914000D01*
X142163078Y-73914000D01*
X142012191Y-73944013D01*
X141870058Y-74002887D01*
X141742141Y-74088358D01*
X141633358Y-74197141D01*
X141547887Y-74325058D01*
X141489013Y-74467191D01*
X141459000Y-74618078D01*
X141459000Y-74771922D01*
X141489013Y-74922809D01*
X141547887Y-75064942D01*
X141633358Y-75192859D01*
X141742141Y-75301642D01*
X141870058Y-75387113D01*
X142012191Y-75445987D01*
X142163078Y-75476000D01*
X142221000Y-75476000D01*
X142221000Y-75552922D01*
X142251013Y-75703809D01*
X142309887Y-75845942D01*
X142395358Y-75973859D01*
X142504141Y-76082642D01*
X142632058Y-76168113D01*
X142774191Y-76226987D01*
X142925078Y-76257000D01*
X143064580Y-76257000D01*
X145635145Y-78827565D01*
X145651052Y-78846948D01*
X145728405Y-78910429D01*
X145816657Y-78957601D01*
X145912415Y-78986649D01*
X145987053Y-78994000D01*
X145987056Y-78994000D01*
X146012000Y-78996457D01*
X146036944Y-78994000D01*
X155590000Y-78994000D01*
X155590000Y-79051868D01*
X155589349Y-79055399D01*
X155590000Y-79101761D01*
X155590000Y-79123246D01*
X155590352Y-79126818D01*
X155590402Y-79130390D01*
X155592798Y-79151652D01*
X155597351Y-79197884D01*
X155598394Y-79201323D01*
X155598723Y-79204242D01*
X155600078Y-79236415D01*
X155610209Y-79278098D01*
X155619172Y-79320072D01*
X155631913Y-79349650D01*
X155642335Y-79379436D01*
X155650817Y-79410508D01*
X155669978Y-79448907D01*
X155688048Y-79487817D01*
X155707048Y-79513815D01*
X155723843Y-79540544D01*
X155739022Y-79568942D01*
X155766248Y-79602117D01*
X155792524Y-79636030D01*
X155816826Y-79657142D01*
X155839159Y-79679475D01*
X155860271Y-79703777D01*
X155894184Y-79730053D01*
X155927359Y-79757279D01*
X155955758Y-79772459D01*
X155982486Y-79789253D01*
X156008484Y-79808253D01*
X156047400Y-79826326D01*
X156085794Y-79845484D01*
X156116862Y-79853965D01*
X156146653Y-79864389D01*
X156176235Y-79877131D01*
X156218208Y-79886093D01*
X156259886Y-79896223D01*
X156292059Y-79897578D01*
X156323431Y-79901112D01*
X156355091Y-79906950D01*
X156397999Y-79906349D01*
X156440908Y-79906950D01*
X156472568Y-79901112D01*
X156503940Y-79897578D01*
X156536115Y-79896223D01*
X156577800Y-79886091D01*
X156619765Y-79877131D01*
X156649343Y-79864391D01*
X156679136Y-79853966D01*
X156710208Y-79845484D01*
X156748607Y-79826323D01*
X156787517Y-79808253D01*
X156813515Y-79789253D01*
X156840244Y-79772458D01*
X156868642Y-79757279D01*
X156901817Y-79730053D01*
X156935730Y-79703777D01*
X156956842Y-79679475D01*
X156979175Y-79657142D01*
X156998001Y-79640788D01*
X157016826Y-79657142D01*
X157039159Y-79679475D01*
X157060271Y-79703777D01*
X157094184Y-79730053D01*
X157127359Y-79757279D01*
X157155758Y-79772459D01*
X157182486Y-79789253D01*
X157208484Y-79808253D01*
X157247400Y-79826326D01*
X157285794Y-79845484D01*
X157316862Y-79853965D01*
X157346653Y-79864389D01*
X157376235Y-79877131D01*
X157418208Y-79886093D01*
X157459886Y-79896223D01*
X157492059Y-79897578D01*
X157523431Y-79901112D01*
X157555091Y-79906950D01*
X157597999Y-79906349D01*
X157640908Y-79906950D01*
X157672568Y-79901112D01*
X157703940Y-79897578D01*
X157736115Y-79896223D01*
X157777800Y-79886091D01*
X157819765Y-79877131D01*
X157849343Y-79864391D01*
X157879136Y-79853966D01*
X157910208Y-79845484D01*
X157948607Y-79826323D01*
X157987517Y-79808253D01*
X158013515Y-79789253D01*
X158040244Y-79772458D01*
X158068642Y-79757279D01*
X158101817Y-79730053D01*
X158135730Y-79703777D01*
X158156842Y-79679475D01*
X158179175Y-79657142D01*
X158198001Y-79640788D01*
X158216826Y-79657142D01*
X158239159Y-79679475D01*
X158260271Y-79703777D01*
X158294184Y-79730053D01*
X158327359Y-79757279D01*
X158355758Y-79772459D01*
X158382486Y-79789253D01*
X158408484Y-79808253D01*
X158447400Y-79826326D01*
X158485794Y-79845484D01*
X158516862Y-79853965D01*
X158546653Y-79864389D01*
X158576235Y-79877131D01*
X158618208Y-79886093D01*
X158659886Y-79896223D01*
X158692059Y-79897578D01*
X158723431Y-79901112D01*
X158755091Y-79906950D01*
X158797999Y-79906349D01*
X158840908Y-79906950D01*
X158872568Y-79901112D01*
X158903940Y-79897578D01*
X158936115Y-79896223D01*
X158977800Y-79886091D01*
X159019765Y-79877131D01*
X159049343Y-79864391D01*
X159079136Y-79853966D01*
X159110208Y-79845484D01*
X159148607Y-79826323D01*
X159187517Y-79808253D01*
X159213515Y-79789253D01*
X159240244Y-79772458D01*
X159268642Y-79757279D01*
X159301817Y-79730053D01*
X159335730Y-79703777D01*
X159356842Y-79679475D01*
X159379175Y-79657142D01*
X159398001Y-79640788D01*
X159416826Y-79657142D01*
X159439159Y-79679475D01*
X159460271Y-79703777D01*
X159494184Y-79730053D01*
X159527359Y-79757279D01*
X159555758Y-79772459D01*
X159582486Y-79789253D01*
X159608484Y-79808253D01*
X159647400Y-79826326D01*
X159685794Y-79845484D01*
X159716862Y-79853965D01*
X159746653Y-79864389D01*
X159776235Y-79877131D01*
X159818208Y-79886093D01*
X159859886Y-79896223D01*
X159892059Y-79897578D01*
X159923431Y-79901112D01*
X159955091Y-79906950D01*
X159997999Y-79906349D01*
X160040908Y-79906950D01*
X160072568Y-79901112D01*
X160103940Y-79897578D01*
X160136115Y-79896223D01*
X160177800Y-79886091D01*
X160219765Y-79877131D01*
X160249343Y-79864391D01*
X160279136Y-79853966D01*
X160310208Y-79845484D01*
X160348607Y-79826323D01*
X160387517Y-79808253D01*
X160413515Y-79789253D01*
X160440244Y-79772458D01*
X160468642Y-79757279D01*
X160501817Y-79730053D01*
X160535730Y-79703777D01*
X160556842Y-79679475D01*
X160579175Y-79657142D01*
X160598001Y-79640788D01*
X160616826Y-79657142D01*
X160639159Y-79679475D01*
X160660271Y-79703777D01*
X160694184Y-79730053D01*
X160727359Y-79757279D01*
X160755758Y-79772459D01*
X160782486Y-79789253D01*
X160808484Y-79808253D01*
X160847400Y-79826326D01*
X160885794Y-79845484D01*
X160916862Y-79853965D01*
X160946653Y-79864389D01*
X160976235Y-79877131D01*
X161018208Y-79886093D01*
X161059886Y-79896223D01*
X161092059Y-79897578D01*
X161123431Y-79901112D01*
X161155091Y-79906950D01*
X161197999Y-79906349D01*
X161240908Y-79906950D01*
X161272568Y-79901112D01*
X161303940Y-79897578D01*
X161336115Y-79896223D01*
X161377800Y-79886091D01*
X161419765Y-79877131D01*
X161449343Y-79864391D01*
X161479136Y-79853966D01*
X161510208Y-79845484D01*
X161548607Y-79826323D01*
X161587517Y-79808253D01*
X161613515Y-79789253D01*
X161640244Y-79772458D01*
X161668642Y-79757279D01*
X161701817Y-79730053D01*
X161735730Y-79703777D01*
X161756842Y-79679475D01*
X161779175Y-79657142D01*
X161803477Y-79636030D01*
X161829753Y-79602117D01*
X161856979Y-79568942D01*
X161872159Y-79540543D01*
X161888953Y-79513815D01*
X161907953Y-79487817D01*
X161926026Y-79448901D01*
X161945184Y-79410507D01*
X161953665Y-79379439D01*
X161964091Y-79349643D01*
X161976831Y-79320065D01*
X161985791Y-79278100D01*
X161995923Y-79236415D01*
X161997278Y-79204240D01*
X161997607Y-79201319D01*
X161998649Y-79197884D01*
X162003200Y-79151680D01*
X162005599Y-79130383D01*
X162005649Y-79126809D01*
X162006000Y-79123246D01*
X162006000Y-79101771D01*
X162006650Y-79055392D01*
X162006000Y-79051867D01*
X162006000Y-78994000D01*
X166233975Y-78994000D01*
X155783050Y-89444926D01*
X155758815Y-89464815D01*
X155679463Y-89561507D01*
X155620498Y-89671821D01*
X155584188Y-89791519D01*
X155575000Y-89884809D01*
X155575000Y-89884819D01*
X155571929Y-89916000D01*
X155575000Y-89947181D01*
X155575001Y-92000581D01*
X155517887Y-92086058D01*
X155459013Y-92228191D01*
X155429000Y-92379078D01*
X155429000Y-92532922D01*
X155459013Y-92683809D01*
X155517887Y-92825942D01*
X155575000Y-92911418D01*
X155575001Y-99615000D01*
X146805418Y-99615000D01*
X146719942Y-99557887D01*
X146577809Y-99499013D01*
X146426922Y-99469000D01*
X146273078Y-99469000D01*
X146122191Y-99499013D01*
X145980058Y-99557887D01*
X145894582Y-99615000D01*
X136805418Y-99615000D01*
X136719942Y-99557887D01*
X136577809Y-99499013D01*
X136426922Y-99469000D01*
X136273078Y-99469000D01*
X136122191Y-99499013D01*
X135980058Y-99557887D01*
X135852141Y-99643358D01*
X135743358Y-99752141D01*
X135657887Y-99880058D01*
X135599013Y-100022191D01*
X135569000Y-100173078D01*
X135569000Y-100326922D01*
X135599013Y-100477809D01*
X135657887Y-100619942D01*
X135743358Y-100747859D01*
X135852141Y-100856642D01*
X135980058Y-100942113D01*
X136122191Y-101000987D01*
X136273078Y-101031000D01*
X136426922Y-101031000D01*
X136577809Y-101000987D01*
X136719942Y-100942113D01*
X136805418Y-100885000D01*
X145894582Y-100885000D01*
X145980058Y-100942113D01*
X146122191Y-101000987D01*
X146273078Y-101031000D01*
X146426922Y-101031000D01*
X146577809Y-101000987D01*
X146719942Y-100942113D01*
X146805418Y-100885000D01*
X155894582Y-100885000D01*
X155980058Y-100942113D01*
X156122191Y-101000987D01*
X156273078Y-101031000D01*
X156426922Y-101031000D01*
X156577809Y-101000987D01*
X156719942Y-100942113D01*
X156805418Y-100885000D01*
X165894582Y-100885000D01*
X165980058Y-100942113D01*
X166122191Y-101000987D01*
X166273078Y-101031000D01*
X166426922Y-101031000D01*
X166577809Y-101000987D01*
X166719942Y-100942113D01*
X166805418Y-100885000D01*
X175894582Y-100885000D01*
X175980058Y-100942113D01*
X176122191Y-101000987D01*
X176273078Y-101031000D01*
X176426922Y-101031000D01*
X176577809Y-101000987D01*
X176719942Y-100942113D01*
X176805418Y-100885000D01*
X185894582Y-100885000D01*
X185980058Y-100942113D01*
X186122191Y-101000987D01*
X186273078Y-101031000D01*
X186426922Y-101031000D01*
X186577809Y-101000987D01*
X186719942Y-100942113D01*
X186805418Y-100885000D01*
X195894582Y-100885000D01*
X195980058Y-100942113D01*
X196122191Y-101000987D01*
X196273078Y-101031000D01*
X196426922Y-101031000D01*
X196577809Y-101000987D01*
X196719942Y-100942113D01*
X196805418Y-100885000D01*
X205894582Y-100885000D01*
X205980058Y-100942113D01*
X206122191Y-101000987D01*
X206273078Y-101031000D01*
X206426922Y-101031000D01*
X206577809Y-101000987D01*
X206719942Y-100942113D01*
X206847859Y-100856642D01*
X206956642Y-100747859D01*
X207042113Y-100619942D01*
X207100987Y-100477809D01*
X207131000Y-100326922D01*
X207131000Y-100173078D01*
X207100987Y-100022191D01*
X207042113Y-99880058D01*
X206956642Y-99752141D01*
X206847859Y-99643358D01*
X206719942Y-99557887D01*
X206577809Y-99499013D01*
X206426922Y-99469000D01*
X206273078Y-99469000D01*
X206122191Y-99499013D01*
X205980058Y-99557887D01*
X205894582Y-99615000D01*
X196805418Y-99615000D01*
X196719942Y-99557887D01*
X196577809Y-99499013D01*
X196426922Y-99469000D01*
X196273078Y-99469000D01*
X196122191Y-99499013D01*
X195980058Y-99557887D01*
X195894582Y-99615000D01*
X186805418Y-99615000D01*
X186719942Y-99557887D01*
X186577809Y-99499013D01*
X186426922Y-99469000D01*
X186273078Y-99469000D01*
X186122191Y-99499013D01*
X185980058Y-99557887D01*
X185894582Y-99615000D01*
X176805418Y-99615000D01*
X176719942Y-99557887D01*
X176577809Y-99499013D01*
X176426922Y-99469000D01*
X176273078Y-99469000D01*
X176122191Y-99499013D01*
X175980058Y-99557887D01*
X175894582Y-99615000D01*
X166805418Y-99615000D01*
X166719942Y-99557887D01*
X166577809Y-99499013D01*
X166426922Y-99469000D01*
X166273078Y-99469000D01*
X166122191Y-99499013D01*
X165980058Y-99557887D01*
X165894582Y-99615000D01*
X156845000Y-99615000D01*
X156845000Y-92911418D01*
X156902113Y-92825942D01*
X156960987Y-92683809D01*
X156991000Y-92532922D01*
X156991000Y-92379078D01*
X156960987Y-92228191D01*
X156902113Y-92086058D01*
X156845000Y-92000582D01*
X156845000Y-90179024D01*
X167141025Y-79883000D01*
X173315157Y-79883000D01*
X173315157Y-80048000D01*
X173322513Y-80122689D01*
X173344299Y-80194508D01*
X173379678Y-80260696D01*
X173427289Y-80318711D01*
X173485304Y-80366322D01*
X173551492Y-80401701D01*
X173623311Y-80423487D01*
X173698000Y-80430843D01*
X174782818Y-80430843D01*
X175334935Y-80982961D01*
X175354816Y-81007186D01*
X175379040Y-81027066D01*
X175379044Y-81027070D01*
X175451507Y-81086539D01*
X175534817Y-81131069D01*
X175561821Y-81145503D01*
X175681519Y-81181813D01*
X175774809Y-81191001D01*
X175774812Y-81191001D01*
X175806001Y-81194073D01*
X175837190Y-81191001D01*
X177594660Y-81191001D01*
X177625841Y-81194072D01*
X177657022Y-81191001D01*
X177657033Y-81191001D01*
X177750323Y-81181813D01*
X177870021Y-81145503D01*
X177980335Y-81086538D01*
X178077026Y-81007186D01*
X178096915Y-80982951D01*
X179240966Y-79838901D01*
X179265196Y-79819016D01*
X179344548Y-79722325D01*
X179403513Y-79612011D01*
X179439823Y-79492313D01*
X179449011Y-79399023D01*
X179449011Y-79399013D01*
X179452082Y-79367832D01*
X179449011Y-79336651D01*
X179449011Y-76449279D01*
X179452083Y-76418090D01*
X179449011Y-76386898D01*
X179439823Y-76293608D01*
X179422196Y-76235499D01*
X180080106Y-76235499D01*
X180296228Y-76602258D01*
X180756105Y-76842938D01*
X181254098Y-76989275D01*
X181771071Y-77035648D01*
X182287159Y-76980273D01*
X182782526Y-76825279D01*
X183199772Y-76602258D01*
X183415894Y-76235499D01*
X181748000Y-74567605D01*
X180080106Y-76235499D01*
X179422196Y-76235499D01*
X179403513Y-76173910D01*
X179399597Y-76166583D01*
X179344549Y-76063596D01*
X179285080Y-75991133D01*
X179285076Y-75991129D01*
X179265196Y-75966905D01*
X179240973Y-75947026D01*
X177705018Y-74411071D01*
X179100352Y-74411071D01*
X179155727Y-74927159D01*
X179310721Y-75422526D01*
X179533742Y-75839772D01*
X179900501Y-76055894D01*
X181568395Y-74388000D01*
X181927605Y-74388000D01*
X183595499Y-76055894D01*
X183962258Y-75839772D01*
X184202938Y-75379895D01*
X184349275Y-74881902D01*
X184395648Y-74364929D01*
X184340273Y-73848841D01*
X184185279Y-73353474D01*
X183962258Y-72936228D01*
X183595499Y-72720106D01*
X181927605Y-74388000D01*
X181568395Y-74388000D01*
X179900501Y-72720106D01*
X179533742Y-72936228D01*
X179293062Y-73396105D01*
X179146725Y-73894098D01*
X179100352Y-74411071D01*
X177705018Y-74411071D01*
X175834448Y-72540501D01*
X180080106Y-72540501D01*
X181748000Y-74208395D01*
X183415894Y-72540501D01*
X183199772Y-72173742D01*
X182739895Y-71933062D01*
X182241902Y-71786725D01*
X181724929Y-71740352D01*
X181208841Y-71795727D01*
X180713474Y-71950721D01*
X180296228Y-72173742D01*
X180080106Y-72540501D01*
X175834448Y-72540501D01*
X171366538Y-68072592D01*
X171366529Y-68072581D01*
X170938996Y-67645049D01*
X170919107Y-67620815D01*
X170822416Y-67541463D01*
X170712102Y-67482498D01*
X170592404Y-67446188D01*
X170499114Y-67437000D01*
X170499103Y-67437000D01*
X170467922Y-67433929D01*
X170436741Y-67437000D01*
X135676218Y-67437000D01*
X135576180Y-67287283D01*
X135404717Y-67115820D01*
X135203097Y-66981102D01*
X134979069Y-66888307D01*
X134741243Y-66841000D01*
X134498757Y-66841000D01*
X134260931Y-66888307D01*
X134036903Y-66981102D01*
X133835283Y-67115820D01*
X133663820Y-67287283D01*
X133566927Y-67432294D01*
X133568072Y-67222000D01*
X133555812Y-67097518D01*
X133519502Y-66977820D01*
X133460537Y-66867506D01*
X133381185Y-66770815D01*
X133284494Y-66691463D01*
X133174180Y-66632498D01*
X133054482Y-66596188D01*
X132930000Y-66583928D01*
X132365750Y-66587000D01*
X132207000Y-66745750D01*
X132207000Y-67945000D01*
X132227000Y-67945000D01*
X132227000Y-68199000D01*
X132207000Y-68199000D01*
X132207000Y-68219000D01*
X131953000Y-68219000D01*
X131953000Y-68199000D01*
X130753750Y-68199000D01*
X130595000Y-68357750D01*
X130591928Y-68922000D01*
X127431000Y-68922000D01*
X127431000Y-67222000D01*
X130591928Y-67222000D01*
X130595000Y-67786250D01*
X130753750Y-67945000D01*
X131953000Y-67945000D01*
X131953000Y-66745750D01*
X131794250Y-66587000D01*
X131230000Y-66583928D01*
X131105518Y-66596188D01*
X130985820Y-66632498D01*
X130875506Y-66691463D01*
X130778815Y-66770815D01*
X130699463Y-66867506D01*
X130640498Y-66977820D01*
X130604188Y-67097518D01*
X130591928Y-67222000D01*
X127431000Y-67222000D01*
X127431000Y-65310744D01*
X127948000Y-65310744D01*
X127948000Y-65499256D01*
X127984777Y-65684147D01*
X128056917Y-65858310D01*
X128161649Y-66015052D01*
X128294948Y-66148351D01*
X128451690Y-66253083D01*
X128625853Y-66325223D01*
X128810744Y-66362000D01*
X128999256Y-66362000D01*
X129184147Y-66325223D01*
X129358310Y-66253083D01*
X129515052Y-66148351D01*
X129648351Y-66015052D01*
X129753083Y-65858310D01*
X129825223Y-65684147D01*
X129862000Y-65499256D01*
X129862000Y-65310744D01*
X209863000Y-65310744D01*
X209863000Y-65499256D01*
X209899777Y-65684147D01*
X209971917Y-65858310D01*
X210076649Y-66015052D01*
X210209948Y-66148351D01*
X210366690Y-66253083D01*
X210540853Y-66325223D01*
X210725744Y-66362000D01*
X210914256Y-66362000D01*
X211099147Y-66325223D01*
X211273310Y-66253083D01*
X211430052Y-66148351D01*
X211563351Y-66015052D01*
X211668083Y-65858310D01*
X211740223Y-65684147D01*
X211777000Y-65499256D01*
X211777000Y-65310744D01*
X211740223Y-65125853D01*
X211668083Y-64951690D01*
X211563351Y-64794948D01*
X211430052Y-64661649D01*
X211273310Y-64556917D01*
X211099147Y-64484777D01*
X210914256Y-64448000D01*
X210725744Y-64448000D01*
X210540853Y-64484777D01*
X210366690Y-64556917D01*
X210209948Y-64661649D01*
X210076649Y-64794948D01*
X209971917Y-64951690D01*
X209899777Y-65125853D01*
X209863000Y-65310744D01*
X129862000Y-65310744D01*
X129825223Y-65125853D01*
X129753083Y-64951690D01*
X129648351Y-64794948D01*
X129515052Y-64661649D01*
X129358310Y-64556917D01*
X129184147Y-64484777D01*
X128999256Y-64448000D01*
X128810744Y-64448000D01*
X128625853Y-64484777D01*
X128451690Y-64556917D01*
X128294948Y-64661649D01*
X128161649Y-64794948D01*
X128056917Y-64951690D01*
X127984777Y-65125853D01*
X127948000Y-65310744D01*
X127431000Y-65310744D01*
X127431000Y-65108580D01*
X127455053Y-64863270D01*
X127520174Y-64647578D01*
X127625948Y-64448648D01*
X127768349Y-64274046D01*
X127941951Y-64130430D01*
X128140137Y-64023271D01*
X128355369Y-63956646D01*
X128599375Y-63931000D01*
X211116420Y-63931000D01*
X211361730Y-63955053D01*
G37*
%TD.AperFunction*%
D19*
X174691748Y-77233858D02*
X174677605Y-77248000D01*
X174691748Y-77262143D01*
X174512143Y-77441748D01*
X174498000Y-77427605D01*
X174483858Y-77441748D01*
X174304253Y-77262143D01*
X174318395Y-77248000D01*
X174304253Y-77233858D01*
X174483858Y-77054253D01*
X174498000Y-77068395D01*
X174512143Y-77054253D01*
X174691748Y-77233858D01*
%TA.AperFunction,Conductor*%
D20*
G36*
X174691748Y-77233858D02*
G01*
X174677605Y-77248000D01*
X174691748Y-77262143D01*
X174512143Y-77441748D01*
X174498000Y-77427605D01*
X174483858Y-77441748D01*
X174304253Y-77262143D01*
X174318395Y-77248000D01*
X174304253Y-77233858D01*
X174483858Y-77054253D01*
X174498000Y-77068395D01*
X174512143Y-77054253D01*
X174691748Y-77233858D01*
G37*
%TD.AperFunction*%
%TD*%
M02*
