%TF.GenerationSoftware,KiCad,Pcbnew,(5.1.8)-1*%
%TF.CreationDate,2020-11-30T21:01:39-05:00*%
%TF.ProjectId,Relacon,4f666654-7261-46b2-9e6b-696361645f70,1*%
%TF.SameCoordinates,Original*%
%TF.FileFunction,Soldermask,Top*%
%TF.FilePolarity,Negative*%
%FSLAX46Y46*%
G04 Gerber Fmt 4.6, Leading zero omitted, Abs format (unit mm)*
G04 Created by KiCad (PCBNEW (5.1.8)-1) date 2020-11-30 21:01:39*
%MOMM*%
%LPD*%
G01*
G04 APERTURE LIST*
%ADD10C,1.448000*%
%ADD11R,2.600000X2.600000*%
%ADD12C,2.600000*%
%ADD13R,0.800000X1.200000*%
%ADD14R,2.000000X1.500000*%
%ADD15R,2.000000X3.800000*%
%ADD16O,1.700000X1.700000*%
%ADD17R,1.700000X1.700000*%
%ADD18C,4.000000*%
%ADD19C,1.600000*%
%ADD20R,1.600000X1.600000*%
G04 APERTURE END LIST*
D10*
%TO.C,REF\u002A\u002A*%
X128905000Y-65405000D03*
%TD*%
%TO.C,REF\u002A\u002A*%
X210820000Y-65405000D03*
%TD*%
%TO.C,REF\u002A\u002A*%
X210820000Y-115570000D03*
%TD*%
%TO.C,REF\u002A\u002A*%
X128905000Y-115570000D03*
%TD*%
D11*
%TO.C,J3*%
X132350000Y-112750000D03*
D12*
X137350000Y-112750000D03*
X142350000Y-112750000D03*
X147350000Y-112750000D03*
X152350000Y-112750000D03*
X157350000Y-112750000D03*
X162350000Y-112750000D03*
X167350000Y-112750000D03*
X172350000Y-112750000D03*
X177350000Y-112750000D03*
X182350000Y-112750000D03*
X187350000Y-112750000D03*
X192350000Y-112750000D03*
X197350000Y-112750000D03*
X202350000Y-112750000D03*
X207350000Y-112750000D03*
%TD*%
D13*
%TO.C,U11*%
X203580000Y-103250000D03*
X203580000Y-97250000D03*
X206120000Y-97250000D03*
X206120000Y-103250000D03*
%TD*%
%TO.C,U10*%
X193580000Y-103250000D03*
X193580000Y-97250000D03*
X196120000Y-97250000D03*
X196120000Y-103250000D03*
%TD*%
%TO.C,U9*%
X183580000Y-103250000D03*
X183580000Y-97250000D03*
X186120000Y-97250000D03*
X186120000Y-103250000D03*
%TD*%
%TO.C,U8*%
X173580000Y-103250000D03*
X173580000Y-97250000D03*
X176120000Y-97250000D03*
X176120000Y-103250000D03*
%TD*%
%TO.C,U7*%
X163580000Y-103250000D03*
X163580000Y-97250000D03*
X166120000Y-97250000D03*
X166120000Y-103250000D03*
%TD*%
%TO.C,U6*%
X153580000Y-103250000D03*
X153580000Y-97250000D03*
X156120000Y-97250000D03*
X156120000Y-103250000D03*
%TD*%
%TO.C,U5*%
X143580000Y-103250000D03*
X143580000Y-97250000D03*
X146120000Y-97250000D03*
X146120000Y-103250000D03*
%TD*%
%TO.C,U4*%
X133580000Y-103250000D03*
X133580000Y-97250000D03*
X136120000Y-97250000D03*
X136120000Y-103250000D03*
%TD*%
%TO.C,U3*%
G36*
G01*
X169776000Y-91509000D02*
X170076000Y-91509000D01*
G75*
G02*
X170226000Y-91659000I0J-150000D01*
G01*
X170226000Y-93409000D01*
G75*
G02*
X170076000Y-93559000I-150000J0D01*
G01*
X169776000Y-93559000D01*
G75*
G02*
X169626000Y-93409000I0J150000D01*
G01*
X169626000Y-91659000D01*
G75*
G02*
X169776000Y-91509000I150000J0D01*
G01*
G37*
G36*
G01*
X168506000Y-91509000D02*
X168806000Y-91509000D01*
G75*
G02*
X168956000Y-91659000I0J-150000D01*
G01*
X168956000Y-93409000D01*
G75*
G02*
X168806000Y-93559000I-150000J0D01*
G01*
X168506000Y-93559000D01*
G75*
G02*
X168356000Y-93409000I0J150000D01*
G01*
X168356000Y-91659000D01*
G75*
G02*
X168506000Y-91509000I150000J0D01*
G01*
G37*
G36*
G01*
X167236000Y-91509000D02*
X167536000Y-91509000D01*
G75*
G02*
X167686000Y-91659000I0J-150000D01*
G01*
X167686000Y-93409000D01*
G75*
G02*
X167536000Y-93559000I-150000J0D01*
G01*
X167236000Y-93559000D01*
G75*
G02*
X167086000Y-93409000I0J150000D01*
G01*
X167086000Y-91659000D01*
G75*
G02*
X167236000Y-91509000I150000J0D01*
G01*
G37*
G36*
G01*
X165966000Y-91509000D02*
X166266000Y-91509000D01*
G75*
G02*
X166416000Y-91659000I0J-150000D01*
G01*
X166416000Y-93409000D01*
G75*
G02*
X166266000Y-93559000I-150000J0D01*
G01*
X165966000Y-93559000D01*
G75*
G02*
X165816000Y-93409000I0J150000D01*
G01*
X165816000Y-91659000D01*
G75*
G02*
X165966000Y-91509000I150000J0D01*
G01*
G37*
G36*
G01*
X164696000Y-91509000D02*
X164996000Y-91509000D01*
G75*
G02*
X165146000Y-91659000I0J-150000D01*
G01*
X165146000Y-93409000D01*
G75*
G02*
X164996000Y-93559000I-150000J0D01*
G01*
X164696000Y-93559000D01*
G75*
G02*
X164546000Y-93409000I0J150000D01*
G01*
X164546000Y-91659000D01*
G75*
G02*
X164696000Y-91509000I150000J0D01*
G01*
G37*
G36*
G01*
X163426000Y-91509000D02*
X163726000Y-91509000D01*
G75*
G02*
X163876000Y-91659000I0J-150000D01*
G01*
X163876000Y-93409000D01*
G75*
G02*
X163726000Y-93559000I-150000J0D01*
G01*
X163426000Y-93559000D01*
G75*
G02*
X163276000Y-93409000I0J150000D01*
G01*
X163276000Y-91659000D01*
G75*
G02*
X163426000Y-91509000I150000J0D01*
G01*
G37*
G36*
G01*
X162156000Y-91509000D02*
X162456000Y-91509000D01*
G75*
G02*
X162606000Y-91659000I0J-150000D01*
G01*
X162606000Y-93409000D01*
G75*
G02*
X162456000Y-93559000I-150000J0D01*
G01*
X162156000Y-93559000D01*
G75*
G02*
X162006000Y-93409000I0J150000D01*
G01*
X162006000Y-91659000D01*
G75*
G02*
X162156000Y-91509000I150000J0D01*
G01*
G37*
G36*
G01*
X160886000Y-91509000D02*
X161186000Y-91509000D01*
G75*
G02*
X161336000Y-91659000I0J-150000D01*
G01*
X161336000Y-93409000D01*
G75*
G02*
X161186000Y-93559000I-150000J0D01*
G01*
X160886000Y-93559000D01*
G75*
G02*
X160736000Y-93409000I0J150000D01*
G01*
X160736000Y-91659000D01*
G75*
G02*
X160886000Y-91509000I150000J0D01*
G01*
G37*
G36*
G01*
X159616000Y-91509000D02*
X159916000Y-91509000D01*
G75*
G02*
X160066000Y-91659000I0J-150000D01*
G01*
X160066000Y-93409000D01*
G75*
G02*
X159916000Y-93559000I-150000J0D01*
G01*
X159616000Y-93559000D01*
G75*
G02*
X159466000Y-93409000I0J150000D01*
G01*
X159466000Y-91659000D01*
G75*
G02*
X159616000Y-91509000I150000J0D01*
G01*
G37*
G36*
G01*
X159616000Y-82209000D02*
X159916000Y-82209000D01*
G75*
G02*
X160066000Y-82359000I0J-150000D01*
G01*
X160066000Y-84109000D01*
G75*
G02*
X159916000Y-84259000I-150000J0D01*
G01*
X159616000Y-84259000D01*
G75*
G02*
X159466000Y-84109000I0J150000D01*
G01*
X159466000Y-82359000D01*
G75*
G02*
X159616000Y-82209000I150000J0D01*
G01*
G37*
G36*
G01*
X160886000Y-82209000D02*
X161186000Y-82209000D01*
G75*
G02*
X161336000Y-82359000I0J-150000D01*
G01*
X161336000Y-84109000D01*
G75*
G02*
X161186000Y-84259000I-150000J0D01*
G01*
X160886000Y-84259000D01*
G75*
G02*
X160736000Y-84109000I0J150000D01*
G01*
X160736000Y-82359000D01*
G75*
G02*
X160886000Y-82209000I150000J0D01*
G01*
G37*
G36*
G01*
X162156000Y-82209000D02*
X162456000Y-82209000D01*
G75*
G02*
X162606000Y-82359000I0J-150000D01*
G01*
X162606000Y-84109000D01*
G75*
G02*
X162456000Y-84259000I-150000J0D01*
G01*
X162156000Y-84259000D01*
G75*
G02*
X162006000Y-84109000I0J150000D01*
G01*
X162006000Y-82359000D01*
G75*
G02*
X162156000Y-82209000I150000J0D01*
G01*
G37*
G36*
G01*
X163426000Y-82209000D02*
X163726000Y-82209000D01*
G75*
G02*
X163876000Y-82359000I0J-150000D01*
G01*
X163876000Y-84109000D01*
G75*
G02*
X163726000Y-84259000I-150000J0D01*
G01*
X163426000Y-84259000D01*
G75*
G02*
X163276000Y-84109000I0J150000D01*
G01*
X163276000Y-82359000D01*
G75*
G02*
X163426000Y-82209000I150000J0D01*
G01*
G37*
G36*
G01*
X164696000Y-82209000D02*
X164996000Y-82209000D01*
G75*
G02*
X165146000Y-82359000I0J-150000D01*
G01*
X165146000Y-84109000D01*
G75*
G02*
X164996000Y-84259000I-150000J0D01*
G01*
X164696000Y-84259000D01*
G75*
G02*
X164546000Y-84109000I0J150000D01*
G01*
X164546000Y-82359000D01*
G75*
G02*
X164696000Y-82209000I150000J0D01*
G01*
G37*
G36*
G01*
X165966000Y-82209000D02*
X166266000Y-82209000D01*
G75*
G02*
X166416000Y-82359000I0J-150000D01*
G01*
X166416000Y-84109000D01*
G75*
G02*
X166266000Y-84259000I-150000J0D01*
G01*
X165966000Y-84259000D01*
G75*
G02*
X165816000Y-84109000I0J150000D01*
G01*
X165816000Y-82359000D01*
G75*
G02*
X165966000Y-82209000I150000J0D01*
G01*
G37*
G36*
G01*
X167236000Y-82209000D02*
X167536000Y-82209000D01*
G75*
G02*
X167686000Y-82359000I0J-150000D01*
G01*
X167686000Y-84109000D01*
G75*
G02*
X167536000Y-84259000I-150000J0D01*
G01*
X167236000Y-84259000D01*
G75*
G02*
X167086000Y-84109000I0J150000D01*
G01*
X167086000Y-82359000D01*
G75*
G02*
X167236000Y-82209000I150000J0D01*
G01*
G37*
G36*
G01*
X168506000Y-82209000D02*
X168806000Y-82209000D01*
G75*
G02*
X168956000Y-82359000I0J-150000D01*
G01*
X168956000Y-84109000D01*
G75*
G02*
X168806000Y-84259000I-150000J0D01*
G01*
X168506000Y-84259000D01*
G75*
G02*
X168356000Y-84109000I0J150000D01*
G01*
X168356000Y-82359000D01*
G75*
G02*
X168506000Y-82209000I150000J0D01*
G01*
G37*
G36*
G01*
X169776000Y-82209000D02*
X170076000Y-82209000D01*
G75*
G02*
X170226000Y-82359000I0J-150000D01*
G01*
X170226000Y-84109000D01*
G75*
G02*
X170076000Y-84259000I-150000J0D01*
G01*
X169776000Y-84259000D01*
G75*
G02*
X169626000Y-84109000I0J150000D01*
G01*
X169626000Y-82359000D01*
G75*
G02*
X169776000Y-82209000I150000J0D01*
G01*
G37*
%TD*%
D14*
%TO.C,U2*%
X179602000Y-89754000D03*
X179602000Y-85154000D03*
X179602000Y-87454000D03*
D15*
X173302000Y-87454000D03*
%TD*%
%TO.C,U1*%
G36*
G01*
X147904446Y-82976905D02*
X147020563Y-83860788D01*
G75*
G02*
X146843787Y-83860788I-88388J88388D01*
G01*
X146667010Y-83684011D01*
G75*
G02*
X146667010Y-83507235I88388J88388D01*
G01*
X147550893Y-82623352D01*
G75*
G02*
X147727669Y-82623352I88388J-88388D01*
G01*
X147904446Y-82800129D01*
G75*
G02*
X147904446Y-82976905I-88388J-88388D01*
G01*
G37*
G36*
G01*
X147338761Y-82411219D02*
X146454878Y-83295102D01*
G75*
G02*
X146278102Y-83295102I-88388J88388D01*
G01*
X146101325Y-83118325D01*
G75*
G02*
X146101325Y-82941549I88388J88388D01*
G01*
X146985208Y-82057666D01*
G75*
G02*
X147161984Y-82057666I88388J-88388D01*
G01*
X147338761Y-82234443D01*
G75*
G02*
X147338761Y-82411219I-88388J-88388D01*
G01*
G37*
G36*
G01*
X146773075Y-81845534D02*
X145889192Y-82729417D01*
G75*
G02*
X145712416Y-82729417I-88388J88388D01*
G01*
X145535639Y-82552640D01*
G75*
G02*
X145535639Y-82375864I88388J88388D01*
G01*
X146419522Y-81491981D01*
G75*
G02*
X146596298Y-81491981I88388J-88388D01*
G01*
X146773075Y-81668758D01*
G75*
G02*
X146773075Y-81845534I-88388J-88388D01*
G01*
G37*
G36*
G01*
X146207390Y-81279849D02*
X145323507Y-82163732D01*
G75*
G02*
X145146731Y-82163732I-88388J88388D01*
G01*
X144969954Y-81986955D01*
G75*
G02*
X144969954Y-81810179I88388J88388D01*
G01*
X145853837Y-80926296D01*
G75*
G02*
X146030613Y-80926296I88388J-88388D01*
G01*
X146207390Y-81103073D01*
G75*
G02*
X146207390Y-81279849I-88388J-88388D01*
G01*
G37*
G36*
G01*
X145641704Y-80714163D02*
X144757821Y-81598046D01*
G75*
G02*
X144581045Y-81598046I-88388J88388D01*
G01*
X144404268Y-81421269D01*
G75*
G02*
X144404268Y-81244493I88388J88388D01*
G01*
X145288151Y-80360610D01*
G75*
G02*
X145464927Y-80360610I88388J-88388D01*
G01*
X145641704Y-80537387D01*
G75*
G02*
X145641704Y-80714163I-88388J-88388D01*
G01*
G37*
G36*
G01*
X145076019Y-80148478D02*
X144192136Y-81032361D01*
G75*
G02*
X144015360Y-81032361I-88388J88388D01*
G01*
X143838583Y-80855584D01*
G75*
G02*
X143838583Y-80678808I88388J88388D01*
G01*
X144722466Y-79794925D01*
G75*
G02*
X144899242Y-79794925I88388J-88388D01*
G01*
X145076019Y-79971702D01*
G75*
G02*
X145076019Y-80148478I-88388J-88388D01*
G01*
G37*
G36*
G01*
X144510334Y-79582792D02*
X143626451Y-80466675D01*
G75*
G02*
X143449675Y-80466675I-88388J88388D01*
G01*
X143272898Y-80289898D01*
G75*
G02*
X143272898Y-80113122I88388J88388D01*
G01*
X144156781Y-79229239D01*
G75*
G02*
X144333557Y-79229239I88388J-88388D01*
G01*
X144510334Y-79406016D01*
G75*
G02*
X144510334Y-79582792I-88388J-88388D01*
G01*
G37*
G36*
G01*
X143944648Y-79017107D02*
X143060765Y-79900990D01*
G75*
G02*
X142883989Y-79900990I-88388J88388D01*
G01*
X142707212Y-79724213D01*
G75*
G02*
X142707212Y-79547437I88388J88388D01*
G01*
X143591095Y-78663554D01*
G75*
G02*
X143767871Y-78663554I88388J-88388D01*
G01*
X143944648Y-78840331D01*
G75*
G02*
X143944648Y-79017107I-88388J-88388D01*
G01*
G37*
G36*
G01*
X143944648Y-77779669D02*
X143767871Y-77956446D01*
G75*
G02*
X143591095Y-77956446I-88388J88388D01*
G01*
X142707212Y-77072563D01*
G75*
G02*
X142707212Y-76895787I88388J88388D01*
G01*
X142883989Y-76719010D01*
G75*
G02*
X143060765Y-76719010I88388J-88388D01*
G01*
X143944648Y-77602893D01*
G75*
G02*
X143944648Y-77779669I-88388J-88388D01*
G01*
G37*
G36*
G01*
X144510334Y-77213984D02*
X144333557Y-77390761D01*
G75*
G02*
X144156781Y-77390761I-88388J88388D01*
G01*
X143272898Y-76506878D01*
G75*
G02*
X143272898Y-76330102I88388J88388D01*
G01*
X143449675Y-76153325D01*
G75*
G02*
X143626451Y-76153325I88388J-88388D01*
G01*
X144510334Y-77037208D01*
G75*
G02*
X144510334Y-77213984I-88388J-88388D01*
G01*
G37*
G36*
G01*
X145076019Y-76648298D02*
X144899242Y-76825075D01*
G75*
G02*
X144722466Y-76825075I-88388J88388D01*
G01*
X143838583Y-75941192D01*
G75*
G02*
X143838583Y-75764416I88388J88388D01*
G01*
X144015360Y-75587639D01*
G75*
G02*
X144192136Y-75587639I88388J-88388D01*
G01*
X145076019Y-76471522D01*
G75*
G02*
X145076019Y-76648298I-88388J-88388D01*
G01*
G37*
G36*
G01*
X145641704Y-76082613D02*
X145464927Y-76259390D01*
G75*
G02*
X145288151Y-76259390I-88388J88388D01*
G01*
X144404268Y-75375507D01*
G75*
G02*
X144404268Y-75198731I88388J88388D01*
G01*
X144581045Y-75021954D01*
G75*
G02*
X144757821Y-75021954I88388J-88388D01*
G01*
X145641704Y-75905837D01*
G75*
G02*
X145641704Y-76082613I-88388J-88388D01*
G01*
G37*
G36*
G01*
X146207390Y-75516927D02*
X146030613Y-75693704D01*
G75*
G02*
X145853837Y-75693704I-88388J88388D01*
G01*
X144969954Y-74809821D01*
G75*
G02*
X144969954Y-74633045I88388J88388D01*
G01*
X145146731Y-74456268D01*
G75*
G02*
X145323507Y-74456268I88388J-88388D01*
G01*
X146207390Y-75340151D01*
G75*
G02*
X146207390Y-75516927I-88388J-88388D01*
G01*
G37*
G36*
G01*
X146773075Y-74951242D02*
X146596298Y-75128019D01*
G75*
G02*
X146419522Y-75128019I-88388J88388D01*
G01*
X145535639Y-74244136D01*
G75*
G02*
X145535639Y-74067360I88388J88388D01*
G01*
X145712416Y-73890583D01*
G75*
G02*
X145889192Y-73890583I88388J-88388D01*
G01*
X146773075Y-74774466D01*
G75*
G02*
X146773075Y-74951242I-88388J-88388D01*
G01*
G37*
G36*
G01*
X147338761Y-74385557D02*
X147161984Y-74562334D01*
G75*
G02*
X146985208Y-74562334I-88388J88388D01*
G01*
X146101325Y-73678451D01*
G75*
G02*
X146101325Y-73501675I88388J88388D01*
G01*
X146278102Y-73324898D01*
G75*
G02*
X146454878Y-73324898I88388J-88388D01*
G01*
X147338761Y-74208781D01*
G75*
G02*
X147338761Y-74385557I-88388J-88388D01*
G01*
G37*
G36*
G01*
X147904446Y-73819871D02*
X147727669Y-73996648D01*
G75*
G02*
X147550893Y-73996648I-88388J88388D01*
G01*
X146667010Y-73112765D01*
G75*
G02*
X146667010Y-72935989I88388J88388D01*
G01*
X146843787Y-72759212D01*
G75*
G02*
X147020563Y-72759212I88388J-88388D01*
G01*
X147904446Y-73643095D01*
G75*
G02*
X147904446Y-73819871I-88388J-88388D01*
G01*
G37*
G36*
G01*
X149848990Y-73112765D02*
X148965107Y-73996648D01*
G75*
G02*
X148788331Y-73996648I-88388J88388D01*
G01*
X148611554Y-73819871D01*
G75*
G02*
X148611554Y-73643095I88388J88388D01*
G01*
X149495437Y-72759212D01*
G75*
G02*
X149672213Y-72759212I88388J-88388D01*
G01*
X149848990Y-72935989D01*
G75*
G02*
X149848990Y-73112765I-88388J-88388D01*
G01*
G37*
G36*
G01*
X150414675Y-73678451D02*
X149530792Y-74562334D01*
G75*
G02*
X149354016Y-74562334I-88388J88388D01*
G01*
X149177239Y-74385557D01*
G75*
G02*
X149177239Y-74208781I88388J88388D01*
G01*
X150061122Y-73324898D01*
G75*
G02*
X150237898Y-73324898I88388J-88388D01*
G01*
X150414675Y-73501675D01*
G75*
G02*
X150414675Y-73678451I-88388J-88388D01*
G01*
G37*
G36*
G01*
X150980361Y-74244136D02*
X150096478Y-75128019D01*
G75*
G02*
X149919702Y-75128019I-88388J88388D01*
G01*
X149742925Y-74951242D01*
G75*
G02*
X149742925Y-74774466I88388J88388D01*
G01*
X150626808Y-73890583D01*
G75*
G02*
X150803584Y-73890583I88388J-88388D01*
G01*
X150980361Y-74067360D01*
G75*
G02*
X150980361Y-74244136I-88388J-88388D01*
G01*
G37*
G36*
G01*
X151546046Y-74809821D02*
X150662163Y-75693704D01*
G75*
G02*
X150485387Y-75693704I-88388J88388D01*
G01*
X150308610Y-75516927D01*
G75*
G02*
X150308610Y-75340151I88388J88388D01*
G01*
X151192493Y-74456268D01*
G75*
G02*
X151369269Y-74456268I88388J-88388D01*
G01*
X151546046Y-74633045D01*
G75*
G02*
X151546046Y-74809821I-88388J-88388D01*
G01*
G37*
G36*
G01*
X152111732Y-75375507D02*
X151227849Y-76259390D01*
G75*
G02*
X151051073Y-76259390I-88388J88388D01*
G01*
X150874296Y-76082613D01*
G75*
G02*
X150874296Y-75905837I88388J88388D01*
G01*
X151758179Y-75021954D01*
G75*
G02*
X151934955Y-75021954I88388J-88388D01*
G01*
X152111732Y-75198731D01*
G75*
G02*
X152111732Y-75375507I-88388J-88388D01*
G01*
G37*
G36*
G01*
X152677417Y-75941192D02*
X151793534Y-76825075D01*
G75*
G02*
X151616758Y-76825075I-88388J88388D01*
G01*
X151439981Y-76648298D01*
G75*
G02*
X151439981Y-76471522I88388J88388D01*
G01*
X152323864Y-75587639D01*
G75*
G02*
X152500640Y-75587639I88388J-88388D01*
G01*
X152677417Y-75764416D01*
G75*
G02*
X152677417Y-75941192I-88388J-88388D01*
G01*
G37*
G36*
G01*
X153243102Y-76506878D02*
X152359219Y-77390761D01*
G75*
G02*
X152182443Y-77390761I-88388J88388D01*
G01*
X152005666Y-77213984D01*
G75*
G02*
X152005666Y-77037208I88388J88388D01*
G01*
X152889549Y-76153325D01*
G75*
G02*
X153066325Y-76153325I88388J-88388D01*
G01*
X153243102Y-76330102D01*
G75*
G02*
X153243102Y-76506878I-88388J-88388D01*
G01*
G37*
G36*
G01*
X153808788Y-77072563D02*
X152924905Y-77956446D01*
G75*
G02*
X152748129Y-77956446I-88388J88388D01*
G01*
X152571352Y-77779669D01*
G75*
G02*
X152571352Y-77602893I88388J88388D01*
G01*
X153455235Y-76719010D01*
G75*
G02*
X153632011Y-76719010I88388J-88388D01*
G01*
X153808788Y-76895787D01*
G75*
G02*
X153808788Y-77072563I-88388J-88388D01*
G01*
G37*
G36*
G01*
X153808788Y-79724213D02*
X153632011Y-79900990D01*
G75*
G02*
X153455235Y-79900990I-88388J88388D01*
G01*
X152571352Y-79017107D01*
G75*
G02*
X152571352Y-78840331I88388J88388D01*
G01*
X152748129Y-78663554D01*
G75*
G02*
X152924905Y-78663554I88388J-88388D01*
G01*
X153808788Y-79547437D01*
G75*
G02*
X153808788Y-79724213I-88388J-88388D01*
G01*
G37*
G36*
G01*
X153243102Y-80289898D02*
X153066325Y-80466675D01*
G75*
G02*
X152889549Y-80466675I-88388J88388D01*
G01*
X152005666Y-79582792D01*
G75*
G02*
X152005666Y-79406016I88388J88388D01*
G01*
X152182443Y-79229239D01*
G75*
G02*
X152359219Y-79229239I88388J-88388D01*
G01*
X153243102Y-80113122D01*
G75*
G02*
X153243102Y-80289898I-88388J-88388D01*
G01*
G37*
G36*
G01*
X152677417Y-80855584D02*
X152500640Y-81032361D01*
G75*
G02*
X152323864Y-81032361I-88388J88388D01*
G01*
X151439981Y-80148478D01*
G75*
G02*
X151439981Y-79971702I88388J88388D01*
G01*
X151616758Y-79794925D01*
G75*
G02*
X151793534Y-79794925I88388J-88388D01*
G01*
X152677417Y-80678808D01*
G75*
G02*
X152677417Y-80855584I-88388J-88388D01*
G01*
G37*
G36*
G01*
X152111732Y-81421269D02*
X151934955Y-81598046D01*
G75*
G02*
X151758179Y-81598046I-88388J88388D01*
G01*
X150874296Y-80714163D01*
G75*
G02*
X150874296Y-80537387I88388J88388D01*
G01*
X151051073Y-80360610D01*
G75*
G02*
X151227849Y-80360610I88388J-88388D01*
G01*
X152111732Y-81244493D01*
G75*
G02*
X152111732Y-81421269I-88388J-88388D01*
G01*
G37*
G36*
G01*
X151546046Y-81986955D02*
X151369269Y-82163732D01*
G75*
G02*
X151192493Y-82163732I-88388J88388D01*
G01*
X150308610Y-81279849D01*
G75*
G02*
X150308610Y-81103073I88388J88388D01*
G01*
X150485387Y-80926296D01*
G75*
G02*
X150662163Y-80926296I88388J-88388D01*
G01*
X151546046Y-81810179D01*
G75*
G02*
X151546046Y-81986955I-88388J-88388D01*
G01*
G37*
G36*
G01*
X150980361Y-82552640D02*
X150803584Y-82729417D01*
G75*
G02*
X150626808Y-82729417I-88388J88388D01*
G01*
X149742925Y-81845534D01*
G75*
G02*
X149742925Y-81668758I88388J88388D01*
G01*
X149919702Y-81491981D01*
G75*
G02*
X150096478Y-81491981I88388J-88388D01*
G01*
X150980361Y-82375864D01*
G75*
G02*
X150980361Y-82552640I-88388J-88388D01*
G01*
G37*
G36*
G01*
X150414675Y-83118325D02*
X150237898Y-83295102D01*
G75*
G02*
X150061122Y-83295102I-88388J88388D01*
G01*
X149177239Y-82411219D01*
G75*
G02*
X149177239Y-82234443I88388J88388D01*
G01*
X149354016Y-82057666D01*
G75*
G02*
X149530792Y-82057666I88388J-88388D01*
G01*
X150414675Y-82941549D01*
G75*
G02*
X150414675Y-83118325I-88388J-88388D01*
G01*
G37*
G36*
G01*
X149848990Y-83684011D02*
X149672213Y-83860788D01*
G75*
G02*
X149495437Y-83860788I-88388J88388D01*
G01*
X148611554Y-82976905D01*
G75*
G02*
X148611554Y-82800129I88388J88388D01*
G01*
X148788331Y-82623352D01*
G75*
G02*
X148965107Y-82623352I88388J-88388D01*
G01*
X149848990Y-83507235D01*
G75*
G02*
X149848990Y-83684011I-88388J-88388D01*
G01*
G37*
%TD*%
%TO.C,R17*%
G36*
G01*
X207899999Y-98650000D02*
X208800001Y-98650000D01*
G75*
G02*
X209050000Y-98899999I0J-249999D01*
G01*
X209050000Y-99425001D01*
G75*
G02*
X208800001Y-99675000I-249999J0D01*
G01*
X207899999Y-99675000D01*
G75*
G02*
X207650000Y-99425001I0J249999D01*
G01*
X207650000Y-98899999D01*
G75*
G02*
X207899999Y-98650000I249999J0D01*
G01*
G37*
G36*
G01*
X207899999Y-96825000D02*
X208800001Y-96825000D01*
G75*
G02*
X209050000Y-97074999I0J-249999D01*
G01*
X209050000Y-97600001D01*
G75*
G02*
X208800001Y-97850000I-249999J0D01*
G01*
X207899999Y-97850000D01*
G75*
G02*
X207650000Y-97600001I0J249999D01*
G01*
X207650000Y-97074999D01*
G75*
G02*
X207899999Y-96825000I249999J0D01*
G01*
G37*
%TD*%
%TO.C,R16*%
G36*
G01*
X197899999Y-98737500D02*
X198800001Y-98737500D01*
G75*
G02*
X199050000Y-98987499I0J-249999D01*
G01*
X199050000Y-99512501D01*
G75*
G02*
X198800001Y-99762500I-249999J0D01*
G01*
X197899999Y-99762500D01*
G75*
G02*
X197650000Y-99512501I0J249999D01*
G01*
X197650000Y-98987499D01*
G75*
G02*
X197899999Y-98737500I249999J0D01*
G01*
G37*
G36*
G01*
X197899999Y-96912500D02*
X198800001Y-96912500D01*
G75*
G02*
X199050000Y-97162499I0J-249999D01*
G01*
X199050000Y-97687501D01*
G75*
G02*
X198800001Y-97937500I-249999J0D01*
G01*
X197899999Y-97937500D01*
G75*
G02*
X197650000Y-97687501I0J249999D01*
G01*
X197650000Y-97162499D01*
G75*
G02*
X197899999Y-96912500I249999J0D01*
G01*
G37*
%TD*%
%TO.C,R15*%
G36*
G01*
X187899999Y-98650000D02*
X188800001Y-98650000D01*
G75*
G02*
X189050000Y-98899999I0J-249999D01*
G01*
X189050000Y-99425001D01*
G75*
G02*
X188800001Y-99675000I-249999J0D01*
G01*
X187899999Y-99675000D01*
G75*
G02*
X187650000Y-99425001I0J249999D01*
G01*
X187650000Y-98899999D01*
G75*
G02*
X187899999Y-98650000I249999J0D01*
G01*
G37*
G36*
G01*
X187899999Y-96825000D02*
X188800001Y-96825000D01*
G75*
G02*
X189050000Y-97074999I0J-249999D01*
G01*
X189050000Y-97600001D01*
G75*
G02*
X188800001Y-97850000I-249999J0D01*
G01*
X187899999Y-97850000D01*
G75*
G02*
X187650000Y-97600001I0J249999D01*
G01*
X187650000Y-97074999D01*
G75*
G02*
X187899999Y-96825000I249999J0D01*
G01*
G37*
%TD*%
%TO.C,R14*%
G36*
G01*
X177899999Y-98650000D02*
X178800001Y-98650000D01*
G75*
G02*
X179050000Y-98899999I0J-249999D01*
G01*
X179050000Y-99425001D01*
G75*
G02*
X178800001Y-99675000I-249999J0D01*
G01*
X177899999Y-99675000D01*
G75*
G02*
X177650000Y-99425001I0J249999D01*
G01*
X177650000Y-98899999D01*
G75*
G02*
X177899999Y-98650000I249999J0D01*
G01*
G37*
G36*
G01*
X177899999Y-96825000D02*
X178800001Y-96825000D01*
G75*
G02*
X179050000Y-97074999I0J-249999D01*
G01*
X179050000Y-97600001D01*
G75*
G02*
X178800001Y-97850000I-249999J0D01*
G01*
X177899999Y-97850000D01*
G75*
G02*
X177650000Y-97600001I0J249999D01*
G01*
X177650000Y-97074999D01*
G75*
G02*
X177899999Y-96825000I249999J0D01*
G01*
G37*
%TD*%
%TO.C,R13*%
G36*
G01*
X207899999Y-102650000D02*
X208800001Y-102650000D01*
G75*
G02*
X209050000Y-102899999I0J-249999D01*
G01*
X209050000Y-103425001D01*
G75*
G02*
X208800001Y-103675000I-249999J0D01*
G01*
X207899999Y-103675000D01*
G75*
G02*
X207650000Y-103425001I0J249999D01*
G01*
X207650000Y-102899999D01*
G75*
G02*
X207899999Y-102650000I249999J0D01*
G01*
G37*
G36*
G01*
X207899999Y-100825000D02*
X208800001Y-100825000D01*
G75*
G02*
X209050000Y-101074999I0J-249999D01*
G01*
X209050000Y-101600001D01*
G75*
G02*
X208800001Y-101850000I-249999J0D01*
G01*
X207899999Y-101850000D01*
G75*
G02*
X207650000Y-101600001I0J249999D01*
G01*
X207650000Y-101074999D01*
G75*
G02*
X207899999Y-100825000I249999J0D01*
G01*
G37*
%TD*%
%TO.C,R12*%
G36*
G01*
X197899999Y-102650000D02*
X198800001Y-102650000D01*
G75*
G02*
X199050000Y-102899999I0J-249999D01*
G01*
X199050000Y-103425001D01*
G75*
G02*
X198800001Y-103675000I-249999J0D01*
G01*
X197899999Y-103675000D01*
G75*
G02*
X197650000Y-103425001I0J249999D01*
G01*
X197650000Y-102899999D01*
G75*
G02*
X197899999Y-102650000I249999J0D01*
G01*
G37*
G36*
G01*
X197899999Y-100825000D02*
X198800001Y-100825000D01*
G75*
G02*
X199050000Y-101074999I0J-249999D01*
G01*
X199050000Y-101600001D01*
G75*
G02*
X198800001Y-101850000I-249999J0D01*
G01*
X197899999Y-101850000D01*
G75*
G02*
X197650000Y-101600001I0J249999D01*
G01*
X197650000Y-101074999D01*
G75*
G02*
X197899999Y-100825000I249999J0D01*
G01*
G37*
%TD*%
%TO.C,R11*%
G36*
G01*
X187899999Y-102650000D02*
X188800001Y-102650000D01*
G75*
G02*
X189050000Y-102899999I0J-249999D01*
G01*
X189050000Y-103425001D01*
G75*
G02*
X188800001Y-103675000I-249999J0D01*
G01*
X187899999Y-103675000D01*
G75*
G02*
X187650000Y-103425001I0J249999D01*
G01*
X187650000Y-102899999D01*
G75*
G02*
X187899999Y-102650000I249999J0D01*
G01*
G37*
G36*
G01*
X187899999Y-100825000D02*
X188800001Y-100825000D01*
G75*
G02*
X189050000Y-101074999I0J-249999D01*
G01*
X189050000Y-101600001D01*
G75*
G02*
X188800001Y-101850000I-249999J0D01*
G01*
X187899999Y-101850000D01*
G75*
G02*
X187650000Y-101600001I0J249999D01*
G01*
X187650000Y-101074999D01*
G75*
G02*
X187899999Y-100825000I249999J0D01*
G01*
G37*
%TD*%
%TO.C,R10*%
G36*
G01*
X177899999Y-102650000D02*
X178800001Y-102650000D01*
G75*
G02*
X179050000Y-102899999I0J-249999D01*
G01*
X179050000Y-103425001D01*
G75*
G02*
X178800001Y-103675000I-249999J0D01*
G01*
X177899999Y-103675000D01*
G75*
G02*
X177650000Y-103425001I0J249999D01*
G01*
X177650000Y-102899999D01*
G75*
G02*
X177899999Y-102650000I249999J0D01*
G01*
G37*
G36*
G01*
X177899999Y-100825000D02*
X178800001Y-100825000D01*
G75*
G02*
X179050000Y-101074999I0J-249999D01*
G01*
X179050000Y-101600001D01*
G75*
G02*
X178800001Y-101850000I-249999J0D01*
G01*
X177899999Y-101850000D01*
G75*
G02*
X177650000Y-101600001I0J249999D01*
G01*
X177650000Y-101074999D01*
G75*
G02*
X177899999Y-100825000I249999J0D01*
G01*
G37*
%TD*%
%TO.C,R9*%
G36*
G01*
X167899999Y-98650000D02*
X168800001Y-98650000D01*
G75*
G02*
X169050000Y-98899999I0J-249999D01*
G01*
X169050000Y-99425001D01*
G75*
G02*
X168800001Y-99675000I-249999J0D01*
G01*
X167899999Y-99675000D01*
G75*
G02*
X167650000Y-99425001I0J249999D01*
G01*
X167650000Y-98899999D01*
G75*
G02*
X167899999Y-98650000I249999J0D01*
G01*
G37*
G36*
G01*
X167899999Y-96825000D02*
X168800001Y-96825000D01*
G75*
G02*
X169050000Y-97074999I0J-249999D01*
G01*
X169050000Y-97600001D01*
G75*
G02*
X168800001Y-97850000I-249999J0D01*
G01*
X167899999Y-97850000D01*
G75*
G02*
X167650000Y-97600001I0J249999D01*
G01*
X167650000Y-97074999D01*
G75*
G02*
X167899999Y-96825000I249999J0D01*
G01*
G37*
%TD*%
%TO.C,R8*%
G36*
G01*
X157899999Y-98650000D02*
X158800001Y-98650000D01*
G75*
G02*
X159050000Y-98899999I0J-249999D01*
G01*
X159050000Y-99425001D01*
G75*
G02*
X158800001Y-99675000I-249999J0D01*
G01*
X157899999Y-99675000D01*
G75*
G02*
X157650000Y-99425001I0J249999D01*
G01*
X157650000Y-98899999D01*
G75*
G02*
X157899999Y-98650000I249999J0D01*
G01*
G37*
G36*
G01*
X157899999Y-96825000D02*
X158800001Y-96825000D01*
G75*
G02*
X159050000Y-97074999I0J-249999D01*
G01*
X159050000Y-97600001D01*
G75*
G02*
X158800001Y-97850000I-249999J0D01*
G01*
X157899999Y-97850000D01*
G75*
G02*
X157650000Y-97600001I0J249999D01*
G01*
X157650000Y-97074999D01*
G75*
G02*
X157899999Y-96825000I249999J0D01*
G01*
G37*
%TD*%
%TO.C,R7*%
G36*
G01*
X147899999Y-98650000D02*
X148800001Y-98650000D01*
G75*
G02*
X149050000Y-98899999I0J-249999D01*
G01*
X149050000Y-99425001D01*
G75*
G02*
X148800001Y-99675000I-249999J0D01*
G01*
X147899999Y-99675000D01*
G75*
G02*
X147650000Y-99425001I0J249999D01*
G01*
X147650000Y-98899999D01*
G75*
G02*
X147899999Y-98650000I249999J0D01*
G01*
G37*
G36*
G01*
X147899999Y-96825000D02*
X148800001Y-96825000D01*
G75*
G02*
X149050000Y-97074999I0J-249999D01*
G01*
X149050000Y-97600001D01*
G75*
G02*
X148800001Y-97850000I-249999J0D01*
G01*
X147899999Y-97850000D01*
G75*
G02*
X147650000Y-97600001I0J249999D01*
G01*
X147650000Y-97074999D01*
G75*
G02*
X147899999Y-96825000I249999J0D01*
G01*
G37*
%TD*%
%TO.C,R6*%
G36*
G01*
X137899999Y-98650000D02*
X138800001Y-98650000D01*
G75*
G02*
X139050000Y-98899999I0J-249999D01*
G01*
X139050000Y-99425001D01*
G75*
G02*
X138800001Y-99675000I-249999J0D01*
G01*
X137899999Y-99675000D01*
G75*
G02*
X137650000Y-99425001I0J249999D01*
G01*
X137650000Y-98899999D01*
G75*
G02*
X137899999Y-98650000I249999J0D01*
G01*
G37*
G36*
G01*
X137899999Y-96825000D02*
X138800001Y-96825000D01*
G75*
G02*
X139050000Y-97074999I0J-249999D01*
G01*
X139050000Y-97600001D01*
G75*
G02*
X138800001Y-97850000I-249999J0D01*
G01*
X137899999Y-97850000D01*
G75*
G02*
X137650000Y-97600001I0J249999D01*
G01*
X137650000Y-97074999D01*
G75*
G02*
X137899999Y-96825000I249999J0D01*
G01*
G37*
%TD*%
%TO.C,R5*%
G36*
G01*
X167899999Y-102650000D02*
X168800001Y-102650000D01*
G75*
G02*
X169050000Y-102899999I0J-249999D01*
G01*
X169050000Y-103425001D01*
G75*
G02*
X168800001Y-103675000I-249999J0D01*
G01*
X167899999Y-103675000D01*
G75*
G02*
X167650000Y-103425001I0J249999D01*
G01*
X167650000Y-102899999D01*
G75*
G02*
X167899999Y-102650000I249999J0D01*
G01*
G37*
G36*
G01*
X167899999Y-100825000D02*
X168800001Y-100825000D01*
G75*
G02*
X169050000Y-101074999I0J-249999D01*
G01*
X169050000Y-101600001D01*
G75*
G02*
X168800001Y-101850000I-249999J0D01*
G01*
X167899999Y-101850000D01*
G75*
G02*
X167650000Y-101600001I0J249999D01*
G01*
X167650000Y-101074999D01*
G75*
G02*
X167899999Y-100825000I249999J0D01*
G01*
G37*
%TD*%
%TO.C,R4*%
G36*
G01*
X157899999Y-102650000D02*
X158800001Y-102650000D01*
G75*
G02*
X159050000Y-102899999I0J-249999D01*
G01*
X159050000Y-103425001D01*
G75*
G02*
X158800001Y-103675000I-249999J0D01*
G01*
X157899999Y-103675000D01*
G75*
G02*
X157650000Y-103425001I0J249999D01*
G01*
X157650000Y-102899999D01*
G75*
G02*
X157899999Y-102650000I249999J0D01*
G01*
G37*
G36*
G01*
X157899999Y-100825000D02*
X158800001Y-100825000D01*
G75*
G02*
X159050000Y-101074999I0J-249999D01*
G01*
X159050000Y-101600001D01*
G75*
G02*
X158800001Y-101850000I-249999J0D01*
G01*
X157899999Y-101850000D01*
G75*
G02*
X157650000Y-101600001I0J249999D01*
G01*
X157650000Y-101074999D01*
G75*
G02*
X157899999Y-100825000I249999J0D01*
G01*
G37*
%TD*%
%TO.C,R3*%
G36*
G01*
X147899999Y-102650000D02*
X148800001Y-102650000D01*
G75*
G02*
X149050000Y-102899999I0J-249999D01*
G01*
X149050000Y-103425001D01*
G75*
G02*
X148800001Y-103675000I-249999J0D01*
G01*
X147899999Y-103675000D01*
G75*
G02*
X147650000Y-103425001I0J249999D01*
G01*
X147650000Y-102899999D01*
G75*
G02*
X147899999Y-102650000I249999J0D01*
G01*
G37*
G36*
G01*
X147899999Y-100825000D02*
X148800001Y-100825000D01*
G75*
G02*
X149050000Y-101074999I0J-249999D01*
G01*
X149050000Y-101600001D01*
G75*
G02*
X148800001Y-101850000I-249999J0D01*
G01*
X147899999Y-101850000D01*
G75*
G02*
X147650000Y-101600001I0J249999D01*
G01*
X147650000Y-101074999D01*
G75*
G02*
X147899999Y-100825000I249999J0D01*
G01*
G37*
%TD*%
%TO.C,R2*%
G36*
G01*
X137899999Y-102650000D02*
X138800001Y-102650000D01*
G75*
G02*
X139050000Y-102899999I0J-249999D01*
G01*
X139050000Y-103425001D01*
G75*
G02*
X138800001Y-103675000I-249999J0D01*
G01*
X137899999Y-103675000D01*
G75*
G02*
X137650000Y-103425001I0J249999D01*
G01*
X137650000Y-102899999D01*
G75*
G02*
X137899999Y-102650000I249999J0D01*
G01*
G37*
G36*
G01*
X137899999Y-100825000D02*
X138800001Y-100825000D01*
G75*
G02*
X139050000Y-101074999I0J-249999D01*
G01*
X139050000Y-101600001D01*
G75*
G02*
X138800001Y-101850000I-249999J0D01*
G01*
X137899999Y-101850000D01*
G75*
G02*
X137650000Y-101600001I0J249999D01*
G01*
X137650000Y-101074999D01*
G75*
G02*
X137899999Y-100825000I249999J0D01*
G01*
G37*
%TD*%
%TO.C,R1*%
G36*
G01*
X153270000Y-83877999D02*
X153270000Y-84778001D01*
G75*
G02*
X153020001Y-85028000I-249999J0D01*
G01*
X152494999Y-85028000D01*
G75*
G02*
X152245000Y-84778001I0J249999D01*
G01*
X152245000Y-83877999D01*
G75*
G02*
X152494999Y-83628000I249999J0D01*
G01*
X153020001Y-83628000D01*
G75*
G02*
X153270000Y-83877999I0J-249999D01*
G01*
G37*
G36*
G01*
X155095000Y-83877999D02*
X155095000Y-84778001D01*
G75*
G02*
X154845001Y-85028000I-249999J0D01*
G01*
X154319999Y-85028000D01*
G75*
G02*
X154070000Y-84778001I0J249999D01*
G01*
X154070000Y-83877999D01*
G75*
G02*
X154319999Y-83628000I249999J0D01*
G01*
X154845001Y-83628000D01*
G75*
G02*
X155095000Y-83877999I0J-249999D01*
G01*
G37*
%TD*%
D16*
%TO.C,J2*%
X134620000Y-90932000D03*
X132080000Y-90932000D03*
X134620000Y-88392000D03*
X132080000Y-88392000D03*
X134620000Y-85852000D03*
X132080000Y-85852000D03*
X134620000Y-83312000D03*
X132080000Y-83312000D03*
X134620000Y-80772000D03*
X132080000Y-80772000D03*
X134620000Y-78232000D03*
X132080000Y-78232000D03*
X134620000Y-75692000D03*
X132080000Y-75692000D03*
X134620000Y-73152000D03*
X132080000Y-73152000D03*
X134620000Y-70612000D03*
X132080000Y-70612000D03*
X134620000Y-68072000D03*
D17*
X132080000Y-68072000D03*
%TD*%
D18*
%TO.C,J1*%
X169748000Y-74388000D03*
X181748000Y-74388000D03*
D19*
X174498000Y-77248000D03*
X176998000Y-77248000D03*
X176998000Y-79248000D03*
D20*
X174498000Y-79248000D03*
%TD*%
%TO.C,D8*%
G36*
G01*
X205200000Y-105506250D02*
X205200000Y-104993750D01*
G75*
G02*
X205418750Y-104775000I218750J0D01*
G01*
X205856250Y-104775000D01*
G75*
G02*
X206075000Y-104993750I0J-218750D01*
G01*
X206075000Y-105506250D01*
G75*
G02*
X205856250Y-105725000I-218750J0D01*
G01*
X205418750Y-105725000D01*
G75*
G02*
X205200000Y-105506250I0J218750D01*
G01*
G37*
G36*
G01*
X203625000Y-105506250D02*
X203625000Y-104993750D01*
G75*
G02*
X203843750Y-104775000I218750J0D01*
G01*
X204281250Y-104775000D01*
G75*
G02*
X204500000Y-104993750I0J-218750D01*
G01*
X204500000Y-105506250D01*
G75*
G02*
X204281250Y-105725000I-218750J0D01*
G01*
X203843750Y-105725000D01*
G75*
G02*
X203625000Y-105506250I0J218750D01*
G01*
G37*
%TD*%
%TO.C,D7*%
G36*
G01*
X195200000Y-105506250D02*
X195200000Y-104993750D01*
G75*
G02*
X195418750Y-104775000I218750J0D01*
G01*
X195856250Y-104775000D01*
G75*
G02*
X196075000Y-104993750I0J-218750D01*
G01*
X196075000Y-105506250D01*
G75*
G02*
X195856250Y-105725000I-218750J0D01*
G01*
X195418750Y-105725000D01*
G75*
G02*
X195200000Y-105506250I0J218750D01*
G01*
G37*
G36*
G01*
X193625000Y-105506250D02*
X193625000Y-104993750D01*
G75*
G02*
X193843750Y-104775000I218750J0D01*
G01*
X194281250Y-104775000D01*
G75*
G02*
X194500000Y-104993750I0J-218750D01*
G01*
X194500000Y-105506250D01*
G75*
G02*
X194281250Y-105725000I-218750J0D01*
G01*
X193843750Y-105725000D01*
G75*
G02*
X193625000Y-105506250I0J218750D01*
G01*
G37*
%TD*%
%TO.C,D6*%
G36*
G01*
X185200000Y-105506250D02*
X185200000Y-104993750D01*
G75*
G02*
X185418750Y-104775000I218750J0D01*
G01*
X185856250Y-104775000D01*
G75*
G02*
X186075000Y-104993750I0J-218750D01*
G01*
X186075000Y-105506250D01*
G75*
G02*
X185856250Y-105725000I-218750J0D01*
G01*
X185418750Y-105725000D01*
G75*
G02*
X185200000Y-105506250I0J218750D01*
G01*
G37*
G36*
G01*
X183625000Y-105506250D02*
X183625000Y-104993750D01*
G75*
G02*
X183843750Y-104775000I218750J0D01*
G01*
X184281250Y-104775000D01*
G75*
G02*
X184500000Y-104993750I0J-218750D01*
G01*
X184500000Y-105506250D01*
G75*
G02*
X184281250Y-105725000I-218750J0D01*
G01*
X183843750Y-105725000D01*
G75*
G02*
X183625000Y-105506250I0J218750D01*
G01*
G37*
%TD*%
%TO.C,D5*%
G36*
G01*
X175200000Y-105506250D02*
X175200000Y-104993750D01*
G75*
G02*
X175418750Y-104775000I218750J0D01*
G01*
X175856250Y-104775000D01*
G75*
G02*
X176075000Y-104993750I0J-218750D01*
G01*
X176075000Y-105506250D01*
G75*
G02*
X175856250Y-105725000I-218750J0D01*
G01*
X175418750Y-105725000D01*
G75*
G02*
X175200000Y-105506250I0J218750D01*
G01*
G37*
G36*
G01*
X173625000Y-105506250D02*
X173625000Y-104993750D01*
G75*
G02*
X173843750Y-104775000I218750J0D01*
G01*
X174281250Y-104775000D01*
G75*
G02*
X174500000Y-104993750I0J-218750D01*
G01*
X174500000Y-105506250D01*
G75*
G02*
X174281250Y-105725000I-218750J0D01*
G01*
X173843750Y-105725000D01*
G75*
G02*
X173625000Y-105506250I0J218750D01*
G01*
G37*
%TD*%
%TO.C,D4*%
G36*
G01*
X165200000Y-105506250D02*
X165200000Y-104993750D01*
G75*
G02*
X165418750Y-104775000I218750J0D01*
G01*
X165856250Y-104775000D01*
G75*
G02*
X166075000Y-104993750I0J-218750D01*
G01*
X166075000Y-105506250D01*
G75*
G02*
X165856250Y-105725000I-218750J0D01*
G01*
X165418750Y-105725000D01*
G75*
G02*
X165200000Y-105506250I0J218750D01*
G01*
G37*
G36*
G01*
X163625000Y-105506250D02*
X163625000Y-104993750D01*
G75*
G02*
X163843750Y-104775000I218750J0D01*
G01*
X164281250Y-104775000D01*
G75*
G02*
X164500000Y-104993750I0J-218750D01*
G01*
X164500000Y-105506250D01*
G75*
G02*
X164281250Y-105725000I-218750J0D01*
G01*
X163843750Y-105725000D01*
G75*
G02*
X163625000Y-105506250I0J218750D01*
G01*
G37*
%TD*%
%TO.C,D3*%
G36*
G01*
X155200000Y-105506250D02*
X155200000Y-104993750D01*
G75*
G02*
X155418750Y-104775000I218750J0D01*
G01*
X155856250Y-104775000D01*
G75*
G02*
X156075000Y-104993750I0J-218750D01*
G01*
X156075000Y-105506250D01*
G75*
G02*
X155856250Y-105725000I-218750J0D01*
G01*
X155418750Y-105725000D01*
G75*
G02*
X155200000Y-105506250I0J218750D01*
G01*
G37*
G36*
G01*
X153625000Y-105506250D02*
X153625000Y-104993750D01*
G75*
G02*
X153843750Y-104775000I218750J0D01*
G01*
X154281250Y-104775000D01*
G75*
G02*
X154500000Y-104993750I0J-218750D01*
G01*
X154500000Y-105506250D01*
G75*
G02*
X154281250Y-105725000I-218750J0D01*
G01*
X153843750Y-105725000D01*
G75*
G02*
X153625000Y-105506250I0J218750D01*
G01*
G37*
%TD*%
%TO.C,D2*%
G36*
G01*
X145200000Y-105506250D02*
X145200000Y-104993750D01*
G75*
G02*
X145418750Y-104775000I218750J0D01*
G01*
X145856250Y-104775000D01*
G75*
G02*
X146075000Y-104993750I0J-218750D01*
G01*
X146075000Y-105506250D01*
G75*
G02*
X145856250Y-105725000I-218750J0D01*
G01*
X145418750Y-105725000D01*
G75*
G02*
X145200000Y-105506250I0J218750D01*
G01*
G37*
G36*
G01*
X143625000Y-105506250D02*
X143625000Y-104993750D01*
G75*
G02*
X143843750Y-104775000I218750J0D01*
G01*
X144281250Y-104775000D01*
G75*
G02*
X144500000Y-104993750I0J-218750D01*
G01*
X144500000Y-105506250D01*
G75*
G02*
X144281250Y-105725000I-218750J0D01*
G01*
X143843750Y-105725000D01*
G75*
G02*
X143625000Y-105506250I0J218750D01*
G01*
G37*
%TD*%
%TO.C,D1*%
G36*
G01*
X135200000Y-105506250D02*
X135200000Y-104993750D01*
G75*
G02*
X135418750Y-104775000I218750J0D01*
G01*
X135856250Y-104775000D01*
G75*
G02*
X136075000Y-104993750I0J-218750D01*
G01*
X136075000Y-105506250D01*
G75*
G02*
X135856250Y-105725000I-218750J0D01*
G01*
X135418750Y-105725000D01*
G75*
G02*
X135200000Y-105506250I0J218750D01*
G01*
G37*
G36*
G01*
X133625000Y-105506250D02*
X133625000Y-104993750D01*
G75*
G02*
X133843750Y-104775000I218750J0D01*
G01*
X134281250Y-104775000D01*
G75*
G02*
X134500000Y-104993750I0J-218750D01*
G01*
X134500000Y-105506250D01*
G75*
G02*
X134281250Y-105725000I-218750J0D01*
G01*
X133843750Y-105725000D01*
G75*
G02*
X133625000Y-105506250I0J218750D01*
G01*
G37*
%TD*%
%TO.C,C9*%
G36*
G01*
X153728000Y-81986000D02*
X153388000Y-81986000D01*
G75*
G02*
X153248000Y-81846000I0J140000D01*
G01*
X153248000Y-81566000D01*
G75*
G02*
X153388000Y-81426000I140000J0D01*
G01*
X153728000Y-81426000D01*
G75*
G02*
X153868000Y-81566000I0J-140000D01*
G01*
X153868000Y-81846000D01*
G75*
G02*
X153728000Y-81986000I-140000J0D01*
G01*
G37*
G36*
G01*
X153728000Y-82946000D02*
X153388000Y-82946000D01*
G75*
G02*
X153248000Y-82806000I0J140000D01*
G01*
X153248000Y-82526000D01*
G75*
G02*
X153388000Y-82386000I140000J0D01*
G01*
X153728000Y-82386000D01*
G75*
G02*
X153868000Y-82526000I0J-140000D01*
G01*
X153868000Y-82806000D01*
G75*
G02*
X153728000Y-82946000I-140000J0D01*
G01*
G37*
%TD*%
%TO.C,C8*%
G36*
G01*
X154998000Y-81986000D02*
X154658000Y-81986000D01*
G75*
G02*
X154518000Y-81846000I0J140000D01*
G01*
X154518000Y-81566000D01*
G75*
G02*
X154658000Y-81426000I140000J0D01*
G01*
X154998000Y-81426000D01*
G75*
G02*
X155138000Y-81566000I0J-140000D01*
G01*
X155138000Y-81846000D01*
G75*
G02*
X154998000Y-81986000I-140000J0D01*
G01*
G37*
G36*
G01*
X154998000Y-82946000D02*
X154658000Y-82946000D01*
G75*
G02*
X154518000Y-82806000I0J140000D01*
G01*
X154518000Y-82526000D01*
G75*
G02*
X154658000Y-82386000I140000J0D01*
G01*
X154998000Y-82386000D01*
G75*
G02*
X155138000Y-82526000I0J-140000D01*
G01*
X155138000Y-82806000D01*
G75*
G02*
X154998000Y-82946000I-140000J0D01*
G01*
G37*
%TD*%
%TO.C,C7*%
G36*
G01*
X147562000Y-70876000D02*
X147562000Y-70536000D01*
G75*
G02*
X147702000Y-70396000I140000J0D01*
G01*
X147982000Y-70396000D01*
G75*
G02*
X148122000Y-70536000I0J-140000D01*
G01*
X148122000Y-70876000D01*
G75*
G02*
X147982000Y-71016000I-140000J0D01*
G01*
X147702000Y-71016000D01*
G75*
G02*
X147562000Y-70876000I0J140000D01*
G01*
G37*
G36*
G01*
X148522000Y-70876000D02*
X148522000Y-70536000D01*
G75*
G02*
X148662000Y-70396000I140000J0D01*
G01*
X148942000Y-70396000D01*
G75*
G02*
X149082000Y-70536000I0J-140000D01*
G01*
X149082000Y-70876000D01*
G75*
G02*
X148942000Y-71016000I-140000J0D01*
G01*
X148662000Y-71016000D01*
G75*
G02*
X148522000Y-70876000I0J140000D01*
G01*
G37*
%TD*%
%TO.C,C6*%
G36*
G01*
X148522000Y-72146000D02*
X148522000Y-71806000D01*
G75*
G02*
X148662000Y-71666000I140000J0D01*
G01*
X148942000Y-71666000D01*
G75*
G02*
X149082000Y-71806000I0J-140000D01*
G01*
X149082000Y-72146000D01*
G75*
G02*
X148942000Y-72286000I-140000J0D01*
G01*
X148662000Y-72286000D01*
G75*
G02*
X148522000Y-72146000I0J140000D01*
G01*
G37*
G36*
G01*
X147562000Y-72146000D02*
X147562000Y-71806000D01*
G75*
G02*
X147702000Y-71666000I140000J0D01*
G01*
X147982000Y-71666000D01*
G75*
G02*
X148122000Y-71806000I0J-140000D01*
G01*
X148122000Y-72146000D01*
G75*
G02*
X147982000Y-72286000I-140000J0D01*
G01*
X147702000Y-72286000D01*
G75*
G02*
X147562000Y-72146000I0J140000D01*
G01*
G37*
%TD*%
%TO.C,C5*%
G36*
G01*
X148740000Y-84712000D02*
X148740000Y-85052000D01*
G75*
G02*
X148600000Y-85192000I-140000J0D01*
G01*
X148320000Y-85192000D01*
G75*
G02*
X148180000Y-85052000I0J140000D01*
G01*
X148180000Y-84712000D01*
G75*
G02*
X148320000Y-84572000I140000J0D01*
G01*
X148600000Y-84572000D01*
G75*
G02*
X148740000Y-84712000I0J-140000D01*
G01*
G37*
G36*
G01*
X149700000Y-84712000D02*
X149700000Y-85052000D01*
G75*
G02*
X149560000Y-85192000I-140000J0D01*
G01*
X149280000Y-85192000D01*
G75*
G02*
X149140000Y-85052000I0J140000D01*
G01*
X149140000Y-84712000D01*
G75*
G02*
X149280000Y-84572000I140000J0D01*
G01*
X149560000Y-84572000D01*
G75*
G02*
X149700000Y-84712000I0J-140000D01*
G01*
G37*
%TD*%
%TO.C,C4*%
G36*
G01*
X148740000Y-87252000D02*
X148740000Y-87592000D01*
G75*
G02*
X148600000Y-87732000I-140000J0D01*
G01*
X148320000Y-87732000D01*
G75*
G02*
X148180000Y-87592000I0J140000D01*
G01*
X148180000Y-87252000D01*
G75*
G02*
X148320000Y-87112000I140000J0D01*
G01*
X148600000Y-87112000D01*
G75*
G02*
X148740000Y-87252000I0J-140000D01*
G01*
G37*
G36*
G01*
X149700000Y-87252000D02*
X149700000Y-87592000D01*
G75*
G02*
X149560000Y-87732000I-140000J0D01*
G01*
X149280000Y-87732000D01*
G75*
G02*
X149140000Y-87592000I0J140000D01*
G01*
X149140000Y-87252000D01*
G75*
G02*
X149280000Y-87112000I140000J0D01*
G01*
X149560000Y-87112000D01*
G75*
G02*
X149700000Y-87252000I0J-140000D01*
G01*
G37*
%TD*%
%TO.C,C3*%
G36*
G01*
X148740000Y-85982000D02*
X148740000Y-86322000D01*
G75*
G02*
X148600000Y-86462000I-140000J0D01*
G01*
X148320000Y-86462000D01*
G75*
G02*
X148180000Y-86322000I0J140000D01*
G01*
X148180000Y-85982000D01*
G75*
G02*
X148320000Y-85842000I140000J0D01*
G01*
X148600000Y-85842000D01*
G75*
G02*
X148740000Y-85982000I0J-140000D01*
G01*
G37*
G36*
G01*
X149700000Y-85982000D02*
X149700000Y-86322000D01*
G75*
G02*
X149560000Y-86462000I-140000J0D01*
G01*
X149280000Y-86462000D01*
G75*
G02*
X149140000Y-86322000I0J140000D01*
G01*
X149140000Y-85982000D01*
G75*
G02*
X149280000Y-85842000I140000J0D01*
G01*
X149560000Y-85842000D01*
G75*
G02*
X149700000Y-85982000I0J-140000D01*
G01*
G37*
%TD*%
%TO.C,C2*%
G36*
G01*
X181897000Y-89858000D02*
X182847000Y-89858000D01*
G75*
G02*
X183097000Y-90108000I0J-250000D01*
G01*
X183097000Y-90608000D01*
G75*
G02*
X182847000Y-90858000I-250000J0D01*
G01*
X181897000Y-90858000D01*
G75*
G02*
X181647000Y-90608000I0J250000D01*
G01*
X181647000Y-90108000D01*
G75*
G02*
X181897000Y-89858000I250000J0D01*
G01*
G37*
G36*
G01*
X181897000Y-87958000D02*
X182847000Y-87958000D01*
G75*
G02*
X183097000Y-88208000I0J-250000D01*
G01*
X183097000Y-88708000D01*
G75*
G02*
X182847000Y-88958000I-250000J0D01*
G01*
X181897000Y-88958000D01*
G75*
G02*
X181647000Y-88708000I0J250000D01*
G01*
X181647000Y-88208000D01*
G75*
G02*
X181897000Y-87958000I250000J0D01*
G01*
G37*
%TD*%
%TO.C,C1*%
G36*
G01*
X181721999Y-85990000D02*
X183022001Y-85990000D01*
G75*
G02*
X183272000Y-86239999I0J-249999D01*
G01*
X183272000Y-86890001D01*
G75*
G02*
X183022001Y-87140000I-249999J0D01*
G01*
X181721999Y-87140000D01*
G75*
G02*
X181472000Y-86890001I0J249999D01*
G01*
X181472000Y-86239999D01*
G75*
G02*
X181721999Y-85990000I249999J0D01*
G01*
G37*
G36*
G01*
X181721999Y-83040000D02*
X183022001Y-83040000D01*
G75*
G02*
X183272000Y-83289999I0J-249999D01*
G01*
X183272000Y-83940001D01*
G75*
G02*
X183022001Y-84190000I-249999J0D01*
G01*
X181721999Y-84190000D01*
G75*
G02*
X181472000Y-83940001I0J249999D01*
G01*
X181472000Y-83289999D01*
G75*
G02*
X181721999Y-83040000I249999J0D01*
G01*
G37*
%TD*%
M02*
