G04 #@! TF.GenerationSoftware,KiCad,Pcbnew,(5.1.8)-1*
G04 #@! TF.CreationDate,2021-01-10T11:48:34-05:00*
G04 #@! TF.ProjectId,Relacon,52656c61-636f-46e2-9e6b-696361645f70,1*
G04 #@! TF.SameCoordinates,Original*
G04 #@! TF.FileFunction,Soldermask,Bot*
G04 #@! TF.FilePolarity,Negative*
%FSLAX46Y46*%
G04 Gerber Fmt 4.6, Leading zero omitted, Abs format (unit mm)*
G04 Created by KiCad (PCBNEW (5.1.8)-1) date 2021-01-10 11:48:34*
%MOMM*%
%LPD*%
G01*
G04 APERTURE LIST*
%ADD10C,1.448000*%
%ADD11R,2.600000X2.600000*%
%ADD12C,2.600000*%
%ADD13O,1.700000X1.700000*%
%ADD14R,1.700000X1.700000*%
%ADD15C,4.000000*%
%ADD16C,1.600000*%
%ADD17R,1.600000X1.600000*%
G04 APERTURE END LIST*
D10*
X128905000Y-65405000D03*
X210820000Y-65405000D03*
X210820000Y-115570000D03*
X128905000Y-115570000D03*
D11*
X132350000Y-112750000D03*
D12*
X137350000Y-112750000D03*
X142350000Y-112750000D03*
X147350000Y-112750000D03*
X152350000Y-112750000D03*
X157350000Y-112750000D03*
X162350000Y-112750000D03*
X167350000Y-112750000D03*
X172350000Y-112750000D03*
X177350000Y-112750000D03*
X182350000Y-112750000D03*
X187350000Y-112750000D03*
X192350000Y-112750000D03*
X197350000Y-112750000D03*
X202350000Y-112750000D03*
X207350000Y-112750000D03*
D13*
X134620000Y-90932000D03*
X132080000Y-90932000D03*
X134620000Y-88392000D03*
X132080000Y-88392000D03*
X134620000Y-85852000D03*
X132080000Y-85852000D03*
X134620000Y-83312000D03*
X132080000Y-83312000D03*
X134620000Y-80772000D03*
X132080000Y-80772000D03*
X134620000Y-78232000D03*
X132080000Y-78232000D03*
X134620000Y-75692000D03*
X132080000Y-75692000D03*
X134620000Y-73152000D03*
X132080000Y-73152000D03*
X134620000Y-70612000D03*
X132080000Y-70612000D03*
X134620000Y-68072000D03*
D14*
X132080000Y-68072000D03*
D15*
X169748000Y-74388000D03*
X181748000Y-74388000D03*
D16*
X174498000Y-77248000D03*
X176998000Y-77248000D03*
X176998000Y-79248000D03*
D17*
X174498000Y-79248000D03*
M02*
